<svg xmlns="http://www.w3.org/2000/svg" viewBox="0 0 1200 760" width="1200" height="760">
<defs>
<marker id="arrow" markerWidth="10" markerHeight="7" refX="9" refY="3.5" orient="auto">
<path d="M0,0 L10,3.5 L0,7 Z" fill="#64748b"/>
</marker>
<filter id="shadow" x="-10%" y="-10%" width="120%" height="130%">
<feDropShadow dx="0" dy="8" stdDeviation="10" flood-color="#0f172a" flood-opacity="0.10"/>
</filter>
</defs>
<rect x="0" y="0" width="1200" height="760" fill="#ffffff"/>
<rect x="40" y="38" width="1120" height="684" rx="22" fill="#f8fafc" stroke="#e2e8f0"/>
<text x="600" y="92" text-anchor="middle" font-family="Arial, sans-serif" font-size="30" font-weight="700" fill="#0f172a">Advanced Enterprise Interactions</text>
<text x="600" y="126" text-anchor="middle" font-family="Arial, sans-serif" font-size="15" fill="#475569">Classic enterprise information-system UI patterns</text>
<rect x="148" y="180" width="208" height="390" rx="16" fill="#eff6ff" stroke="#2563eb" stroke-width="2" filter="url(#shadow)"/>
<circle cx="252.0" cy="226" r="24" fill="#ffffff" stroke="#2563eb" stroke-width="2"/>
<text x="252.0" y="233" text-anchor="middle" font-family="Arial, sans-serif" font-size="20" font-weight="700" fill="#2563eb">1</text>
<text x="252.0" y="276" text-anchor="middle" font-family="Arial, sans-serif" font-size="18" font-weight="700" fill="#0f172a">Personalize</text>
<rect x="170" y="296" width="164" height="38" rx="10" fill="#ffffff" stroke="#cbd5e1"/>
<text x="252.0" y="321" text-anchor="middle" font-family="Arial, sans-serif" font-size="14" fill="#1e293b">Variant</text>
<rect x="170" y="350" width="164" height="38" rx="10" fill="#ffffff" stroke="#cbd5e1"/>
<text x="252.0" y="375" text-anchor="middle" font-family="Arial, sans-serif" font-size="14" fill="#1e293b">Saved View</text>
<rect x="170" y="404" width="164" height="38" rx="10" fill="#ffffff" stroke="#cbd5e1"/>
<text x="252.0" y="429" text-anchor="middle" font-family="Arial, sans-serif" font-size="14" fill="#1e293b">Column Setup</text>
<path d="M364,377 L372,377" stroke="#64748b" stroke-width="2" marker-end="url(#arrow)"/>
<rect x="380" y="180" width="208" height="390" rx="16" fill="#f0fdf4" stroke="#16a34a" stroke-width="2" filter="url(#shadow)"/>
<circle cx="484.0" cy="226" r="24" fill="#ffffff" stroke="#16a34a" stroke-width="2"/>
<text x="484.0" y="233" text-anchor="middle" font-family="Arial, sans-serif" font-size="20" font-weight="700" fill="#16a34a">2</text>
<text x="484.0" y="276" text-anchor="middle" font-family="Arial, sans-serif" font-size="18" font-weight="700" fill="#0f172a">Protect</text>
<rect x="402" y="296" width="164" height="38" rx="10" fill="#ffffff" stroke="#cbd5e1"/>
<text x="484.0" y="321" text-anchor="middle" font-family="Arial, sans-serif" font-size="14" fill="#1e293b">Draft</text>
<rect x="402" y="350" width="164" height="38" rx="10" fill="#ffffff" stroke="#cbd5e1"/>
<text x="484.0" y="375" text-anchor="middle" font-family="Arial, sans-serif" font-size="14" fill="#1e293b">Unsaved Guard</text>
<rect x="402" y="404" width="164" height="38" rx="10" fill="#ffffff" stroke="#cbd5e1"/>
<text x="484.0" y="429" text-anchor="middle" font-family="Arial, sans-serif" font-size="14" fill="#1e293b">Conflict</text>
<path d="M596,377 L604,377" stroke="#64748b" stroke-width="2" marker-end="url(#arrow)"/>
<rect x="612" y="180" width="208" height="390" rx="16" fill="#fff7ed" stroke="#ea580c" stroke-width="2" filter="url(#shadow)"/>
<circle cx="716.0" cy="226" r="24" fill="#ffffff" stroke="#ea580c" stroke-width="2"/>
<text x="716.0" y="233" text-anchor="middle" font-family="Arial, sans-serif" font-size="20" font-weight="700" fill="#ea580c">3</text>
<text x="716.0" y="276" text-anchor="middle" font-family="Arial, sans-serif" font-size="18" font-weight="700" fill="#0f172a">Async</text>
<rect x="634" y="296" width="164" height="38" rx="10" fill="#ffffff" stroke="#cbd5e1"/>
<text x="716.0" y="321" text-anchor="middle" font-family="Arial, sans-serif" font-size="14" fill="#1e293b">Long Task</text>
<rect x="634" y="350" width="164" height="38" rx="10" fill="#ffffff" stroke="#cbd5e1"/>
<text x="716.0" y="375" text-anchor="middle" font-family="Arial, sans-serif" font-size="14" fill="#1e293b">Progress</text>
<rect x="634" y="404" width="164" height="38" rx="10" fill="#ffffff" stroke="#cbd5e1"/>
<text x="716.0" y="429" text-anchor="middle" font-family="Arial, sans-serif" font-size="14" fill="#1e293b">Task Center</text>
<path d="M828,377 L836,377" stroke="#64748b" stroke-width="2" marker-end="url(#arrow)"/>
<rect x="844" y="180" width="208" height="390" rx="16" fill="#fdf2f8" stroke="#db2777" stroke-width="2" filter="url(#shadow)"/>
<circle cx="948.0" cy="226" r="24" fill="#ffffff" stroke="#db2777" stroke-width="2"/>
<text x="948.0" y="233" text-anchor="middle" font-family="Arial, sans-serif" font-size="20" font-weight="700" fill="#db2777">4</text>
<text x="948.0" y="276" text-anchor="middle" font-family="Arial, sans-serif" font-size="18" font-weight="700" fill="#0f172a">Power User</text>
<rect x="866" y="296" width="164" height="38" rx="10" fill="#ffffff" stroke="#cbd5e1"/>
<text x="948.0" y="321" text-anchor="middle" font-family="Arial, sans-serif" font-size="14" fill="#1e293b">Keyboard</text>
<rect x="866" y="350" width="164" height="38" rx="10" fill="#ffffff" stroke="#cbd5e1"/>
<text x="948.0" y="375" text-anchor="middle" font-family="Arial, sans-serif" font-size="14" fill="#1e293b">Command Palette</text>
<rect x="866" y="404" width="164" height="38" rx="10" fill="#ffffff" stroke="#cbd5e1"/>
<text x="948.0" y="429" text-anchor="middle" font-family="Arial, sans-serif" font-size="14" fill="#1e293b">Bulk Flow</text>
<rect x="126" y="626" width="948" height="50" rx="14" fill="#ffffff" stroke="#cbd5e1"/>
<text x="600" y="657" text-anchor="middle" font-family="Arial, sans-serif" font-size="15" fill="#334155">Use the diagram as a visual map; the surrounding document explains applicability, anti-patterns, and checks.</text>
</svg>