<?xml version="1.0" encoding="UTF-8"?>
<svg xmlns="http://www.w3.org/2000/svg" viewBox="0 0 1280 920" width="1920" height="1380">
  <style>
    text { font-family: 'Helvetica Neue', Helvetica, Arial, 'PingFang SC', 'Microsoft YaHei', 'Microsoft JhengHei', 'SimHei', sans-serif; }
    .title { font-size: 28px; font-weight: 700; fill: #111827; }
    .subtitle { font-size: 13px; fill: #6b7280; }
    .lane-label { font-size: 12px; font-weight: 700; fill: #374151; letter-spacing: 1px; }
    .node-title { font-size: 15px; font-weight: 700; fill: #111827; }
    .node-sub { font-size: 12px; fill: #4b5563; }
    .small { font-size: 11px; fill: #6b7280; }
    .badge { font-size: 11px; font-weight: 700; fill: #1f2937; }
    .legend { font-size: 12px; fill: #4b5563; }
  </style>
  <defs>
    <filter id="shadow" x="-20%" y="-20%" width="140%" height="140%">
      <feDropShadow dx="0" dy="4" stdDeviation="5" flood-color="#111827" flood-opacity="0.10"/>
    </filter>
    <marker id="arrow-blue" markerWidth="10" markerHeight="7" refX="9" refY="3.5" orient="auto">
      <polygon points="0 0, 10 3.5, 0 7" fill="#2563eb"/>
    </marker>
    <marker id="arrow-green" markerWidth="10" markerHeight="7" refX="9" refY="3.5" orient="auto">
      <polygon points="0 0, 10 3.5, 0 7" fill="#16a34a"/>
    </marker>
    <marker id="arrow-orange" markerWidth="10" markerHeight="7" refX="9" refY="3.5" orient="auto">
      <polygon points="0 0, 10 3.5, 0 7" fill="#ea580c"/>
    </marker>
    <marker id="arrow-purple" markerWidth="10" markerHeight="7" refX="9" refY="3.5" orient="auto">
      <polygon points="0 0, 10 3.5, 0 7" fill="#9333ea"/>
    </marker>
    <marker id="arrow-gray" markerWidth="10" markerHeight="7" refX="9" refY="3.5" orient="auto">
      <polygon points="0 0, 10 3.5, 0 7" fill="#6b7280"/>
    </marker>
  </defs>
  <rect width="1280" height="920" fill="#ffffff"/>
  <text x="640" y="46" text-anchor="middle" class="title">POS 本地数据库自动建表与结构升级机制</text>
  <text x="640" y="70" text-anchor="middle" class="subtitle">VerMgrServer：实体反射 + information_schema 差异对比生成 DDL，不执行 SQL 脚本目录</text>
  <rect x="40" y="100" width="230" height="720" rx="10" fill="#eff6ff" fill-opacity="0.42" stroke="#bfdbfe" stroke-width="1.5" stroke-dasharray="8,5"/>
  <text x="54" y="124" class="lane-label">触发层</text>
  <rect x="290" y="100" width="300" height="720" rx="10" fill="#fff7ed" fill-opacity="0.42" stroke="#fed7aa" stroke-width="1.5" stroke-dasharray="8,5"/>
  <text x="304" y="124" class="lane-label">版本与元数据</text>
  <rect x="610" y="100" width="290" height="720" rx="10" fill="#f0fdf4" fill-opacity="0.42" stroke="#bbf7d0" stroke-width="1.5" stroke-dasharray="8,5"/>
  <text x="624" y="124" class="lane-label">实体反射与差异判断</text>
  <rect x="920" y="100" width="320" height="720" rx="10" fill="#faf5ff" fill-opacity="0.42" stroke="#ddd6fe" stroke-width="1.5" stroke-dasharray="8,5"/>
  <text x="934" y="124" class="lane-label">DDL 执行与结果</text>
  <g filter="url(#shadow)">
    <rect x="70" y="155" width="170" height="84" rx="8" fill="#ffffff" stroke="#bfdbfe" stroke-width="1.5"/>
    <circle cx="95" cy="183" r="15" fill="#ffffff" stroke="#bfdbfe" stroke-width="1"/>
    <text x="95" y="188" text-anchor="middle" class="badge">APP</text>
    <text x="120" y="180" class="node-title">POS 启动</text>
    <text x="120" y="200" class="node-sub">MySQL 可连接后</text>
    <text x="120" y="217" class="node-sub">初始化 MyBatisFlex</text>
  </g>
  <g filter="url(#shadow)">
    <rect x="70" y="300" width="170" height="82" rx="8" fill="#ffffff" stroke="#bfdbfe" stroke-width="1.5"/>
    <circle cx="95" cy="328" r="15" fill="#ffffff" stroke="#bfdbfe" stroke-width="1"/>
    <text x="95" y="333" text-anchor="middle" class="badge">API</text>
    <text x="120" y="325" class="node-title">手动升级接口</text>
    <text x="120" y="345" class="node-sub">POST /upgrade</text>
    <text x="120" y="362" class="node-sub">upgrade(true)</text>
  </g>
  <g filter="url(#shadow)">
    <rect x="70" y="475" width="170" height="96" rx="8" fill="#ffffff" stroke="#bfdbfe" stroke-width="1.5"/>
    <circle cx="95" cy="503" r="15" fill="#ffffff" stroke="#bfdbfe" stroke-width="1"/>
    <text x="95" y="508" text-anchor="middle" class="badge">VM</text>
    <text x="120" y="500" class="node-title">VerMgrServer</text>
    <text x="120" y="520" class="node-sub">upgrade(false)</text>
    <text x="120" y="537" class="node-sub">或 upgrade(true)</text>
  </g>
  <g filter="url(#shadow)">
    <rect x="320" y="140" width="230" height="92" rx="8" fill="#ffffff" stroke="#fed7aa" stroke-width="1.5"/>
    <circle cx="345" cy="168" r="15" fill="#ffffff" stroke="#fed7aa" stroke-width="1"/>
    <text x="345" y="173" text-anchor="middle" class="badge">INI</text>
    <text x="370" y="165" class="node-title">读取文件版本</text>
    <text x="370" y="185" class="node-sub">verInfo.ini</text>
    <text x="370" y="202" class="node-sub">POS_VERSION</text>
  </g>
  <g filter="url(#shadow)">
    <ellipse cx="435" cy="300" rx="110.0" ry="14" fill="#f0fdf4" stroke="#86efac" stroke-width="1.5"/>
    <rect x="325.0" y="300" width="220" height="102" fill="#f0fdf4" stroke="none"/>
    <line x1="325.0" y1="300" x2="325.0" y2="402" stroke="#86efac" stroke-width="1.5"/>
    <line x1="545.0" y1="300" x2="545.0" y2="402" stroke="#86efac" stroke-width="1.5"/>
    <ellipse cx="435" cy="402" rx="110.0" ry="14" fill="#dcfce7" stroke="#86efac" stroke-width="1.5"/>
    <text x="435" y="334" text-anchor="middle" class="node-title">本地 MySQL</text>
    <text x="435" y="355" text-anchor="middle" class="node-sub">sys_config_data</text>
    <text x="435" y="371" text-anchor="middle" class="node-sub">information_schema</text>
  </g>
  <g filter="url(#shadow)">
    <polygon points="435,475.0 550.0,535 435,595.0 320.0,535" fill="#ffffff" stroke="#fed7aa" stroke-width="1.5"/>
    <text x="435" y="530" text-anchor="middle" class="node-title">版本一致？</text>
    <text x="435" y="550" text-anchor="middle" class="small">false 执行升级</text>
    <text x="435" y="565" text-anchor="middle" class="small">true 直接返回</text>
  </g>
  <g filter="url(#shadow)">
    <rect x="640" y="135" width="230" height="90" rx="8" fill="#ffffff" stroke="#bbf7d0" stroke-width="1.5"/>
    <circle cx="665" cy="163" r="15" fill="#ffffff" stroke="#bbf7d0" stroke-width="1"/>
    <text x="665" y="168" text-anchor="middle" class="badge">REF</text>
    <text x="690" y="160" class="node-title">扫描实体类</text>
    <text x="690" y="180" class="node-sub">Reflections</text>
    <text x="690" y="197" class="node-sub">BaseEntity 子类</text>
  </g>
  <g filter="url(#shadow)">
    <rect x="640" y="280" width="230" height="98" rx="8" fill="#ffffff" stroke="#bbf7d0" stroke-width="1.5"/>
    <circle cx="665" cy="308" r="15" fill="#ffffff" stroke="#bbf7d0" stroke-width="1"/>
    <text x="665" y="313" text-anchor="middle" class="badge">ANN</text>
    <text x="690" y="305" class="node-title">读取注解模型</text>
    <text x="690" y="325" class="node-sub">@Table 表名</text>
    <text x="690" y="342" class="node-sub">@Column 字段</text>
    <text x="690" y="359" class="node-sub">@ColumnPlus 扩展</text>
  </g>
  <g filter="url(#shadow)">
    <polygon points="755,445.0 870.0,505 755,565.0 640.0,505" fill="#ffffff" stroke="#bbf7d0" stroke-width="1.5"/>
    <text x="755" y="500" text-anchor="middle" class="node-title">表存在？</text>
    <text x="755" y="520" text-anchor="middle" class="small">不存在：CREATE</text>
    <text x="755" y="535" text-anchor="middle" class="small">存在：ALTER</text>
  </g>
  <g filter="url(#shadow)">
    <rect x="640" y="670" width="230" height="90" rx="8" fill="#ffffff" stroke="#bbf7d0" stroke-width="1.5"/>
    <circle cx="665" cy="698" r="15" fill="#ffffff" stroke="#bbf7d0" stroke-width="1"/>
    <text x="665" y="703" text-anchor="middle" class="badge">MAP</text>
    <text x="690" y="695" class="node-title">类型与索引规则</text>
    <text x="690" y="715" class="node-sub">Java 类型映射</text>
    <text x="690" y="732" class="node-sub">安全变宽</text>
    <text x="690" y="749" class="node-sub">needToCreateIndex</text>
  </g>
  <g filter="url(#shadow)">
    <rect x="960" y="125" width="240" height="108" rx="8" fill="#ffffff" stroke="#ddd6fe" stroke-width="1.5"/>
    <circle cx="985" cy="153" r="15" fill="#ffffff" stroke="#ddd6fe" stroke-width="1"/>
    <text x="985" y="158" text-anchor="middle" class="badge">DDL</text>
    <text x="1010" y="150" class="node-title">CREATE TABLE</text>
    <text x="1010" y="170" class="node-sub">pid 自增主键</text>
    <text x="1010" y="187" class="node-sub">实体字段转列</text>
    <text x="1010" y="204" class="node-sub">lid 自动索引</text>
  </g>
  <g filter="url(#shadow)">
    <rect x="960" y="300" width="240" height="116" rx="8" fill="#ffffff" stroke="#ddd6fe" stroke-width="1.5"/>
    <circle cx="985" cy="328" r="15" fill="#ffffff" stroke="#ddd6fe" stroke-width="1"/>
    <text x="985" y="333" text-anchor="middle" class="badge">DDL</text>
    <text x="1010" y="325" class="node-title">ALTER TABLE</text>
    <text x="1010" y="345" class="node-sub">ADD COLUMN</text>
    <text x="1010" y="362" class="node-sub">MODIFY COLUMN</text>
    <text x="1010" y="379" class="node-sub">ADD INDEX</text>
  </g>
  <g filter="url(#shadow)">
    <rect x="960" y="495" width="240" height="98" rx="8" fill="#ffffff" stroke="#ddd6fe" stroke-width="1.5"/>
    <circle cx="985" cy="523" r="15" fill="#ffffff" stroke="#ddd6fe" stroke-width="1"/>
    <text x="985" y="528" text-anchor="middle" class="badge">SQL</text>
    <text x="1010" y="520" class="node-title">Db.updateBySql()</text>
    <text x="1010" y="540" class="node-sub">合并 ALTER</text>
    <text x="1010" y="557" class="node-sub">失败降级逐条执行</text>
  </g>
  <g filter="url(#shadow)">
    <rect x="960" y="690" width="240" height="82" rx="8" fill="#ffffff" stroke="#ddd6fe" stroke-width="1.5"/>
    <circle cx="985" cy="718" r="15" fill="#ffffff" stroke="#ddd6fe" stroke-width="1"/>
    <text x="985" y="723" text-anchor="middle" class="badge">OK</text>
    <text x="1010" y="715" class="node-title">更新版本号</text>
    <text x="1010" y="735" class="node-sub">写回 sys_config_data</text>
    <text x="1010" y="752" class="node-sub">POS_VERSION</text>
  </g>
  <line x1="155" y1="239" x2="155" y2="475" stroke="#ea580c" stroke-width="2" marker-end="url(#arrow-orange)"/>
  <rect x="163.0" y="341" width="54" height="21" rx="4" fill="#ffffff" opacity="0.96" stroke="#e5e7eb" stroke-width="0.8"/>
  <text x="190" y="356" text-anchor="middle" class="small">启动触发</text>
  <line x1="155" y1="382" x2="155" y2="475" stroke="#ea580c" stroke-width="2" marker-end="url(#arrow-orange)"/>
  <rect x="79.0" y="417" width="54" height="21" rx="4" fill="#ffffff" opacity="0.96" stroke="#e5e7eb" stroke-width="0.8"/>
  <text x="106" y="432" text-anchor="middle" class="small">强制触发</text>
  <path d="M 240,523 L 280,523 L 280,186 L 320,186" fill="none" stroke="#2563eb" stroke-width="2" marker-end="url(#arrow-blue)"/>
  <rect x="249.0" y="153" width="60" height="21" rx="4" fill="#ffffff" opacity="0.96" stroke="#e5e7eb" stroke-width="0.8"/>
  <text x="279" y="168" text-anchor="middle" class="small">读文件版本</text>
  <path d="M 550,186 L 585,186 L 585,180 L 640,180" fill="none" stroke="#16a34a" stroke-width="2" marker-end="url(#arrow-green)"/>
  <rect x="568.0" y="145" width="54" height="21" rx="4" fill="#ffffff" opacity="0.96" stroke="#e5e7eb" stroke-width="0.8"/>
  <text x="595" y="160" text-anchor="middle" class="small">扫描代码</text>
  <path d="M 435,402 L 435,475" fill="none" stroke="#2563eb" stroke-width="2" marker-end="url(#arrow-blue)"/>
  <rect x="460.0" y="427" width="54" height="21" rx="4" fill="#ffffff" opacity="0.96" stroke="#e5e7eb" stroke-width="0.8"/>
  <text x="487" y="442" text-anchor="middle" class="small">读库版本</text>
  <path d="M 240,523 L 320,523" fill="none" stroke="#2563eb" stroke-width="2" marker-end="url(#arrow-blue)"/>
  <path d="M 550,535 L 610,535 L 610,180 L 640,180" fill="none" stroke="#16a34a" stroke-width="2" marker-end="url(#arrow-green)" stroke-dasharray="6,4"/>
  <rect x="583.0" y="393" width="54" height="21" rx="4" fill="#ffffff" opacity="0.96" stroke="#e5e7eb" stroke-width="0.8"/>
  <text x="610" y="408" text-anchor="middle" class="small">需要升级</text>
  <path d="M 755,225 L 755,280" fill="none" stroke="#16a34a" stroke-width="2" marker-end="url(#arrow-green)"/>
  <rect x="786.0" y="243" width="54" height="21" rx="4" fill="#ffffff" opacity="0.96" stroke="#e5e7eb" stroke-width="0.8"/>
  <text x="813" y="258" text-anchor="middle" class="small">实体集合</text>
  <path d="M 755,378 L 755,445" fill="none" stroke="#16a34a" stroke-width="2" marker-end="url(#arrow-green)"/>
  <rect x="791.0" y="404" width="54" height="21" rx="4" fill="#ffffff" opacity="0.96" stroke="#e5e7eb" stroke-width="0.8"/>
  <text x="818" y="419" text-anchor="middle" class="small">差异对比</text>
  <path d="M 870,505 L 920,505 L 920,179 L 960,179" fill="none" stroke="#9333ea" stroke-width="2" marker-end="url(#arrow-purple)"/>
  <rect x="891.0" y="241" width="54" height="21" rx="4" fill="#ffffff" opacity="0.96" stroke="#e5e7eb" stroke-width="0.8"/>
  <text x="918" y="256" text-anchor="middle" class="small">表缺失</text>
  <path d="M 870,535 L 920,535 L 920,358 L 960,358" fill="none" stroke="#9333ea" stroke-width="2" marker-end="url(#arrow-purple)"/>
  <rect x="891.0" y="433" width="54" height="21" rx="4" fill="#ffffff" opacity="0.96" stroke="#e5e7eb" stroke-width="0.8"/>
  <text x="918" y="448" text-anchor="middle" class="small">表已存在</text>
  <path d="M 755,625 L 755,670" fill="none" stroke="#16a34a" stroke-width="2" marker-end="url(#arrow-green)"/>
  <rect x="789.0" y="638" width="54" height="21" rx="4" fill="#ffffff" opacity="0.96" stroke="#e5e7eb" stroke-width="0.8"/>
  <text x="816" y="653" text-anchor="middle" class="small">生成规则</text>
  <path d="M 870,715 L 928,715 L 928,385 L 960,385" fill="none" stroke="#9333ea" stroke-width="2" marker-end="url(#arrow-purple)" stroke-dasharray="6,4"/>
  <rect x="899.0" y="620" width="60" height="21" rx="4" fill="#ffffff" opacity="0.96" stroke="#e5e7eb" stroke-width="0.8"/>
  <text x="929" y="635" text-anchor="middle" class="small">类型/索引</text>
  <path d="M 1080,233 L 1080,300" fill="none" stroke="#9333ea" stroke-width="2" marker-end="url(#arrow-purple)"/>
  <path d="M 1080,416 L 1080,495" fill="none" stroke="#9333ea" stroke-width="2" marker-end="url(#arrow-purple)"/>
  <rect x="1101.0" y="445" width="72" height="21" rx="4" fill="#ffffff" opacity="0.96" stroke="#e5e7eb" stroke-width="0.8"/>
  <text x="1137" y="460" text-anchor="middle" class="small">执行 DDL</text>
  <path d="M 1080,593 L 1080,690" fill="none" stroke="#9333ea" stroke-width="2" marker-end="url(#arrow-purple)"/>
  <rect x="1105.0" y="631" width="54" height="21" rx="4" fill="#ffffff" opacity="0.96" stroke="#e5e7eb" stroke-width="0.8"/>
  <text x="1132" y="646" text-anchor="middle" class="small">成功后</text>
  <path d="M 550,350 L 610,350 L 610,329 L 640,329" fill="none" stroke="#2563eb" stroke-width="2" marker-end="url(#arrow-blue)" stroke-dasharray="6,4"/>
  <rect x="553.0" y="318" width="108" height="21" rx="4" fill="#ffffff" opacity="0.96" stroke="#e5e7eb" stroke-width="0.8"/>
  <text x="607" y="333" text-anchor="middle" class="small">表/列/索引元数据</text>
  <path d="M 435,595 C 435,650 500,805 960,731" fill="none" stroke="#6b7280" stroke-width="2" marker-end="url(#arrow-gray)" stroke-dasharray="6,4"/>
  <rect x="600.0" y="771" width="84" height="21" rx="4" fill="#ffffff" opacity="0.96" stroke="#e5e7eb" stroke-width="0.8"/>
  <text x="642" y="786" text-anchor="middle" class="small">版本一致：跳过</text>
  <g>
    <rect x="55" y="840" width="1170" height="54" rx="8" fill="#f9fafb" stroke="#e5e7eb" stroke-width="1.2"/>
    <text x="74" y="862" class="node-title">安全边界</text>
    <text x="168" y="862" class="node-sub">只做正向结构补齐：建表、补列、扩大类型、补索引；不自动删字段、不重命名字段、不做复杂数据迁移。</text>
    <text x="168" y="882" class="node-sub">FullSyncDataService 的 data/sync_temp 是 JSON 同步临时目录，不是建表脚本目录。</text>
  </g>
  <g transform="translate(55, 790)">
    <line x1="0" y1="8" x2="34" y2="8" stroke="#2563eb" stroke-width="2" marker-end="url(#arrow-blue)"/>
    <text x="44" y="12" class="legend">版本/元数据读取</text>
    <line x1="180" y1="8" x2="214" y2="8" stroke="#16a34a" stroke-width="2" marker-end="url(#arrow-green)"/>
    <text x="224" y="12" class="legend">实体扫描与差异判断</text>
    <line x1="390" y1="8" x2="424" y2="8" stroke="#9333ea" stroke-width="2" marker-end="url(#arrow-purple)"/>
    <text x="434" y="12" class="legend">DDL 生成与执行</text>
    <line x1="560" y1="8" x2="594" y2="8" stroke="#ea580c" stroke-width="2" marker-end="url(#arrow-orange)"/>
    <text x="604" y="12" class="legend">触发入口</text>
    <line x1="700" y1="8" x2="734" y2="8" stroke="#6b7280" stroke-width="2" marker-end="url(#arrow-gray)" stroke-dasharray="6,4"/>
    <text x="744" y="12" class="legend">跳过/兜底路径</text>
  </g>
</svg>