<?xml version="1.0" standalone="no"?><!DOCTYPE svg PUBLIC "-//W3C//DTD SVG 1.1//EN" "http://www.w3.org/Graphics/SVG/1.1/DTD/svg11.dtd"><svg t="1732691883307" class="icon" viewBox="0 0 1024 1024" version="1.1" xmlns="http://www.w3.org/2000/svg" p-id="16029" xmlns:xlink="http://www.w3.org/1999/xlink" width="200" height="200"><path d="M0 0m341.333333 0l341.333334 0q341.333333 0 341.333333 341.333333l0 341.333334q0 341.333333-341.333333 341.333333l-341.333334 0q-341.333333 0-341.333333-341.333333l0-341.333334q0-341.333333 341.333333-341.333333Z" fill="#E8F2FF" p-id="16030"></path><path d="M599.829333 503.018667h-157.696a13.568 13.568 0 1 1 0-27.136h157.696a13.568 13.568 0 0 1 0 27.136z" fill="#1777FF" p-id="16031"></path><path d="M599.829333 508.416h-157.696a18.986667 18.986667 0 0 1 0-37.930667h157.696a18.986667 18.986667 0 0 1 0 37.930667z m-157.696-27.136a8.170667 8.170667 0 0 0 0 16.32h157.696a8.170667 8.170667 0 0 0 0-16.32h-157.696zM599.829333 567.296h-157.696a13.568 13.568 0 1 1 0-27.136h157.696a13.568 13.568 0 0 1 0 27.136z" fill="#1777FF" p-id="16032"></path><path d="M599.829333 572.693333h-157.696a18.986667 18.986667 0 0 1 0-37.952h157.696a18.986667 18.986667 0 0 1 0 37.973334z m-157.696-27.136a8.170667 8.170667 0 0 0 0 16.341334h157.696a8.170667 8.170667 0 0 0 0-16.341334h-157.696z" fill="#1777FF" p-id="16033"></path><path d="M520.981333 646.144a13.568 13.568 0 0 1-13.568-13.568v-136.682667a13.568 13.568 0 1 1 27.136 0v136.682667a13.568 13.568 0 0 1-13.568 13.568z" fill="#1777FF" p-id="16034"></path><path d="M520.981333 651.541333a18.986667 18.986667 0 0 1-18.986666-18.986666v-136.661334a18.986667 18.986667 0 0 1 37.973333 0v136.682667c0 10.453333-8.533333 18.986667-18.986667 18.986667z m0-163.84a8.170667 8.170667 0 0 0-8.149333 8.192v136.682667a8.170667 8.170667 0 0 0 16.32 0v-136.682667a8.170667 8.170667 0 0 0-8.170667-8.170666zM521.216 464.213333a13.525333 13.525333 0 0 1-9.6-3.968l-71.637333-71.637333a13.568 13.568 0 0 1 19.2-19.2l71.616 71.637333a13.568 13.568 0 0 1-9.6 23.168z" fill="#1777FF" p-id="16035"></path><path d="M521.216 469.632a18.837333 18.837333 0 0 1-13.418667-5.546667l-71.637333-71.658666a18.837333 18.837333 0 0 1-5.546667-13.418667c0-5.056 1.962667-9.813333 5.546667-13.418667a19.413333 19.413333 0 0 1 26.816 0l71.658667 71.658667a18.986667 18.986667 0 0 1-13.44 32.384z m-71.637333-98.773333a8.106667 8.106667 0 0 0-8.170667 8.149333c0 2.176 0.853333 4.224 2.389333 5.76l71.637334 71.68a8.362667 8.362667 0 0 0 11.562666-0.021333 8.170667 8.170667 0 0 0 0-11.541334l-71.658666-71.637333a8.106667 8.106667 0 0 0-5.76-2.389333z" fill="#1777FF" p-id="16036"></path><path d="M521.706667 464.213333a13.546667 13.546667 0 0 1-9.6-23.168l71.637333-71.637333a13.568 13.568 0 0 1 19.2 19.2l-71.658667 71.637333a13.546667 13.546667 0 0 1-9.6 3.968z" fill="#1777FF" p-id="16037"></path><path d="M521.706667 469.632a19.029333 19.029333 0 0 1-13.44-32.384l71.68-71.658667a19.413333 19.413333 0 0 1 26.816 0c3.584 3.584 5.546667 8.362667 5.546666 13.44a18.837333 18.837333 0 0 1-5.546666 13.397334l-71.658667 71.637333a18.858667 18.858667 0 0 1-13.397333 5.546667z m71.637333-98.773333a8.106667 8.106667 0 0 0-5.76 2.389333l-71.68 71.637333a8.192 8.192 0 0 0 0.021333 11.541334 8.362667 8.362667 0 0 0 11.541334 0l71.637333-71.637334a8.106667 8.106667 0 0 0 0-11.541333 8.106667 8.106667 0 0 0-5.76-2.389333z" fill="#1777FF" p-id="16038"></path><path d="M520.981333 785.066667a281.173333 281.173333 0 0 1-199.424-82.602667 280.938667 280.938667 0 0 1-82.602666-199.445333 280.96 280.96 0 0 1 82.602666-199.424 281.066667 281.066667 0 0 1 199.424-82.624 281.173333 281.173333 0 0 1 199.424 82.602666 281.066667 281.066667 0 0 1 82.624 199.445334 281.024 281.024 0 0 1-82.602666 199.424 281.173333 281.173333 0 0 1-199.445334 82.602666z m0-537.365334c-140.778667 0-255.317333 114.538667-255.317333 255.317334 0 140.8 114.538667 255.317333 255.317333 255.317333 140.8 0 255.317333-114.538667 255.317334-255.317333 0-140.8-114.538667-255.317333-255.317334-255.317334z" fill="#1777FF" p-id="16039"></path><path d="M520.981333 790.464a286.4 286.4 0 0 1-203.242666-84.202667 286.293333 286.293333 0 0 1-84.202667-203.242666c0-38.784 7.616-76.437333 22.613333-111.893334a286.272 286.272 0 0 1 61.589334-91.349333 286.506667 286.506667 0 0 1 203.242666-84.202667 286.442667 286.442667 0 0 1 203.242667 84.202667 286.421333 286.421333 0 0 1 84.202667 203.242667 286.421333 286.421333 0 0 1-84.181334 203.242666 286.592 286.592 0 0 1-203.264 84.202667z m0-564.053333a275.776 275.776 0 0 0-195.626666 81.024 275.562667 275.562667 0 0 0-81.002667 195.584c0 37.333333 7.317333 73.557333 21.76 107.669333a275.584 275.584 0 0 0 59.264 87.936 275.776 275.776 0 0 0 195.626667 81.024 275.968 275.968 0 0 0 195.626666-81.024 275.690667 275.690667 0 0 0 80.981334-195.626667 275.712 275.712 0 0 0-81.024-195.605333 275.648 275.648 0 0 0-195.605334-81.002667z m0 537.344c-143.765333 0-260.714667-116.970667-260.714666-260.736s116.949333-260.714667 260.714666-260.714667 260.736 116.949333 260.736 260.693333c0 143.786667-116.970667 260.757333-260.736 260.757334z m0-510.634667c-137.813333 0-249.898667 112.106667-249.898666 249.898667 0 137.813333 112.106667 249.92 249.898666 249.92 137.813333 0 249.92-112.106667 249.92-249.92S658.773333 253.12 520.96 253.12z" fill="#1777FF" p-id="16040"></path></svg>