<?xml version="1.0" standalone="no"?><!DOCTYPE svg PUBLIC "-//W3C//DTD SVG 1.1//EN" "http://www.w3.org/Graphics/SVG/1.1/DTD/svg11.dtd"><svg t="1732692033869" class="icon" viewBox="0 0 1024 1024" version="1.1" xmlns="http://www.w3.org/2000/svg" p-id="16614" xmlns:xlink="http://www.w3.org/1999/xlink" width="200" height="200"><path d="M0 0m341.333333 0l341.333334 0q341.333333 0 341.333333 341.333333l0 341.333334q0 341.333333-341.333333 341.333333l-341.333334 0q-341.333333 0-341.333333-341.333333l0-341.333334q0-341.333333 341.333333-341.333333Z" fill="#1777FF" fill-opacity=".1" p-id="16615"></path><path d="M674.88 640.981333h-113.130667a20.266667 20.266667 0 0 1 0-40.576h113.130667a20.266667 20.266667 0 1 1 0 40.576z" fill="#1777FF" p-id="16616"></path><path d="M677.717333 256H346.453333a129.834667 129.834667 0 0 0-129.834666 129.706667v249.173333a129.834667 129.834667 0 0 0 129.834666 129.706667h331.264a129.834667 129.834667 0 0 0 129.664-129.706667V385.706667A129.834667 129.834667 0 0 0 677.717333 256zM346.453333 296.554667h331.264a89.237333 89.237333 0 0 1 89.109334 89.152v33.493333h-509.653334v-33.493333A89.237333 89.237333 0 0 1 346.453333 296.533333zM677.717333 724.053333H346.453333a89.237333 89.237333 0 0 1-89.130666-89.130666v-175.146667h509.333333v175.146667a89.237333 89.237333 0 0 1-88.938667 89.130666z" fill="#1777FF" p-id="16617"></path></svg>