<?xml version="1.0" standalone="no"?><!DOCTYPE svg PUBLIC "-//W3C//DTD SVG 1.1//EN" "http://www.w3.org/Graphics/SVG/1.1/DTD/svg11.dtd"><svg t="1732692011681" class="icon" viewBox="0 0 1024 1024" version="1.1" xmlns="http://www.w3.org/2000/svg" p-id="16468" xmlns:xlink="http://www.w3.org/1999/xlink" width="200" height="200"><path d="M0 0m341.333333 0l341.333334 0q341.333333 0 341.333333 341.333333l0 341.333334q0 341.333333-341.333333 341.333333l-341.333334 0q-341.333333 0-341.333333-341.333333l0-341.333334q0-341.333333 341.333333-341.333333Z" fill="#00A600" fill-opacity=".1" p-id="16469"></path><path d="M596.053333 556.629333h-63.914666v-42.154666h64.341333a20.949333 20.949333 0 0 0 0-41.877334h-64.170667v-0.789333l78.229334-81.365333a21.098667 21.098667 0 0 0-30.421334-29.184l-66.986666 70.186666-70.890667-70.464a21.184 21.184 0 0 0-29.909333 29.653334l77.909333 78.208v3.84h-62.293333a20.949333 20.949333 0 0 0 0 41.877333h62.293333v42.112h-62.293333a20.949333 20.949333 0 0 0 0 41.898667h62.293333v62.293333a20.949333 20.949333 0 0 0 41.898667 0v-62.378667h64.042666a20.949333 20.949333 0 0 0 0-41.856h-0.149333z" fill="#00A600" p-id="16470"></path><path d="M513.258667 431.36l66.986666-70.165333a21.098667 21.098667 0 1 1 30.421334 29.184l-78.357334 81.429333v0.874667h64.042667a20.949333 20.949333 0 0 1 0 41.877333h-64.213333v42.112h64.042666a20.949333 20.949333 0 0 1 0 41.898667h-64.042666v62.293333a20.949333 20.949333 0 0 1-41.898667 0v-62.378667h-62.293333a20.949333 20.949333 0 0 1 0-41.856h62.293333v-42.154666h-62.293333a20.949333 20.949333 0 0 1 0-41.877334h62.293333v-3.754666l-77.909333-78.186667a21.184 21.184 0 0 1 30.08-29.781333l70.826666 70.485333z" fill="#00A600" p-id="16471"></path><path d="M806.677333 511.424a22.165333 22.165333 0 1 1-44.309333 0c0.021333-138.368-112.106667-250.56-250.453333-250.624-138.368-0.042667-250.581333 112.064-250.666667 250.432-0.064 138.346667 112.021333 250.581333 250.389333 250.666667 3.882667 0.042667 7.68 1.066667 11.072 2.986666a22.101333 22.101333 0 0 1-11.093333 41.344c-160 0-290.944-128.234667-294.997333-287.189333v-15.210667c4.437333-159.786667 135.168-287.061333 295.018666-287.210666 162.474667 0 295.104 132.352 295.104 294.805333h-0.064z" fill="#00A600" p-id="16472"></path><path d="M795.562667 530.602667a22.101333 22.101333 0 1 0-21.973334-38.357334 22.101333 22.101333 0 0 0 21.973334 38.357334z m-283.946667 275.626666a22.101333 22.101333 0 0 0 11.093333-41.365333 22.165333 22.165333 0 1 0-11.093333 41.365333z m204.586667-114.538666a56.789333 56.789333 0 1 0-0.170667-113.557334 56.789333 56.789333 0 0 0 0.192 113.557334z m0-90.816a34.069333 34.069333 0 1 1-0.277334 68.138666 34.069333 34.069333 0 0 1 0.298667-68.138666z m91.178666 159.914666c0-31.872-40.832-57.749333-91.157333-57.749333-50.346667 0-91.2 25.877333-91.2 57.749333 0 31.872 40.810667 44.309333 91.2 44.309334 50.346667 0 91.157333-12.394667 91.157333-44.309334z m-159.530666 0c0-16.64 29.034667-35.029333 68.394666-35.029333s68.352 18.410667 68.352 35.029333c0 11.648-23.381333 21.76-68.352 21.76s-68.416-10.112-68.416-21.76h0.021334z" fill="#00A600" p-id="16473"></path></svg>