<?xml version="1.0" standalone="no"?><!DOCTYPE svg PUBLIC "-//W3C//DTD SVG 1.1//EN" "http://www.w3.org/Graphics/SVG/1.1/DTD/svg11.dtd"><svg t="1732691834834" class="icon" viewBox="0 0 1024 1024" version="1.1" xmlns="http://www.w3.org/2000/svg" p-id="15886" xmlns:xlink="http://www.w3.org/1999/xlink" width="200" height="200"><path d="M0 0m341.333333 0l341.333334 0q341.333333 0 341.333333 341.333333l0 341.333334q0 341.333333-341.333333 341.333333l-341.333334 0q-341.333333 0-341.333333-341.333333l0-341.333334q0-341.333333 341.333333-341.333333Z" fill="#FFF3D7" p-id="15887"></path><path d="M363.968 396.202667l117.930667-148.181334a38.464 38.464 0 0 1 60.202666 0l117.909334 148.181334 112.853333-48.106667a38.549333 38.549333 0 0 1 39.424 5.546667c11.093333 9.002667 16.213333 23.381333 13.290667 37.333333L759.68 706.816a82.730667 82.730667 0 0 1-81.109333 65.664H345.429333a82.730667 82.730667 0 0 1-81.109333-65.664L198.4 390.954667a38.08 38.08 0 0 1 13.312-37.333334 38.549333 38.549333 0 0 1 39.424-5.525333l112.853333 48.106667zM512 285.781333l-115.2 144.768a38.528 38.528 0 0 1-45.226667 11.413334l-103.573333-44.16 62.506667 299.498666a35.626667 35.626667 0 0 0 34.901333 28.288h333.162667a35.626667 35.626667 0 0 0 34.944-28.288l62.485333-299.52-103.573333 44.16c-15.936 6.805333-34.453333 2.133333-45.226667-11.392L512 285.781333z" fill="#FFA900" p-id="15888"></path></svg>