<?xml version="1.0" standalone="no"?><!DOCTYPE svg PUBLIC "-//W3C//DTD SVG 1.1//EN" "http://www.w3.org/Graphics/SVG/1.1/DTD/svg11.dtd"><svg t="1732691921126" class="icon" viewBox="0 0 1024 1024" version="1.1" xmlns="http://www.w3.org/2000/svg" p-id="16324" xmlns:xlink="http://www.w3.org/1999/xlink" width="200" height="200"><path d="M0 0m341.333333 0l341.333334 0q341.333333 0 341.333333 341.333333l0 341.333334q0 341.333333-341.333333 341.333333l-341.333334 0q-341.333333 0-341.333333-341.333333l0-341.333334q0-341.333333 341.333333-341.333333Z" fill="#00A600" fill-opacity=".1" p-id="16325"></path><path d="M351.786667 698.709333h-37.888V345.130667a69.44 69.44 0 0 1 69.44-69.44h252.565333a69.44 69.44 0 0 1 69.461333 69.44v353.578666H667.52V345.130667a31.573333 31.573333 0 0 0-31.594667-31.594667H383.338667a31.573333 31.573333 0 0 0-31.552 31.573333v353.6z m154.432 23.381334l275.968-79.466667a18.965333 18.965333 0 1 1 10.517333 36.394667L506.026667 761.6l-276.693334-82.624a18.965333 18.965333 0 0 1 10.858667-36.309333l266.026667 79.466666v-0.042666z" fill="#00A600" p-id="16326"></path><path d="M558.997333 402.176c4.672 0 9.130667 1.792 12.330667 4.949333 3.370667 3.008 5.290667 7.189333 5.290667 11.584a15.424 15.424 0 0 1-5.290667 11.52l-29.098667 28.16h25.578667c10.56 0 17.578667 6.613333 17.578667 16.512 0 9.856-7.04 16.490667-17.578667 16.490667H529.066667v16.554667h38.741333c10.56 0 17.578667 6.613333 17.578667 16.533333 0 9.898667-7.04 16.490667-17.578667 16.490667H529.066667l0.042666 31.253333c0 9.877333-7.04 16.490667-17.578666 16.490667-10.602667 0-17.621333-6.613333-17.621334-16.490667v-31.253333H451.413333c-10.56 0-17.621333-6.592-17.621333-16.490667 0-9.92 7.061333-16.490667 17.621333-16.490667h42.389334v-16.64h-42.346667c-10.56 0-17.621333-6.592-17.621333-16.448 0-9.92 7.061333-16.533333 17.621333-16.533333h23.04l-28.288-26.453333a15.466667 15.466667 0 0 1-5.269333-11.584c0-4.352 1.92-8.533333 5.269333-11.52a17.664 17.664 0 0 1 12.352-4.970667c4.672 0 9.130667 1.792 12.352 4.949333l37.013333 34.645334 38.741334-36.309334a17.664 17.664 0 0 1 12.352-4.949333h-0.042667z" fill="#00A600" p-id="16327"></path></svg>