<?xml version="1.0" standalone="no"?><!DOCTYPE svg PUBLIC "-//W3C//DTD SVG 1.1//EN" "http://www.w3.org/Graphics/SVG/1.1/DTD/svg11.dtd"><svg t="1732691890885" class="icon" viewBox="0 0 1024 1024" version="1.1" xmlns="http://www.w3.org/2000/svg" p-id="16181" xmlns:xlink="http://www.w3.org/1999/xlink" width="200" height="200"><path d="M0 0m341.333333 0l341.333334 0q341.333333 0 341.333333 341.333333l0 341.333334q0 341.333333-341.333333 341.333333l-341.333334 0q-341.333333 0-341.333333-341.333333l0-341.333334q0-341.333333 341.333333-341.333333Z" fill="#FFF3D7" p-id="16182"></path><path d="M737.941333 460.864c38.016 48.362667 55.274667 103.658667 55.274667 162.389333 0 51.818667-24.170667 96.725333-69.098667 127.829334-24.170667 17.28-51.818667 31.082667-86.357333 41.450666-34.56 10.368-79.466667 13.824-124.373333 13.824s-86.378667-3.456-124.373334-13.824c-34.56-10.368-62.186667-24.192-86.378666-41.450666-44.906667-34.56-69.098667-79.466667-69.098667-127.829334 0-41.472 10.368-82.922667 31.104-124.373333 3.456-10.368 17.28-13.824 24.170667-6.912 10.368 3.456 13.824 17.28 6.912 24.170667l-3.456 3.456c-17.28 31.104-24.170667 65.642667-24.170667 100.202666 0 37.994667 17.28 72.533333 51.818667 100.181334 41.450667 31.104 107.093333 48.362667 190.016 48.362666 79.466667 0 145.088-17.28 190.016-48.362666 34.56-24.192 51.818667-62.186667 51.818666-100.181334 0-114.005333-82.922667-193.493333-162.368-224.576a18.986667 18.986667 0 0 1-10.368-17.28 18.986667 18.986667 0 0 1 10.368-17.28c20.714667-13.802667 34.538667-27.626667 34.538667-44.885333 0-17.28-10.368-31.104-31.082667-44.928-20.736-13.802667-51.84-20.714667-82.922666-20.714667-31.104 0-58.730667 6.912-82.922667 20.714667-20.714667 13.824-31.082667 27.648-31.082667 44.928 0 17.28 13.824 34.56 34.56 44.906667a18.986667 18.986667 0 0 1 10.346667 17.28 18.986667 18.986667 0 0 1-10.368 17.28c-17.28 6.890667-34.56 17.28-51.818667 27.626666-93.269333 58.730667-86.378667 138.197333-120.917333 114.005334-24.192 0 27.648-107.093333 100.181333-145.109334l27.648-17.28c-17.28-17.258667-27.648-37.973333-27.648-58.709333 0-13.824 3.456-27.648 13.824-41.472 6.912-13.802667 20.736-24.170667 34.56-31.082667 27.626667-17.28 65.621333-27.648 103.637334-27.648 37.994667 0 76.010667 10.368 103.637333 27.648 13.824 10.368 24.192 20.736 34.56 31.082667 10.346667 13.824 13.802667 27.648 13.802667 41.472 0 20.714667-10.346667 41.450667-27.626667 58.730667 41.450667 24.170667 76.010667 51.818667 103.637333 86.357333z m-335.104 145.109333c0-10.368 6.912-17.28 17.28-17.28h75.989334v-37.994666h-76.010667c-10.346667 0-17.28-6.912-17.28-17.28 0-10.368 6.933333-17.28 17.28-17.28h48.384l-44.928-44.906667c-6.912-6.912-6.912-20.736 0-27.626667 6.912-6.912 20.736-6.912 27.648 0l62.186667 62.186667 62.186666-62.186667c6.912-6.912 20.714667-6.912 27.626667 0 6.912 6.890667 6.912 20.714667 0 27.626667l-41.450667 41.450667h48.362667c10.368 0 17.28 6.912 17.28 17.28 0 10.368-6.912 17.28-17.28 17.28h-76.010667v37.994666H610.133333c10.368 0 17.28 6.912 17.28 17.28 0 10.368-6.912 17.28-17.28 17.28h-76.010666v62.186667c0 10.346667-6.890667 17.28-17.28 17.28-10.346667 0-17.258667-6.933333-17.258667-17.28v-55.274667h-76.010667c-10.368 0-20.714667-10.368-20.714666-20.736z" fill="#FFA900" p-id="16183"></path></svg>