<?xml version="1.0" standalone="no"?><!DOCTYPE svg PUBLIC "-//W3C//DTD SVG 1.1//EN" "http://www.w3.org/Graphics/SVG/1.1/DTD/svg11.dtd"><svg t="1732691804070" class="icon" viewBox="0 0 1024 1024" version="1.1" xmlns="http://www.w3.org/2000/svg" p-id="15743" xmlns:xlink="http://www.w3.org/1999/xlink" width="200" height="200"><path d="M0 0m341.333333 0l341.333334 0q341.333333 0 341.333333 341.333333l0 341.333334q0 341.333333-341.333333 341.333333l-341.333334 0q-341.333333 0-341.333333-341.333333l0-341.333334q0-341.333333 341.333333-341.333333Z" fill="#E6F7E6" p-id="15744"></path><path d="M311.466667 622.933333c-21.12 0-38.4 17.28-38.4 38.4v24.96c0 7.68 5.76 13.44 13.44 13.44h357.12c7.68 0 13.44-5.76 13.44-13.44V661.333333c0-21.12-17.28-38.4-38.4-38.4H311.466667z m0-38.4H618.666667c42.24 0 76.8 34.56 76.8 76.8v24.96a51.626667 51.626667 0 0 1-51.84 51.84H286.506667A51.626667 51.626667 0 0 1 234.666667 686.293333V661.333333c0-42.24 34.56-76.8 76.8-76.8z m105.6-268.8c-15.36 0-28.8 13.44-28.8 28.8v86.4c0 42.24 34.56 76.8 76.8 76.8s76.8-34.56 76.8-76.8v-86.4c0-15.36-13.44-28.8-28.8-28.8h-96z m0-38.4h94.08c38.4 0 67.2 30.72 67.2 67.2v86.4c0 63.36-51.84 115.2-115.2 115.2s-115.2-51.84-115.2-115.2v-86.4c1.92-36.48 32.64-67.2 69.12-67.2zM733.866667 622.933333c-11.52 0-19.2-7.68-19.2-19.2s7.68-19.2 19.2-19.2c42.24 0 76.8 34.56 76.8 76.8v24.96a51.626667 51.626667 0 0 1-51.84 51.84H733.866667c-11.52 0-19.2-7.68-19.2-19.2s7.68-19.2 19.2-19.2h24.96c7.68 0 13.44-5.76 13.44-13.44V661.333333c0-21.12-17.28-38.4-38.4-38.4zM618.666667 315.733333c-11.52 0-19.2-7.68-19.2-19.2s7.68-19.2 19.2-19.2h28.8c38.4 0 67.2 30.72 67.2 67.2v86.4c0 63.36-51.84 115.2-115.2 115.2-11.52 0-19.2-7.68-19.2-19.2s7.68-19.2 19.2-19.2c42.24 0 76.8-34.56 76.8-76.8v-86.4c0-15.36-13.44-28.8-28.8-28.8H618.666667z" fill="#00A600" p-id="15745"></path></svg>