<svg xmlns="http://www.w3.org/2000/svg" viewBox="0 0 960 540" width="960" height="540">
<defs><marker id="arrow" markerWidth="10" markerHeight="7" refX="9" refY="3.5" orient="auto"><polygon points="0 0, 10 3.5, 0 7" fill="#64748b"/></marker></defs>
<style>
  .bg{fill:#f6f8fb}
  .panel{fill:#ffffff;stroke:#d7dde8;stroke-width:2}
  .soft{fill:#f1f5f9;stroke:#d7dde8;stroke-width:1.5}
  .brand{fill:#2563eb;stroke:#1d4ed8;stroke-width:1.5}
  .brandSoft{fill:#dbeafe;stroke:#93c5fd;stroke-width:1.5}
  .green{fill:#dcfce7;stroke:#86efac;stroke-width:1.5}
  .orange{fill:#fff7ed;stroke:#fdba74;stroke-width:1.5}
  .red{fill:#fee2e2;stroke:#fca5a5;stroke-width:1.5}
  .purple{fill:#ede9fe;stroke:#c4b5fd;stroke-width:1.5}
  .line{stroke:#64748b;stroke-width:2;fill:none;marker-end:url(#arrow)}
  .dash{stroke:#94a3b8;stroke-width:2;fill:none;stroke-dasharray:6 4;marker-end:url(#arrow)}
  .title{font:700 24px Arial, sans-serif;fill:#0f172a}
  .h{font:700 16px Arial, sans-serif;fill:#0f172a}
  .t{font:14px Arial, sans-serif;fill:#334155}
  .s{font:12px Arial, sans-serif;fill:#64748b}
  .w{font:700 14px Arial, sans-serif;fill:#ffffff}
</style>
<rect class="bg" x="0" y="0" width="960" height="540"/>
<text class="title" x="40" y="46">Role-based Page Design</text>
<rect class="brandSoft" x="70" y="100" width="160" height="100" rx="12"/>
<text class="h" x="92" y="135">Transaction</text>
<text class="s" x="90" y="168">Input | Process | Batch</text>
<path class="line" d="M150,200 L150,270"/>
<rect class="panel" x="70" y="270" width="160" height="135" rx="12"/>
<rect class="orange" x="290" y="100" width="160" height="100" rx="12"/>
<text class="h" x="312" y="135">Approval</text>
<text class="s" x="310" y="168">Risk | Evidence | Decision</text>
<path class="line" d="M370,200 L370,270"/>
<rect class="panel" x="290" y="270" width="160" height="135" rx="12"/>
<rect class="purple" x="510" y="100" width="160" height="100" rx="12"/>
<text class="h" x="532" y="135">Analysis</text>
<text class="s" x="530" y="168">Metric | Drilldown | Cause</text>
<path class="line" d="M590,200 L590,270"/>
<rect class="panel" x="510" y="270" width="160" height="135" rx="12"/>
<rect class="green" x="730" y="100" width="160" height="100" rx="12"/>
<text class="h" x="752" y="135">Decision</text>
<text class="s" x="750" y="168">Trend | Alert | Strategy</text>
<path class="line" d="M810,200 L810,270"/>
<rect class="panel" x="730" y="270" width="160" height="135" rx="12"/>
<text class="h" x="95" y="305">List</text>
<text class="h" x="95" y="340">Form</text>
<text class="h" x="95" y="375">Import</text>
<text class="h" x="315" y="305">Detail</text>
<text class="h" x="315" y="340">Approval</text>
<text class="h" x="315" y="375">Timeline</text>
<text class="h" x="535" y="305">Report</text>
<text class="h" x="535" y="340">Chart</text>
<text class="h" x="535" y="375">Drilldown</text>
<text class="h" x="755" y="305">Workbench</text>
<text class="h" x="755" y="340">Dashboard</text>
<text class="h" x="755" y="375">Alert</text>
</svg>