<svg xmlns="http://www.w3.org/2000/svg" width="1800" height="1280" viewBox="0 0 1800 1280">
<defs>
<marker id="arrow" markerWidth="12" markerHeight="12" refX="10" refY="6" orient="auto" markerUnits="strokeWidth"><path d="M2,2 L10,6 L2,10 z" fill="#2563eb"/></marker>
<marker id="arrowGreen" markerWidth="12" markerHeight="12" refX="10" refY="6" orient="auto" markerUnits="strokeWidth"><path d="M2,2 L10,6 L2,10 z" fill="#16a34a"/></marker>
<marker id="arrowOrange" markerWidth="12" markerHeight="12" refX="10" refY="6" orient="auto" markerUnits="strokeWidth"><path d="M2,2 L10,6 L2,10 z" fill="#ea8a00"/></marker>
<marker id="arrowPurple" markerWidth="12" markerHeight="12" refX="10" refY="6" orient="auto" markerUnits="strokeWidth"><path d="M2,2 L10,6 L2,10 z" fill="#7c3aed"/></marker>
<marker id="arrowRed" markerWidth="12" markerHeight="12" refX="10" refY="6" orient="auto" markerUnits="strokeWidth"><path d="M2,2 L10,6 L2,10 z" fill="#dc2626"/></marker>
<linearGradient id="bg" x1="0" y1="0" x2="1" y2="1"><stop offset="0" stop-color="#f8fbff"/><stop offset="1" stop-color="#eef6ff"/></linearGradient>
</defs>
<rect width="1800" height="1280" fill="url(#bg)"/>
<text x="70" y="62" text-anchor="start" font-family="Microsoft YaHei, PingFang SC, Arial, sans-serif" font-size="32" font-weight="900" fill="#172033" opacity="1">会员储值方案知识图谱：crm_deposit_plan 居中</text>
<text x="72" y="96" text-anchor="start" font-family="Microsoft YaHei, PingFang SC, Arial, sans-serif" font-size="17" font-weight="400" fill="#64748b" opacity="1">读图：储值方案是核心；服务类只是执行节点，交易、入账、赠券和撤销都围绕方案展开。</text>
<rect x="45" y="145" width="580" height="455" rx="18" fill="#eefbf4" stroke="#16a34a" stroke-width="2" stroke-dasharray="8 8"/>
<text x="75" y="187" text-anchor="start" font-family="Microsoft YaHei, PingFang SC, Arial, sans-serif" font-size="25" font-weight="800" fill="#172033" opacity="1">配置与可用性</text>
<rect x="660" y="145" width="560" height="345" rx="18" fill="#eff6ff" stroke="#2563eb" stroke-width="2" stroke-dasharray="8 8"/>
<text x="690" y="187" text-anchor="start" font-family="Microsoft YaHei, PingFang SC, Arial, sans-serif" font-size="25" font-weight="800" fill="#172033" opacity="1">提交与交易记录</text>
<rect x="1250" y="145" width="505" height="455" rx="18" fill="#f5f3ff" stroke="#7c3aed" stroke-width="2" stroke-dasharray="8 8"/>
<text x="1280" y="187" text-anchor="start" font-family="Microsoft YaHei, PingFang SC, Arial, sans-serif" font-size="25" font-weight="800" fill="#172033" opacity="1">赠券与权益</text>
<rect x="70" y="715" width="640" height="425" rx="18" fill="#fff7ed" stroke="#ea8a00" stroke-width="2" stroke-dasharray="8 8"/>
<text x="100" y="757" text-anchor="start" font-family="Microsoft YaHei, PingFang SC, Arial, sans-serif" font-size="25" font-weight="800" fill="#172033" opacity="1">余额与积分入账</text>
<rect x="1095" y="715" width="640" height="425" rx="18" fill="#fff1f2" stroke="#dc2626" stroke-width="2" stroke-dasharray="8 8"/>
<text x="1125" y="757" text-anchor="start" font-family="Microsoft YaHei, PingFang SC, Arial, sans-serif" font-size="25" font-weight="800" fill="#172033" opacity="1">反向撤销与补偿</text>
<rect x="705" y="528" width="430" height="152" rx="18" fill="#0f172a" opacity="0.20"/>
<rect x="700" y="520" width="430" height="152" rx="18" fill="#143b73" stroke="#2563eb" stroke-width="3.2"/>
<text x="915.0" y="562" text-anchor="middle" font-family="Microsoft YaHei, PingFang SC, Arial, sans-serif" font-size="28" font-weight="900" fill="#ffffff" opacity="1">crm_deposit_plan</text>
<text x="915.0" y="596" text-anchor="middle" font-family="Microsoft YaHei, PingFang SC, Arial, sans-serif" font-size="20" font-weight="800" fill="#dbeafe" opacity="1">储值方案主对象</text>
<text x="915.0" y="628" text-anchor="middle" font-family="Microsoft YaHei, PingFang SC, Arial, sans-serif" font-size="16" font-weight="400" fill="#bfdbfe" opacity="1">决定档位、赠金、赠积分、赠券规则</text>
<text x="915.0" y="654" text-anchor="middle" font-family="Microsoft YaHei, PingFang SC, Arial, sans-serif" font-size="15" font-weight="400" fill="#bfdbfe" opacity="1">其他对象是配置依赖、执行记录或后续权益</text>
<rect x="109" y="211" width="275" height="92" rx="14" fill="#0f172a" opacity="0.08"/>
<rect x="105" y="205" width="275" height="92" rx="14" fill="#ffffff" stroke="#86efac" stroke-width="2.6"/>
<text x="242.5" y="239.0" text-anchor="middle" font-family="Microsoft YaHei, PingFang SC, Arial, sans-serif" font-size="20" font-weight="800" fill="#172033" opacity="1">后台/小程序/POS</text>
<text x="242.5" y="259" text-anchor="middle" font-family="Microsoft YaHei, PingFang SC, Arial, sans-serif" font-size="14" font-weight="400" fill="#64748b" opacity="1">commit / commitByPos</text>
<text x="242.5" y="281" text-anchor="middle" font-family="Microsoft YaHei, PingFang SC, Arial, sans-serif" font-size="13" font-weight="400" fill="#64748b" opacity="1">revokeChargeSign</text>
<ellipse cx="205.0" cy="363" rx="110.0" ry="18" fill="#f0fdf4" stroke="#86efac" stroke-width="2"/>
<path d="M95,363 v56 c0,10 220,10 220,0 v-56" fill="#f0fdf4" stroke="#86efac" stroke-width="2"/>
<ellipse cx="205.0" cy="419" rx="110.0" ry="18" fill="#f0fdf4" stroke="#86efac" stroke-width="2"/>
<text x="205.0" y="375.0" text-anchor="middle" font-family="Microsoft YaHei, PingFang SC, Arial, sans-serif" font-size="16" font-weight="800" fill="#172033" opacity="1">crm_deposit</text>
<text x="205.0" y="393.0" text-anchor="middle" font-family="Microsoft YaHei, PingFang SC, Arial, sans-serif" font-size="16" font-weight="800" fill="#172033" opacity="1">category</text>
<text x="205.0" y="419" text-anchor="middle" font-family="Microsoft YaHei, PingFang SC, Arial, sans-serif" font-size="13" font-weight="400" fill="#64748b" opacity="1">方案分类</text>
<ellipse cx="472.5" cy="363" rx="112.5" ry="18" fill="#f0fdf4" stroke="#86efac" stroke-width="2"/>
<path d="M360,363 v56 c0,10 225,10 225,0 v-56" fill="#f0fdf4" stroke="#86efac" stroke-width="2"/>
<ellipse cx="472.5" cy="419" rx="112.5" ry="18" fill="#f0fdf4" stroke="#86efac" stroke-width="2"/>
<text x="472.5" y="375.0" text-anchor="middle" font-family="Microsoft YaHei, PingFang SC, Arial, sans-serif" font-size="16" font-weight="800" fill="#172033" opacity="1">crm_deposit</text>
<text x="472.5" y="393.0" text-anchor="middle" font-family="Microsoft YaHei, PingFang SC, Arial, sans-serif" font-size="16" font-weight="800" fill="#172033" opacity="1">agreement</text>
<text x="472.5" y="419" text-anchor="middle" font-family="Microsoft YaHei, PingFang SC, Arial, sans-serif" font-size="13" font-weight="400" fill="#64748b" opacity="1">储值协议</text>
<ellipse cx="205.0" cy="498" rx="110.0" ry="18" fill="#f0fdf4" stroke="#86efac" stroke-width="2"/>
<path d="M95,498 v52 c0,10 220,10 220,0 v-52" fill="#f0fdf4" stroke="#86efac" stroke-width="2"/>
<ellipse cx="205.0" cy="550" rx="110.0" ry="18" fill="#f0fdf4" stroke="#86efac" stroke-width="2"/>
<text x="205.0" y="519.0" text-anchor="middle" font-family="Microsoft YaHei, PingFang SC, Arial, sans-serif" font-size="16" font-weight="800" fill="#172033" opacity="1">crm_card_type</text>
<text x="205.0" y="550" text-anchor="middle" font-family="Microsoft YaHei, PingFang SC, Arial, sans-serif" font-size="13" font-weight="400" fill="#64748b" opacity="1">会员方案</text>
<ellipse cx="472.5" cy="498" rx="112.5" ry="18" fill="#f0fdf4" stroke="#86efac" stroke-width="2"/>
<path d="M360,498 v52 c0,10 225,10 225,0 v-52" fill="#f0fdf4" stroke="#86efac" stroke-width="2"/>
<ellipse cx="472.5" cy="550" rx="112.5" ry="18" fill="#f0fdf4" stroke="#86efac" stroke-width="2"/>
<text x="472.5" y="519.0" text-anchor="middle" font-family="Microsoft YaHei, PingFang SC, Arial, sans-serif" font-size="16" font-weight="800" fill="#172033" opacity="1">crm_card_level</text>
<text x="472.5" y="550" text-anchor="middle" font-family="Microsoft YaHei, PingFang SC, Arial, sans-serif" font-size="13" font-weight="400" fill="#64748b" opacity="1">会员等级</text>
<text x="80" y="638" text-anchor="start" font-family="Microsoft YaHei, PingFang SC, Arial, sans-serif" font-size="15" font-weight="800" fill="#16a34a" opacity="1">绿色虚线：方案对分类、协议、会员方案/等级的引用或限制，不是执行顺序。</text>
<rect x="739" y="211" width="410" height="86" rx="14" fill="#0f172a" opacity="0.08"/>
<rect x="735" y="205" width="410" height="86" rx="14" fill="#ffffff" stroke="#93c5fd" stroke-width="2.6"/>
<text x="940.0" y="239.0" text-anchor="middle" font-family="Microsoft YaHei, PingFang SC, Arial, sans-serif" font-size="20" font-weight="800" fill="#172033" opacity="1">DepositPlanChargeService</text>
<text x="940.0" y="253" text-anchor="middle" font-family="Microsoft YaHei, PingFang SC, Arial, sans-serif" font-size="14" font-weight="400" fill="#64748b" opacity="1">读取方案并生成交易</text>
<text x="940.0" y="275" text-anchor="middle" font-family="Microsoft YaHei, PingFang SC, Arial, sans-serif" font-size="13" font-weight="400" fill="#64748b" opacity="1">commitByPos / onPaymentSuccess</text>
<ellipse cx="767.5" cy="353" rx="77.5" ry="18" fill="#eff6ff" stroke="#93c5fd" stroke-width="2"/>
<path d="M690,353 v50 c0,10 155,10 155,0 v-50" fill="#eff6ff" stroke="#93c5fd" stroke-width="2"/>
<ellipse cx="767.5" cy="403" rx="77.5" ry="18" fill="#eff6ff" stroke="#93c5fd" stroke-width="2"/>
<text x="767.5" y="374.0" text-anchor="middle" font-family="Microsoft YaHei, PingFang SC, Arial, sans-serif" font-size="16" font-weight="800" fill="#172033" opacity="1">crm_deal_task</text>
<text x="767.5" y="403" text-anchor="middle" font-family="Microsoft YaHei, PingFang SC, Arial, sans-serif" font-size="13" font-weight="400" fill="#64748b" opacity="1">交易主单</text>
<ellipse cx="957.0" cy="353" rx="85.0" ry="18" fill="#eff6ff" stroke="#93c5fd" stroke-width="2"/>
<path d="M872,353 v50 c0,10 170,10 170,0 v-50" fill="#eff6ff" stroke="#93c5fd" stroke-width="2"/>
<ellipse cx="957.0" cy="403" rx="85.0" ry="18" fill="#eff6ff" stroke="#93c5fd" stroke-width="2"/>
<text x="957.0" y="365.0" text-anchor="middle" font-family="Microsoft YaHei, PingFang SC, Arial, sans-serif" font-size="16" font-weight="800" fill="#172033" opacity="1">crm_deal</text>
<text x="957.0" y="383.0" text-anchor="middle" font-family="Microsoft YaHei, PingFang SC, Arial, sans-serif" font-size="16" font-weight="800" fill="#172033" opacity="1">task_item</text>
<text x="957.0" y="403" text-anchor="middle" font-family="Microsoft YaHei, PingFang SC, Arial, sans-serif" font-size="13" font-weight="400" fill="#64748b" opacity="1">交易明细</text>
<ellipse cx="1132.5" cy="353" rx="67.5" ry="18" fill="#eff6ff" stroke="#93c5fd" stroke-width="2"/>
<path d="M1065,353 v50 c0,10 135,10 135,0 v-50" fill="#eff6ff" stroke="#93c5fd" stroke-width="2"/>
<ellipse cx="1132.5" cy="403" rx="67.5" ry="18" fill="#eff6ff" stroke="#93c5fd" stroke-width="2"/>
<text x="1132.5" y="365.0" text-anchor="middle" font-family="Microsoft YaHei, PingFang SC, Arial, sans-serif" font-size="16" font-weight="800" fill="#172033" opacity="1">deposit</text>
<text x="1132.5" y="383.0" text-anchor="middle" font-family="Microsoft YaHei, PingFang SC, Arial, sans-serif" font-size="16" font-weight="800" fill="#172033" opacity="1">charge_record</text>
<text x="1132.5" y="403" text-anchor="middle" font-family="Microsoft YaHei, PingFang SC, Arial, sans-serif" font-size="13" font-weight="400" fill="#64748b" opacity="1">储值记录</text>
<text x="1095" y="447" text-anchor="middle" font-family="Microsoft YaHei, PingFang SC, Arial, sans-serif" font-size="12" font-weight="700" fill="#64748b" opacity="1">crm_deposit_charge_record</text>
<rect x="1299" y="211" width="405" height="86" rx="14" fill="#0f172a" opacity="0.08"/>
<rect x="1295" y="205" width="405" height="86" rx="14" fill="#ffffff" stroke="#c4b5fd" stroke-width="2.6"/>
<text x="1497.5" y="239.0" text-anchor="middle" font-family="Microsoft YaHei, PingFang SC, Arial, sans-serif" font-size="20" font-weight="800" fill="#172033" opacity="1">handlePostSuccessBenefits</text>
<text x="1497.5" y="253" text-anchor="middle" font-family="Microsoft YaHei, PingFang SC, Arial, sans-serif" font-size="14" font-weight="400" fill="#64748b" opacity="1">CompletableFuture.runAsync</text>
<text x="1497.5" y="275" text-anchor="middle" font-family="Microsoft YaHei, PingFang SC, Arial, sans-serif" font-size="13" font-weight="400" fill="#64748b" opacity="1">主入账后异步执行</text>
<rect x="1314" y="341" width="375" height="78" rx="14" fill="#0f172a" opacity="0.08"/>
<rect x="1310" y="335" width="375" height="78" rx="14" fill="#ffffff" stroke="#c4b5fd" stroke-width="2.6"/>
<text x="1497.5" y="369.0" text-anchor="middle" font-family="Microsoft YaHei, PingFang SC, Arial, sans-serif" font-size="20" font-weight="800" fill="#172033" opacity="1">DepositPlanCouponService</text>
<text x="1497.5" y="375" text-anchor="middle" font-family="Microsoft YaHei, PingFang SC, Arial, sans-serif" font-size="14" font-weight="400" fill="#64748b" opacity="1">赠券计算与发放</text>
<ellipse cx="1353.0" cy="483" rx="65.0" ry="18" fill="#f5f3ff" stroke="#c4b5fd" stroke-width="2"/>
<path d="M1288,483 v50 c0,10 130,10 130,0 v-50" fill="#f5f3ff" stroke="#c4b5fd" stroke-width="2"/>
<ellipse cx="1353.0" cy="533" rx="65.0" ry="18" fill="#f5f3ff" stroke="#c4b5fd" stroke-width="2"/>
<text x="1353.0" y="504.0" text-anchor="middle" font-family="Microsoft YaHei, PingFang SC, Arial, sans-serif" font-size="16" font-weight="800" fill="#172033" opacity="1">crm_coupon</text>
<text x="1353.0" y="533" text-anchor="middle" font-family="Microsoft YaHei, PingFang SC, Arial, sans-serif" font-size="13" font-weight="400" fill="#64748b" opacity="1">券定义</text>
<ellipse cx="1509.5" cy="483" rx="67.5" ry="18" fill="#f5f3ff" stroke="#c4b5fd" stroke-width="2"/>
<path d="M1442,483 v50 c0,10 135,10 135,0 v-50" fill="#f5f3ff" stroke="#c4b5fd" stroke-width="2"/>
<ellipse cx="1509.5" cy="533" rx="67.5" ry="18" fill="#f5f3ff" stroke="#c4b5fd" stroke-width="2"/>
<text x="1509.5" y="495.0" text-anchor="middle" font-family="Microsoft YaHei, PingFang SC, Arial, sans-serif" font-size="16" font-weight="800" fill="#172033" opacity="1">crm_coupon</text>
<text x="1509.5" y="513.0" text-anchor="middle" font-family="Microsoft YaHei, PingFang SC, Arial, sans-serif" font-size="16" font-weight="800" fill="#172033" opacity="1">map</text>
<text x="1509.5" y="533" text-anchor="middle" font-family="Microsoft YaHei, PingFang SC, Arial, sans-serif" font-size="13" font-weight="400" fill="#64748b" opacity="1">套餐映射</text>
<ellipse cx="1667.5" cy="483" rx="67.5" ry="18" fill="#f5f3ff" stroke="#c4b5fd" stroke-width="2"/>
<path d="M1600,483 v50 c0,10 135,10 135,0 v-50" fill="#f5f3ff" stroke="#c4b5fd" stroke-width="2"/>
<ellipse cx="1667.5" cy="533" rx="67.5" ry="18" fill="#f5f3ff" stroke="#c4b5fd" stroke-width="2"/>
<text x="1667.5" y="495.0" text-anchor="middle" font-family="Microsoft YaHei, PingFang SC, Arial, sans-serif" font-size="16" font-weight="800" fill="#172033" opacity="1">crm_coupon</text>
<text x="1667.5" y="513.0" text-anchor="middle" font-family="Microsoft YaHei, PingFang SC, Arial, sans-serif" font-size="16" font-weight="800" fill="#172033" opacity="1">order</text>
<text x="1667.5" y="533" text-anchor="middle" font-family="Microsoft YaHei, PingFang SC, Arial, sans-serif" font-size="13" font-weight="400" fill="#64748b" opacity="1">券订单</text>
<ellipse cx="1520.5" cy="578" rx="122.5" ry="18" fill="#f5f3ff" stroke="#c4b5fd" stroke-width="2"/>
<path d="M1398,578 v50 c0,10 245,10 245,0 v-50" fill="#f5f3ff" stroke="#c4b5fd" stroke-width="2"/>
<ellipse cx="1520.5" cy="628" rx="122.5" ry="18" fill="#f5f3ff" stroke="#c4b5fd" stroke-width="2"/>
<text x="1520.5" y="590.0" text-anchor="middle" font-family="Microsoft YaHei, PingFang SC, Arial, sans-serif" font-size="16" font-weight="800" fill="#172033" opacity="1">crm_deposit</text>
<text x="1520.5" y="608.0" text-anchor="middle" font-family="Microsoft YaHei, PingFang SC, Arial, sans-serif" font-size="16" font-weight="800" fill="#172033" opacity="1">coupon_schedule</text>
<text x="1520.5" y="628" text-anchor="middle" font-family="Microsoft YaHei, PingFang SC, Arial, sans-serif" font-size="13" font-weight="400" fill="#64748b" opacity="1">周期赠券计划</text>
<rect x="149" y="806" width="420" height="86" rx="14" fill="#0f172a" opacity="0.08"/>
<rect x="145" y="800" width="420" height="86" rx="14" fill="#ffffff" stroke="#fdba74" stroke-width="2.6"/>
<text x="355.0" y="834.0" text-anchor="middle" font-family="Microsoft YaHei, PingFang SC, Arial, sans-serif" font-size="20" font-weight="800" fill="#172033" opacity="1">CardBalanceService.execute</text>
<text x="355.0" y="848" text-anchor="middle" font-family="Microsoft YaHei, PingFang SC, Arial, sans-serif" font-size="14" font-weight="400" fill="#64748b" opacity="1">会员锁 + @Transactional</text>
<text x="355.0" y="870" text-anchor="middle" font-family="Microsoft YaHei, PingFang SC, Arial, sans-serif" font-size="13" font-weight="400" fill="#64748b" opacity="1">Charge / ChargeCancel</text>
<ellipse cx="180.0" cy="943" rx="65.0" ry="18" fill="#fff7ed" stroke="#fdba74" stroke-width="2"/>
<path d="M115,943 v52 c0,10 130,10 130,0 v-52" fill="#fff7ed" stroke="#fdba74" stroke-width="2"/>
<ellipse cx="180.0" cy="995" rx="65.0" ry="18" fill="#fff7ed" stroke="#fdba74" stroke-width="2"/>
<text x="180.0" y="964.0" text-anchor="middle" font-family="Microsoft YaHei, PingFang SC, Arial, sans-serif" font-size="16" font-weight="800" fill="#172033" opacity="1">crm_card</text>
<text x="180.0" y="995" text-anchor="middle" font-family="Microsoft YaHei, PingFang SC, Arial, sans-serif" font-size="13" font-weight="400" fill="#64748b" opacity="1">会员卡</text>
<ellipse cx="360.0" cy="943" rx="80.0" ry="18" fill="#fff7ed" stroke="#fdba74" stroke-width="2"/>
<path d="M280,943 v52 c0,10 160,10 160,0 v-52" fill="#fff7ed" stroke="#fdba74" stroke-width="2"/>
<ellipse cx="360.0" cy="995" rx="80.0" ry="18" fill="#fff7ed" stroke="#fdba74" stroke-width="2"/>
<text x="360.0" y="955.0" text-anchor="middle" font-family="Microsoft YaHei, PingFang SC, Arial, sans-serif" font-size="16" font-weight="800" fill="#172033" opacity="1">crm_card</text>
<text x="360.0" y="973.0" text-anchor="middle" font-family="Microsoft YaHei, PingFang SC, Arial, sans-serif" font-size="16" font-weight="800" fill="#172033" opacity="1">balance</text>
<text x="360.0" y="995" text-anchor="middle" font-family="Microsoft YaHei, PingFang SC, Arial, sans-serif" font-size="13" font-weight="400" fill="#64748b" opacity="1">余额</text>
<ellipse cx="552.5" cy="943" rx="77.5" ry="18" fill="#fff7ed" stroke="#fdba74" stroke-width="2"/>
<path d="M475,943 v52 c0,10 155,10 155,0 v-52" fill="#fff7ed" stroke="#fdba74" stroke-width="2"/>
<ellipse cx="552.5" cy="995" rx="77.5" ry="18" fill="#fff7ed" stroke="#fdba74" stroke-width="2"/>
<text x="552.5" y="955.0" text-anchor="middle" font-family="Microsoft YaHei, PingFang SC, Arial, sans-serif" font-size="16" font-weight="800" fill="#172033" opacity="1">crm_card</text>
<text x="552.5" y="973.0" text-anchor="middle" font-family="Microsoft YaHei, PingFang SC, Arial, sans-serif" font-size="16" font-weight="800" fill="#172033" opacity="1">record</text>
<text x="552.5" y="995" text-anchor="middle" font-family="Microsoft YaHei, PingFang SC, Arial, sans-serif" font-size="13" font-weight="400" fill="#64748b" opacity="1">流水</text>
<ellipse cx="397.5" cy="1042" rx="112.5" ry="18" fill="#fff7ed" stroke="#fdba74" stroke-width="2"/>
<path d="M285,1042 v52 c0,10 225,10 225,0 v-52" fill="#fff7ed" stroke="#fdba74" stroke-width="2"/>
<ellipse cx="397.5" cy="1094" rx="112.5" ry="18" fill="#fff7ed" stroke="#fdba74" stroke-width="2"/>
<text x="397.5" y="1054.0" text-anchor="middle" font-family="Microsoft YaHei, PingFang SC, Arial, sans-serif" font-size="16" font-weight="800" fill="#172033" opacity="1">crm_card</text>
<text x="397.5" y="1072.0" text-anchor="middle" font-family="Microsoft YaHei, PingFang SC, Arial, sans-serif" font-size="16" font-weight="800" fill="#172033" opacity="1">points_record</text>
<text x="397.5" y="1094" text-anchor="middle" font-family="Microsoft YaHei, PingFang SC, Arial, sans-serif" font-size="13" font-weight="400" fill="#64748b" opacity="1">积分流水</text>
<rect x="1159" y="806" width="395" height="86" rx="14" fill="#0f172a" opacity="0.08"/>
<rect x="1213" y="800" width="395" height="86" rx="14" fill="#ffffff" stroke="#fca5a5" stroke-width="2.6"/>
<text x="1352.5" y="834.0" text-anchor="middle" font-family="Microsoft YaHei, PingFang SC, Arial, sans-serif" font-size="18" font-weight="800" fill="#172033" opacity="1">revokeChargeSign / revokeCharge</text>
<text x="1352.5" y="848" text-anchor="middle" font-family="Microsoft YaHei, PingFang SC, Arial, sans-serif" font-size="14" font-weight="400" fill="#64748b" opacity="1">反向入口</text>
<text x="1352.5" y="870" text-anchor="middle" font-family="Microsoft YaHei, PingFang SC, Arial, sans-serif" font-size="13" font-weight="400" fill="#64748b" opacity="1">查交易后执行撤销</text>
<rect x="1589" y="806" width="110" height="86" rx="14" fill="#0f172a" opacity="0.08"/>
<rect x="1585" y="800" width="110" height="86" rx="14" fill="#ffffff" stroke="#fca5a5" stroke-width="2.6"/>
<text x="1640.0" y="834.0" text-anchor="middle" font-family="Microsoft YaHei, PingFang SC, Arial, sans-serif" font-size="17" font-weight="800" fill="#172033" opacity="1">cancelOrder</text>
<text x="1640.0" y="848" text-anchor="middle" font-family="Microsoft YaHei, PingFang SC, Arial, sans-serif" font-size="14" font-weight="400" fill="#64748b" opacity="1">退单据</text>
<ellipse cx="1205.0" cy="943" rx="75.0" ry="18" fill="#fff1f2" stroke="#fca5a5" stroke-width="2"/>
<path d="M1130,943 v52 c0,10 150,10 150,0 v-52" fill="#fff1f2" stroke="#fca5a5" stroke-width="2"/>
<ellipse cx="1205.0" cy="995" rx="75.0" ry="18" fill="#fff1f2" stroke="#fca5a5" stroke-width="2"/>
<text x="1205.0" y="964.0" text-anchor="middle" font-family="Microsoft YaHei, PingFang SC, Arial, sans-serif" font-size="16" font-weight="800" fill="#172033" opacity="1">crm_deal_task</text>
<text x="1205.0" y="995" text-anchor="middle" font-family="Microsoft YaHei, PingFang SC, Arial, sans-serif" font-size="13" font-weight="400" fill="#64748b" opacity="1">REVOKED</text>
<ellipse cx="1392.5" cy="943" rx="82.5" ry="18" fill="#fff1f2" stroke="#fca5a5" stroke-width="2"/>
<path d="M1310,943 v52 c0,10 165,10 165,0 v-52" fill="#fff1f2" stroke="#fca5a5" stroke-width="2"/>
<ellipse cx="1392.5" cy="995" rx="82.5" ry="18" fill="#fff1f2" stroke="#fca5a5" stroke-width="2"/>
<text x="1392.5" y="955.0" text-anchor="middle" font-family="Microsoft YaHei, PingFang SC, Arial, sans-serif" font-size="16" font-weight="800" fill="#172033" opacity="1">crm_card</text>
<text x="1392.5" y="973.0" text-anchor="middle" font-family="Microsoft YaHei, PingFang SC, Arial, sans-serif" font-size="16" font-weight="800" fill="#172033" opacity="1">balance</text>
<text x="1392.5" y="995" text-anchor="middle" font-family="Microsoft YaHei, PingFang SC, Arial, sans-serif" font-size="13" font-weight="400" fill="#64748b" opacity="1">扣回余额</text>
<ellipse cx="1597.5" cy="943" rx="82.5" ry="18" fill="#fff1f2" stroke="#fca5a5" stroke-width="2"/>
<path d="M1515,943 v52 c0,10 165,10 165,0 v-52" fill="#fff1f2" stroke="#fca5a5" stroke-width="2"/>
<ellipse cx="1597.5" cy="995" rx="82.5" ry="18" fill="#fff1f2" stroke="#fca5a5" stroke-width="2"/>
<text x="1597.5" y="955.0" text-anchor="middle" font-family="Microsoft YaHei, PingFang SC, Arial, sans-serif" font-size="16" font-weight="800" fill="#172033" opacity="1">crm_coupon</text>
<text x="1597.5" y="973.0" text-anchor="middle" font-family="Microsoft YaHei, PingFang SC, Arial, sans-serif" font-size="16" font-weight="800" fill="#172033" opacity="1">order</text>
<text x="1597.5" y="995" text-anchor="middle" font-family="Microsoft YaHei, PingFang SC, Arial, sans-serif" font-size="13" font-weight="400" fill="#64748b" opacity="1">未核销作废</text>
<ellipse cx="1410.5" cy="1042" rx="122.5" ry="18" fill="#fff1f2" stroke="#fca5a5" stroke-width="2"/>
<path d="M1288,1042 v52 c0,10 245,10 245,0 v-52" fill="#fff1f2" stroke="#fca5a5" stroke-width="2"/>
<ellipse cx="1410.5" cy="1094" rx="122.5" ry="18" fill="#fff1f2" stroke="#fca5a5" stroke-width="2"/>
<text x="1410.5" y="1054.0" text-anchor="middle" font-family="Microsoft YaHei, PingFang SC, Arial, sans-serif" font-size="16" font-weight="800" fill="#172033" opacity="1">crm_card</text>
<text x="1410.5" y="1072.0" text-anchor="middle" font-family="Microsoft YaHei, PingFang SC, Arial, sans-serif" font-size="16" font-weight="800" fill="#172033" opacity="1">points_record</text>
<text x="1410.5" y="1094" text-anchor="middle" font-family="Microsoft YaHei, PingFang SC, Arial, sans-serif" font-size="13" font-weight="400" fill="#64748b" opacity="1">扣回赠送积分</text>
<rect x="1589" y="1036" width="110" height="62" rx="14" fill="#0f172a" opacity="0.08"/>
<rect x="1585" y="1030" width="110" height="62" rx="14" fill="#ffffff" stroke="#fca5a5" stroke-width="2.6"/>
<text x="1640.0" y="1064.0" text-anchor="middle" font-family="Microsoft YaHei, PingFang SC, Arial, sans-serif" font-size="18" font-weight="800" fill="#172033" opacity="1">风险</text>
<text x="1640.0" y="1054" text-anchor="middle" font-family="Microsoft YaHei, PingFang SC, Arial, sans-serif" font-size="14" font-weight="400" fill="#64748b" opacity="1">已用券</text>
<text x="1640.0" y="1076" text-anchor="middle" font-family="Microsoft YaHei, PingFang SC, Arial, sans-serif" font-size="13" font-weight="400" fill="#64748b" opacity="1">不能回收</text>
<path d="M380 251 C520 295 625 420 710 535" fill="none" stroke="#2563eb" stroke-width="3" stroke-linecap="round" stroke-linejoin="round" marker-end="url(#arrow)"/>
<rect x="542.0" y="342" width="76" height="28" rx="8" fill="#eff6ff" stroke="#2563eb" stroke-width="1.2" opacity="0.97"/>
<text x="580" y="360" text-anchor="middle" font-family="Microsoft YaHei, PingFang SC, Arial, sans-serif" font-size="13" font-weight="800" fill="#2563eb" opacity="1">提交请求</text>
<path d="M700 555 C580 505 470 430 315 390" fill="none" stroke="#16a34a" stroke-width="2.6" stroke-linecap="round" stroke-linejoin="round" stroke-dasharray="9 8" marker-end="url(#arrowGreen)"/>
<rect x="467.0" y="438" width="76" height="28" rx="8" fill="#f0fdf4" stroke="#16a34a" stroke-width="1.2" opacity="0.97"/>
<text x="505" y="456" text-anchor="middle" font-family="Microsoft YaHei, PingFang SC, Arial, sans-serif" font-size="13" font-weight="800" fill="#16a34a" opacity="1">分类引用</text>
<path d="M700 570 C585 555 515 450 472 438" fill="none" stroke="#16a34a" stroke-width="2.6" stroke-linecap="round" stroke-linejoin="round" stroke-dasharray="9 8" marker-end="url(#arrowGreen)"/>
<rect x="517.0" y="507" width="76" height="28" rx="8" fill="#f0fdf4" stroke="#16a34a" stroke-width="1.2" opacity="0.97"/>
<text x="555" y="525" text-anchor="middle" font-family="Microsoft YaHei, PingFang SC, Arial, sans-serif" font-size="13" font-weight="800" fill="#16a34a" opacity="1">协议引用</text>
<path d="M700 602 C565 610 405 535 315 524" fill="none" stroke="#16a34a" stroke-width="2.6" stroke-linecap="round" stroke-linejoin="round" stroke-dasharray="9 8" marker-end="url(#arrowGreen)"/>
<rect x="480.0" y="572" width="76" height="28" rx="8" fill="#f0fdf4" stroke="#16a34a" stroke-width="1.2" opacity="0.97"/>
<text x="518" y="590" text-anchor="middle" font-family="Microsoft YaHei, PingFang SC, Arial, sans-serif" font-size="13" font-weight="800" fill="#16a34a" opacity="1">会员限制</text>
<path d="M700 620 C600 640 520 545 585 524" fill="none" stroke="#16a34a" stroke-width="2.6" stroke-linecap="round" stroke-linejoin="round" stroke-dasharray="9 8" marker-end="url(#arrowGreen)"/>
<rect x="554.0" y="624" width="76" height="28" rx="8" fill="#f0fdf4" stroke="#16a34a" stroke-width="1.2" opacity="0.97"/>
<text x="592" y="642" text-anchor="middle" font-family="Microsoft YaHei, PingFang SC, Arial, sans-serif" font-size="13" font-weight="800" fill="#16a34a" opacity="1">等级限制</text>
<path d="M315 524 C335 524 342 524 360 524" fill="none" stroke="#16a34a" stroke-width="2.2" stroke-linecap="round" stroke-linejoin="round" stroke-dasharray="9 8" marker-end="url(#arrowGreen)"/>
<rect x="299.0" y="485" width="76" height="28" rx="8" fill="#f0fdf4" stroke="#16a34a" stroke-width="1.2" opacity="0.97"/>
<text x="337" y="503" text-anchor="middle" font-family="Microsoft YaHei, PingFang SC, Arial, sans-serif" font-size="13" font-weight="800" fill="#16a34a" opacity="1">等级归属</text>
<path d="M915 520 C915 430 920 345 930 291" fill="none" stroke="#2563eb" stroke-width="3" stroke-linecap="round" stroke-linejoin="round" marker-end="url(#arrow)"/>
<rect x="917.0" y="465" width="76" height="28" rx="8" fill="#eff6ff" stroke="#2563eb" stroke-width="1.2" opacity="0.97"/>
<text x="955" y="483" text-anchor="middle" font-family="Microsoft YaHei, PingFang SC, Arial, sans-serif" font-size="13" font-weight="800" fill="#2563eb" opacity="1">读方案</text>
<path d="M930 291 C845 306 790 322 768 335" fill="none" stroke="#2563eb" stroke-width="2.8" stroke-linecap="round" stroke-linejoin="round" marker-end="url(#arrow)"/>
<path d="M935 291 C940 314 952 324 957 335" fill="none" stroke="#2563eb" stroke-width="2.8" stroke-linecap="round" stroke-linejoin="round" marker-end="url(#arrow)"/>
<path d="M955 291 C1040 305 1110 322 1132 335" fill="none" stroke="#2563eb" stroke-width="2.8" stroke-linecap="round" stroke-linejoin="round" marker-end="url(#arrow)"/>
<rect x="967.0" y="299" width="76" height="28" rx="8" fill="#eff6ff" stroke="#2563eb" stroke-width="1.2" opacity="0.97"/>
<text x="1005" y="317" text-anchor="middle" font-family="Microsoft YaHei, PingFang SC, Arial, sans-serif" font-size="13" font-weight="800" fill="#2563eb" opacity="1">创建交易</text>
<path d="M1130 557 C1245 515 1310 380 1425 291" fill="none" stroke="#7c3aed" stroke-width="3" stroke-linecap="round" stroke-linejoin="round" stroke-dasharray="9 8" marker-end="url(#arrowPurple)"/>
<rect x="1222.0" y="453" width="76" height="28" rx="8" fill="#f5f3ff" stroke="#7c3aed" stroke-width="1.2" opacity="0.97"/>
<text x="1260" y="471" text-anchor="middle" font-family="Microsoft YaHei, PingFang SC, Arial, sans-serif" font-size="13" font-weight="800" fill="#7c3aed" opacity="1">异步赠券</text>
<path d="M1498 291 C1498 310 1498 323 1498 335" fill="none" stroke="#7c3aed" stroke-width="3" stroke-linecap="round" stroke-linejoin="round" stroke-dasharray="9 8" marker-end="url(#arrowPurple)"/>
<path d="M1498 413 C1425 435 1360 455 1353 465" fill="none" stroke="#7c3aed" stroke-width="2.7" stroke-linecap="round" stroke-linejoin="round" stroke-dasharray="9 8" marker-end="url(#arrowPurple)"/>
<path d="M1498 413 C1503 440 1510 453 1510 465" fill="none" stroke="#7c3aed" stroke-width="2.7" stroke-linecap="round" stroke-linejoin="round" stroke-dasharray="9 8" marker-end="url(#arrowPurple)"/>
<path d="M1498 413 C1580 438 1658 453 1667 465" fill="none" stroke="#7c3aed" stroke-width="2.7" stroke-linecap="round" stroke-linejoin="round" stroke-dasharray="9 8" marker-end="url(#arrowPurple)"/>
<path d="M1498 413 C1498 474 1513 525 1520 560" fill="none" stroke="#7c3aed" stroke-width="2.7" stroke-linecap="round" stroke-linejoin="round" stroke-dasharray="9 8" marker-end="url(#arrowPurple)"/>
<path d="M790 672 C660 770 570 820 565 843" fill="none" stroke="#ea8a00" stroke-width="3" stroke-linecap="round" stroke-linejoin="round" marker-end="url(#arrowOrange)"/>
<rect x="613.0" y="742" width="98" height="28" rx="8" fill="#fff7ed" stroke="#ea8a00" stroke-width="1.2" opacity="0.97"/>
<text x="662" y="760" text-anchor="middle" font-family="Microsoft YaHei, PingFang SC, Arial, sans-serif" font-size="13" font-weight="800" fill="#ea8a00" opacity="1">支付成功后入账</text>
<path d="M345 886 C260 903 198 917 180 925" fill="none" stroke="#ea8a00" stroke-width="2.7" stroke-linecap="round" stroke-linejoin="round" marker-end="url(#arrowOrange)"/>
<path d="M350 886 C355 905 360 916 360 925" fill="none" stroke="#ea8a00" stroke-width="2.7" stroke-linecap="round" stroke-linejoin="round" marker-end="url(#arrowOrange)"/>
<path d="M386 886 C465 904 540 916 553 925" fill="none" stroke="#ea8a00" stroke-width="2.7" stroke-linecap="round" stroke-linejoin="round" marker-end="url(#arrowOrange)"/>
<path d="M360 886 C370 950 390 990 397 1024" fill="none" stroke="#ea8a00" stroke-width="2.7" stroke-linecap="round" stroke-linejoin="round" marker-end="url(#arrowOrange)"/>
<rect x="339.0" y="899" width="112" height="28" rx="8" fill="#fff7ed" stroke="#ea8a00" stroke-width="1.2" opacity="0.97"/>
<text x="395" y="917" text-anchor="middle" font-family="Microsoft YaHei, PingFang SC, Arial, sans-serif" font-size="13" font-weight="800" fill="#ea8a00" opacity="1">余额/积分/流水</text>
<path d="M1130 630 C1210 700 1280 760 1352 800" fill="none" stroke="#dc2626" stroke-width="3" stroke-linecap="round" stroke-linejoin="round" marker-end="url(#arrowRed)"/>
<rect x="1177.0" y="702" width="76" height="28" rx="8" fill="#fff1f2" stroke="#dc2626" stroke-width="1.2" opacity="0.97"/>
<text x="1215" y="720" text-anchor="middle" font-family="Microsoft YaHei, PingFang SC, Arial, sans-serif" font-size="13" font-weight="800" fill="#dc2626" opacity="1">反向撤销</text>
<path d="M1550 843 C1565 843 1574 843 1585 843" fill="none" stroke="#dc2626" stroke-width="2.7" stroke-linecap="round" stroke-linejoin="round" marker-end="url(#arrowRed)"/>
<path d="M1335 886 C1265 900 1215 915 1206 925" fill="none" stroke="#dc2626" stroke-width="2.7" stroke-linecap="round" stroke-linejoin="round" marker-end="url(#arrowRed)"/>
<path d="M1360 886 C1380 905 1392 916 1392 925" fill="none" stroke="#dc2626" stroke-width="2.7" stroke-linecap="round" stroke-linejoin="round" marker-end="url(#arrowRed)"/>
<path d="M1410 886 C1510 903 1588 914 1598 925" fill="none" stroke="#dc2626" stroke-width="2.7" stroke-linecap="round" stroke-linejoin="round" marker-end="url(#arrowRed)"/>
<path d="M1385 886 C1400 950 1412 990 1412 1024" fill="none" stroke="#dc2626" stroke-width="2.7" stroke-linecap="round" stroke-linejoin="round" marker-end="url(#arrowRed)"/>
<path d="M1600 1013 C1605 1020 1610 1025 1625 1030" fill="none" stroke="#dc2626" stroke-width="2.3" stroke-linecap="round" stroke-linejoin="round" stroke-dasharray="9 8" marker-end="url(#arrowRed)"/>
<rect x="1407.0" y="899" width="76" height="28" rx="8" fill="#fff1f2" stroke="#dc2626" stroke-width="1.2" opacity="0.97"/>
<text x="1445" y="917" text-anchor="middle" font-family="Microsoft YaHei, PingFang SC, Arial, sans-serif" font-size="13" font-weight="800" fill="#dc2626" opacity="1">补偿扣回</text>
<rect x="65" y="1180" width="1670" height="54" rx="16" fill="#ffffff" stroke="#dbeafe" stroke-width="2"/>
<circle cx="115" cy="1208" r="7" fill="#2563eb"/>
<text x="133" y="1213" text-anchor="start" font-family="Microsoft YaHei, PingFang SC, Arial, sans-serif" font-size="15" font-weight="800" fill="#172033" opacity="1">蓝色：提交/交易记录</text>
<circle cx="405" cy="1208" r="7" fill="#ea8a00"/>
<text x="423" y="1213" text-anchor="start" font-family="Microsoft YaHei, PingFang SC, Arial, sans-serif" font-size="15" font-weight="800" fill="#172033" opacity="1">橙色：余额与积分</text>
<circle cx="715" cy="1208" r="7" fill="#7c3aed"/>
<text x="733" y="1213" text-anchor="start" font-family="Microsoft YaHei, PingFang SC, Arial, sans-serif" font-size="15" font-weight="800" fill="#172033" opacity="1">紫色虚线：异步赠券</text>
<circle cx="1040" cy="1208" r="7" fill="#16a34a"/>
<text x="1058" y="1213" text-anchor="start" font-family="Microsoft YaHei, PingFang SC, Arial, sans-serif" font-size="15" font-weight="800" fill="#172033" opacity="1">绿色虚线：配置引用/限制</text>
<circle cx="1395" cy="1208" r="7" fill="#dc2626"/>
<text x="1413" y="1213" text-anchor="start" font-family="Microsoft YaHei, PingFang SC, Arial, sans-serif" font-size="15" font-weight="800" fill="#172033" opacity="1">红色：撤销补偿</text>
</svg>