<svg xmlns="http://www.w3.org/2000/svg" viewBox="0 0 2000 1620" width="2000" height="1620">
<style>text { font-family: "Helvetica Neue", Helvetica, Arial, "PingFang SC", "Microsoft YaHei", "Microsoft JhengHei", "SimHei", sans-serif; }</style>
<defs>
<marker id="arrow-blue" markerWidth="10" markerHeight="7" refX="9" refY="3.5" orient="auto"><polygon points="0 0, 10 3.5, 0 7" fill="#2563eb"/></marker>
<marker id="arrow-green" markerWidth="10" markerHeight="7" refX="9" refY="3.5" orient="auto"><polygon points="0 0, 10 3.5, 0 7" fill="#16a34a"/></marker>
<marker id="arrow-purple" markerWidth="10" markerHeight="7" refX="9" refY="3.5" orient="auto"><polygon points="0 0, 10 3.5, 0 7" fill="#9333ea"/></marker>
<marker id="arrow-orange" markerWidth="10" markerHeight="7" refX="9" refY="3.5" orient="auto"><polygon points="0 0, 10 3.5, 0 7" fill="#ea580c"/></marker>
<marker id="arrow-red" markerWidth="10" markerHeight="7" refX="9" refY="3.5" orient="auto"><polygon points="0 0, 10 3.5, 0 7" fill="#dc2626"/></marker>
<marker id="arrow-gray" markerWidth="10" markerHeight="7" refX="9" refY="3.5" orient="auto"><polygon points="0 0, 10 3.5, 0 7" fill="#6b7280"/></marker>
<filter id="shadow" x="-10%" y="-10%" width="120%" height="130%"><feDropShadow dx="0" dy="3" stdDeviation="3" flood-color="#94a3b8" flood-opacity="0.16"/></filter>
</defs>
<rect width="2000" height="1620" fill="#ffffff"/>
<text x="60" y="58" font-size="27" font-weight="800" fill="#111827" text-anchor="start">储值方案充值：更新表与关键字段关系图</text>
<text x="60" y="88" font-size="14" font-weight="400" fill="#6b7280" text-anchor="start">只突出储值发生时 INSERT / UPDATE 的表；字段说明写的是源码赋值来源和业务含义</text>
<rect x="50" y="120" width="435" height="310" rx="18" fill="#f8fafc" stroke="#cbd5e1" stroke-width="1.4" stroke-dasharray="8 6"/>
<text x="72" y="154" font-size="18" font-weight="700" fill="#111827" text-anchor="start">配置读取 + 成功后统计</text>
<rect x="520" y="120" width="1425" height="350" rx="18" fill="#f8fafc" stroke="#cbd5e1" stroke-width="1.4" stroke-dasharray="8 6"/>
<text x="542" y="154" font-size="18" font-weight="700" fill="#111827" text-anchor="start">阶段1：创建储值交易单</text>
<rect x="50" y="510" width="1895" height="390" rx="18" fill="#f0fdf4" stroke="#bbf7d0" stroke-width="1.4" stroke-dasharray="8 6"/>
<text x="72" y="544" font-size="18" font-weight="700" fill="#111827" text-anchor="start">阶段2：余额入账事务</text>
<rect x="50" y="940" width="1895" height="360" rx="18" fill="#faf5ff" stroke="#ddd6fe" stroke-width="1.4" stroke-dasharray="8 6"/>
<text x="72" y="974" font-size="18" font-weight="700" fill="#111827" text-anchor="start">阶段3：异步后置权益</text>
<g>
<rect x="85" y="180" width="365" height="200" rx="12" fill="#ffffff" stroke="#93c5fd" stroke-width="1.6" filter="url(#shadow)"/>
<rect x="85" y="180" width="365" height="46" rx="12" fill="#dbeafe" stroke="#93c5fd" stroke-width="1.2"/>
<path d="M 85,215 L 85,226 L 450,226 L 450,215" fill="#dbeafe"/>
<text x="101" y="209" font-size="16" font-weight="800" fill="#111827" text-anchor="start">crm_deposit_plan</text>
<rect x="353" y="192" width="83" height="22" rx="11" fill="#ffffff" stroke="#93c5fd" stroke-width="1"/>
<text x="394.5" y="208" font-size="12" font-weight="700" fill="#374151" text-anchor="middle">读取/更新</text>
<rect x="402" y="168" width="50" height="24" rx="12" fill="#dc2626" stroke="#991b1b" stroke-width="1"/>
<text x="427" y="185" font-size="12" font-weight="800" fill="#ffffff" text-anchor="middle">重要</text>
<circle cx="103" cy="244" r="3" fill="#2563eb"/>
<text x="115" y="248" font-size="12" font-weight="800" fill="#111827" text-anchor="start">lid</text>
<text x="230" y="248" font-size="12" font-weight="400" fill="#4b5563" text-anchor="start">方案ID，被 plan_lid / save_rule_code 引用</text>
<circle cx="103" cy="266" r="3" fill="#2563eb"/>
<text x="115" y="270" font-size="12" font-weight="800" fill="#111827" text-anchor="start">tier_rule</text>
<text x="230" y="270" font-size="12" font-weight="400" fill="#4b5563" text-anchor="start">档位JSON：本金、赠金、积分、券</text>
<circle cx="103" cy="288" r="3" fill="#2563eb"/>
<text x="115" y="292" font-size="12" font-weight="800" fill="#111827" text-anchor="start">total_sold_count</text>
<text x="230" y="292" font-size="12" font-weight="400" fill="#4b5563" text-anchor="start">支付成功后 +1</text>
<circle cx="103" cy="310" r="3" fill="#2563eb"/>
<text x="115" y="314" font-size="12" font-weight="800" fill="#111827" text-anchor="start">total_sold_amount</text>
<text x="230" y="314" font-size="12" font-weight="400" fill="#4b5563" text-anchor="start">支付成功后 +储值本金</text>
</g>
<g>
<rect x="555" y="180" width="410" height="255" rx="12" fill="#ffffff" stroke="#fca5a5" stroke-width="1.6" filter="url(#shadow)"/>
<rect x="555" y="180" width="410" height="46" rx="12" fill="#fee2e2" stroke="#fca5a5" stroke-width="1.2"/>
<path d="M 555,215 L 555,226 L 965,226 L 965,215" fill="#fee2e2"/>
<text x="571" y="209" font-size="16" font-weight="800" fill="#111827" text-anchor="start">crm_deal_task</text>
<rect x="881" y="192" width="70" height="22" rx="11" fill="#ffffff" stroke="#fca5a5" stroke-width="1"/>
<text x="916.0" y="208" font-size="12" font-weight="700" fill="#374151" text-anchor="middle">交易主单</text>
<rect x="917" y="168" width="50" height="24" rx="12" fill="#dc2626" stroke="#991b1b" stroke-width="1"/>
<text x="942" y="185" font-size="12" font-weight="800" fill="#ffffff" text-anchor="middle">重要</text>
<circle cx="573" cy="244" r="3" fill="#2563eb"/>
<text x="585" y="248" font-size="12" font-weight="800" fill="#111827" text-anchor="start">lid</text>
<text x="700" y="248" font-size="12" font-weight="400" fill="#4b5563" text-anchor="start">交易任务ID，后续关联主键</text>
<circle cx="573" cy="266" r="3" fill="#2563eb"/>
<text x="585" y="270" font-size="12" font-weight="800" fill="#111827" text-anchor="start">out_trade_no</text>
<text x="700" y="270" font-size="12" font-weight="400" fill="#4b5563" text-anchor="start">微信或POS订单号，幂等/流水单号</text>
<circle cx="573" cy="288" r="3" fill="#2563eb"/>
<text x="585" y="292" font-size="12" font-weight="800" fill="#111827" text-anchor="start">trade_state</text>
<text x="700" y="292" font-size="12" font-weight="400" fill="#4b5563" text-anchor="start">USERPAYING -&gt; SUCCESS</text>
<circle cx="573" cy="310" r="3" fill="#2563eb"/>
<text x="585" y="314" font-size="12" font-weight="800" fill="#111827" text-anchor="start">principal_amount</text>
<text x="700" y="314" font-size="12" font-weight="400" fill="#4b5563" text-anchor="start">本金 = tier.saveAmount</text>
<circle cx="573" cy="332" r="3" fill="#2563eb"/>
<text x="585" y="336" font-size="12" font-weight="800" fill="#111827" text-anchor="start">give_amount</text>
<text x="700" y="336" font-size="12" font-weight="400" fill="#4b5563" text-anchor="start">赠金 = tier.giftAmount</text>
<circle cx="573" cy="354" r="3" fill="#2563eb"/>
<text x="585" y="358" font-size="12" font-weight="800" fill="#111827" text-anchor="start">give_point</text>
<text x="700" y="358" font-size="12" font-weight="400" fill="#4b5563" text-anchor="start">赠积分 = tier.giftPoints</text>
<circle cx="573" cy="376" r="3" fill="#2563eb"/>
<text x="585" y="380" font-size="12" font-weight="800" fill="#111827" text-anchor="start">save_rule_code</text>
<text x="700" y="380" font-size="12" font-weight="400" fill="#4b5563" text-anchor="start">储值方案 lid</text>
</g>
<g>
<rect x="1005" y="180" width="395" height="215" rx="12" fill="#ffffff" stroke="#bfdbfe" stroke-width="1.6" filter="url(#shadow)"/>
<rect x="1005" y="180" width="395" height="46" rx="12" fill="#dbeafe" stroke="#bfdbfe" stroke-width="1.2"/>
<path d="M 1005,215 L 1005,226 L 1400,226 L 1400,215" fill="#dbeafe"/>
<text x="1021" y="209" font-size="16" font-weight="800" fill="#111827" text-anchor="start">crm_deal_task_item</text>
<rect x="1316" y="192" width="70" height="22" rx="11" fill="#ffffff" stroke="#bfdbfe" stroke-width="1"/>
<text x="1351.0" y="208" font-size="12" font-weight="700" fill="#374151" text-anchor="middle">交易明细</text>
<circle cx="1023" cy="244" r="3" fill="#2563eb"/>
<text x="1035" y="248" font-size="12" font-weight="800" fill="#111827" text-anchor="start">task_lid</text>
<text x="1150" y="248" font-size="12" font-weight="400" fill="#4b5563" text-anchor="start">关联 crm_deal_task.lid</text>
<circle cx="1023" cy="266" r="3" fill="#2563eb"/>
<text x="1035" y="270" font-size="12" font-weight="800" fill="#111827" text-anchor="start">amount</text>
<text x="1150" y="270" font-size="12" font-weight="400" fill="#4b5563" text-anchor="start">本金 + 赠金</text>
<circle cx="1023" cy="288" r="3" fill="#2563eb"/>
<text x="1035" y="292" font-size="12" font-weight="800" fill="#111827" text-anchor="start">save_rule_code</text>
<text x="1150" y="292" font-size="12" font-weight="400" fill="#4b5563" text-anchor="start">储值方案 lid</text>
<circle cx="1023" cy="310" r="3" fill="#2563eb"/>
<text x="1035" y="314" font-size="12" font-weight="800" fill="#111827" text-anchor="start">give_point</text>
<text x="1150" y="314" font-size="12" font-weight="400" fill="#4b5563" text-anchor="start">本档位赠积分</text>
<circle cx="1023" cy="332" r="3" fill="#2563eb"/>
<text x="1035" y="336" font-size="12" font-weight="800" fill="#111827" text-anchor="start">give_coupon*</text>
<text x="1150" y="336" font-size="12" font-weight="400" fill="#4b5563" text-anchor="start">不赋值，发券走新逻辑</text>
</g>
<g>
<rect x="1440" y="180" width="460" height="245" rx="12" fill="#ffffff" stroke="#fca5a5" stroke-width="1.6" filter="url(#shadow)"/>
<rect x="1440" y="180" width="460" height="46" rx="12" fill="#fee2e2" stroke="#fca5a5" stroke-width="1.2"/>
<path d="M 1440,215 L 1440,226 L 1900,226 L 1900,215" fill="#fee2e2"/>
<text x="1456" y="209" font-size="16" font-weight="800" fill="#111827" text-anchor="start">crm_deposit_charge_record</text>
<rect x="1816" y="192" width="70" height="22" rx="11" fill="#ffffff" stroke="#fca5a5" stroke-width="1"/>
<text x="1851.0" y="208" font-size="12" font-weight="700" fill="#374151" text-anchor="middle">购买记录</text>
<rect x="1852" y="168" width="50" height="24" rx="12" fill="#dc2626" stroke="#991b1b" stroke-width="1"/>
<text x="1877" y="185" font-size="12" font-weight="800" fill="#ffffff" text-anchor="middle">重要</text>
<circle cx="1458" cy="244" r="3" fill="#2563eb"/>
<text x="1470" y="248" font-size="12" font-weight="800" fill="#111827" text-anchor="start">lid</text>
<text x="1585" y="248" font-size="12" font-weight="400" fill="#4b5563" text-anchor="start">购买记录ID，周期发券会引用</text>
<circle cx="1458" cy="266" r="3" fill="#2563eb"/>
<text x="1470" y="270" font-size="12" font-weight="800" fill="#111827" text-anchor="start">task_lid</text>
<text x="1585" y="270" font-size="12" font-weight="400" fill="#4b5563" text-anchor="start">关联交易主单</text>
<circle cx="1458" cy="288" r="3" fill="#2563eb"/>
<text x="1470" y="292" font-size="12" font-weight="800" fill="#111827" text-anchor="start">plan_lid/tier_index</text>
<text x="1585" y="292" font-size="12" font-weight="400" fill="#4b5563" text-anchor="start">方案与档位索引</text>
<circle cx="1458" cy="310" r="3" fill="#2563eb"/>
<text x="1470" y="314" font-size="12" font-weight="800" fill="#111827" text-anchor="start">tier_snapshot</text>
<text x="1585" y="314" font-size="12" font-weight="400" fill="#4b5563" text-anchor="start">购买时档位快照</text>
<circle cx="1458" cy="332" r="3" fill="#2563eb"/>
<text x="1470" y="336" font-size="12" font-weight="800" fill="#111827" text-anchor="start">trade_state</text>
<text x="1585" y="336" font-size="12" font-weight="400" fill="#4b5563" text-anchor="start">USERPAYING -&gt; SUCCESS</text>
<circle cx="1458" cy="354" r="3" fill="#2563eb"/>
<text x="1470" y="358" font-size="12" font-weight="800" fill="#111827" text-anchor="start">save/gift/points</text>
<text x="1585" y="358" font-size="12" font-weight="400" fill="#4b5563" text-anchor="start">本金/赠金/积分快照</text>
</g>
<g>
<rect x="85" y="575" width="430" height="255" rx="12" fill="#ffffff" stroke="#86efac" stroke-width="1.6" filter="url(#shadow)"/>
<rect x="85" y="575" width="430" height="46" rx="12" fill="#dcfce7" stroke="#86efac" stroke-width="1.2"/>
<path d="M 85,610 L 85,621 L 515,621 L 515,610" fill="#dcfce7"/>
<text x="101" y="604" font-size="16" font-weight="800" fill="#111827" text-anchor="start">crm_card</text>
<rect x="418" y="587" width="83" height="22" rx="11" fill="#ffffff" stroke="#86efac" stroke-width="1"/>
<text x="459.5" y="603" font-size="12" font-weight="700" fill="#374151" text-anchor="middle">会员当前值</text>
<rect x="467" y="563" width="50" height="24" rx="12" fill="#dc2626" stroke="#991b1b" stroke-width="1"/>
<text x="492" y="580" font-size="12" font-weight="800" fill="#ffffff" text-anchor="middle">重要</text>
<circle cx="103" cy="639" r="3" fill="#2563eb"/>
<text x="115" y="643" font-size="12" font-weight="800" fill="#111827" text-anchor="start">balance</text>
<text x="230" y="643" font-size="12" font-weight="400" fill="#4b5563" text-anchor="start">总余额 += 本金+赠金</text>
<circle cx="103" cy="661" r="3" fill="#2563eb"/>
<text x="115" y="665" font-size="12" font-weight="800" fill="#111827" text-anchor="start">principal_balance</text>
<text x="230" y="665" font-size="12" font-weight="400" fill="#4b5563" text-anchor="start">本金余额 += 本金</text>
<circle cx="103" cy="683" r="3" fill="#2563eb"/>
<text x="115" y="687" font-size="12" font-weight="800" fill="#111827" text-anchor="start">give_balance</text>
<text x="230" y="687" font-size="12" font-weight="400" fill="#4b5563" text-anchor="start">赠送余额 += 赠金</text>
<circle cx="103" cy="705" r="3" fill="#2563eb"/>
<text x="115" y="709" font-size="12" font-weight="800" fill="#111827" text-anchor="start">points</text>
<text x="230" y="709" font-size="12" font-weight="400" fill="#4b5563" text-anchor="start">积分 += give_point</text>
<circle cx="103" cy="727" r="3" fill="#2563eb"/>
<text x="115" y="731" font-size="12" font-weight="800" fill="#111827" text-anchor="start">sum_of_save*</text>
<text x="230" y="731" font-size="12" font-weight="400" fill="#4b5563" text-anchor="start">累计充值次数/金额</text>
<circle cx="103" cy="749" r="3" fill="#2563eb"/>
<text x="115" y="753" font-size="12" font-weight="800" fill="#111827" text-anchor="start">invoice_balance</text>
<text x="230" y="753" font-size="12" font-weight="400" fill="#4b5563" text-anchor="start">发票余额 += 本金</text>
</g>
<g>
<rect x="555" y="575" width="410" height="230" rx="12" fill="#ffffff" stroke="#86efac" stroke-width="1.6" filter="url(#shadow)"/>
<rect x="555" y="575" width="410" height="46" rx="12" fill="#dcfce7" stroke="#86efac" stroke-width="1.2"/>
<path d="M 555,610 L 555,621 L 965,621 L 965,610" fill="#dcfce7"/>
<text x="571" y="604" font-size="16" font-weight="800" fill="#111827" text-anchor="start">crm_card_balance</text>
<rect x="881" y="587" width="70" height="22" rx="11" fill="#ffffff" stroke="#86efac" stroke-width="1"/>
<text x="916.0" y="603" font-size="12" font-weight="700" fill="#374151" text-anchor="middle">余额批次</text>
<circle cx="573" cy="639" r="3" fill="#2563eb"/>
<text x="585" y="643" font-size="12" font-weight="800" fill="#111827" text-anchor="start">cno</text>
<text x="700" y="643" font-size="12" font-weight="400" fill="#4b5563" text-anchor="start">会员卡 lid</text>
<circle cx="573" cy="661" r="3" fill="#2563eb"/>
<text x="585" y="665" font-size="12" font-weight="800" fill="#111827" text-anchor="start">out_trade_no</text>
<text x="700" y="665" font-size="12" font-weight="400" fill="#4b5563" text-anchor="start">来源订单号</text>
<circle cx="573" cy="683" r="3" fill="#2563eb"/>
<text x="585" y="687" font-size="12" font-weight="800" fill="#111827" text-anchor="start">source</text>
<text x="700" y="687" font-size="12" font-weight="400" fill="#4b5563" text-anchor="start">Charge</text>
<circle cx="573" cy="705" r="3" fill="#2563eb"/>
<text x="585" y="709" font-size="12" font-weight="800" fill="#111827" text-anchor="start">principal/gift</text>
<text x="700" y="709" font-size="12" font-weight="400" fill="#4b5563" text-anchor="start">本批次本金/赠送</text>
<circle cx="573" cy="727" r="3" fill="#2563eb"/>
<text x="585" y="731" font-size="12" font-weight="800" fill="#111827" text-anchor="start">total</text>
<text x="700" y="731" font-size="12" font-weight="400" fill="#4b5563" text-anchor="start">principal + gift</text>
</g>
<g>
<rect x="1005" y="575" width="430" height="255" rx="12" fill="#ffffff" stroke="#86efac" stroke-width="1.6" filter="url(#shadow)"/>
<rect x="1005" y="575" width="430" height="46" rx="12" fill="#dcfce7" stroke="#86efac" stroke-width="1.2"/>
<path d="M 1005,610 L 1005,621 L 1435,621 L 1435,610" fill="#dcfce7"/>
<text x="1021" y="604" font-size="16" font-weight="800" fill="#111827" text-anchor="start">crm_card_record</text>
<rect x="1351" y="587" width="70" height="22" rx="11" fill="#ffffff" stroke="#86efac" stroke-width="1"/>
<text x="1386.0" y="603" font-size="12" font-weight="700" fill="#374151" text-anchor="middle">余额流水</text>
<rect x="1387" y="563" width="50" height="24" rx="12" fill="#dc2626" stroke="#991b1b" stroke-width="1"/>
<text x="1412" y="580" font-size="12" font-weight="800" fill="#ffffff" text-anchor="middle">重要</text>
<circle cx="1023" cy="639" r="3" fill="#2563eb"/>
<text x="1035" y="643" font-size="12" font-weight="800" fill="#111827" text-anchor="start">task_lid</text>
<text x="1150" y="643" font-size="12" font-weight="400" fill="#4b5563" text-anchor="start">关联交易主单</text>
<circle cx="1023" cy="661" r="3" fill="#2563eb"/>
<text x="1035" y="665" font-size="12" font-weight="800" fill="#111827" text-anchor="start">order_bill_id</text>
<text x="1150" y="665" font-size="12" font-weight="400" fill="#4b5563" text-anchor="start">out_trade_no</text>
<circle cx="1023" cy="683" r="3" fill="#2563eb"/>
<text x="1035" y="687" font-size="12" font-weight="800" fill="#111827" text-anchor="start">balance_before/after</text>
<text x="1150" y="687" font-size="12" font-weight="400" fill="#4b5563" text-anchor="start">总余额前后</text>
<circle cx="1023" cy="705" r="3" fill="#2563eb"/>
<text x="1035" y="709" font-size="12" font-weight="800" fill="#111827" text-anchor="start">principal_amount</text>
<text x="1150" y="709" font-size="12" font-weight="400" fill="#4b5563" text-anchor="start">本次本金变动</text>
<circle cx="1023" cy="727" r="3" fill="#2563eb"/>
<text x="1035" y="731" font-size="12" font-weight="800" fill="#111827" text-anchor="start">give_amount</text>
<text x="1150" y="731" font-size="12" font-weight="400" fill="#4b5563" text-anchor="start">本次赠送变动</text>
<circle cx="1023" cy="749" r="3" fill="#2563eb"/>
<text x="1035" y="753" font-size="12" font-weight="800" fill="#111827" text-anchor="start">save_rule_code</text>
<text x="1150" y="753" font-size="12" font-weight="400" fill="#4b5563" text-anchor="start">储值方案 lid</text>
</g>
<g>
<rect x="1470" y="575" width="410" height="205" rx="12" fill="#ffffff" stroke="#86efac" stroke-width="1.6" filter="url(#shadow)"/>
<rect x="1470" y="575" width="410" height="46" rx="12" fill="#dcfce7" stroke="#86efac" stroke-width="1.2"/>
<path d="M 1470,610 L 1470,621 L 1880,621 L 1880,610" fill="#dcfce7"/>
<text x="1486" y="604" font-size="16" font-weight="800" fill="#111827" text-anchor="start">crm_card_points_record</text>
<rect x="1796" y="587" width="70" height="22" rx="11" fill="#ffffff" stroke="#86efac" stroke-width="1"/>
<text x="1831.0" y="603" font-size="12" font-weight="700" fill="#374151" text-anchor="middle">积分流水</text>
<circle cx="1488" cy="639" r="3" fill="#2563eb"/>
<text x="1500" y="643" font-size="12" font-weight="800" fill="#111827" text-anchor="start">order_bill_id</text>
<text x="1615" y="643" font-size="12" font-weight="400" fill="#4b5563" text-anchor="start">out_trade_no</text>
<circle cx="1488" cy="661" r="3" fill="#2563eb"/>
<text x="1500" y="665" font-size="12" font-weight="800" fill="#111827" text-anchor="start">amount</text>
<text x="1615" y="665" font-size="12" font-weight="400" fill="#4b5563" text-anchor="start">本次积分变动</text>
<circle cx="1488" cy="683" r="3" fill="#2563eb"/>
<text x="1500" y="687" font-size="12" font-weight="800" fill="#111827" text-anchor="start">balance_before/after</text>
<text x="1615" y="687" font-size="12" font-weight="400" fill="#4b5563" text-anchor="start">积分前后</text>
<circle cx="1488" cy="705" r="3" fill="#2563eb"/>
<text x="1500" y="709" font-size="12" font-weight="800" fill="#111827" text-anchor="start">operation_model</text>
<text x="1615" y="709" font-size="12" font-weight="400" fill="#4b5563" text-anchor="start">Charge</text>
</g>
<g>
<rect x="85" y="1010" width="365" height="150" rx="12" fill="#ffffff" stroke="#c4b5fd" stroke-width="1.6" filter="url(#shadow)"/>
<rect x="85" y="1010" width="365" height="46" rx="12" fill="#ede9fe" stroke="#c4b5fd" stroke-width="1.2"/>
<path d="M 85,1045 L 85,1056 L 450,1056 L 450,1045" fill="#ede9fe"/>
<text x="101" y="1039" font-size="16" font-weight="800" fill="#111827" text-anchor="start">crm_coupon</text>
<rect x="379" y="1022" width="57" height="22" rx="11" fill="#ffffff" stroke="#c4b5fd" stroke-width="1"/>
<text x="407.5" y="1038" font-size="12" font-weight="700" fill="#374151" text-anchor="middle">券库存</text>
<circle cx="103" cy="1074" r="3" fill="#2563eb"/>
<text x="115" y="1078" font-size="12" font-weight="800" fill="#111827" text-anchor="start">received_number</text>
<text x="230" y="1078" font-size="12" font-weight="400" fill="#4b5563" text-anchor="start">发券时扣减库存</text>
<circle cx="103" cy="1096" r="3" fill="#2563eb"/>
<text x="115" y="1100" font-size="12" font-weight="800" fill="#111827" text-anchor="start">lid/status</text>
<text x="230" y="1100" font-size="12" font-weight="400" fill="#4b5563" text-anchor="start">券模板有效性校验</text>
</g>
<g>
<rect x="490" y="1010" width="430" height="235" rx="12" fill="#ffffff" stroke="#fca5a5" stroke-width="1.6" filter="url(#shadow)"/>
<rect x="490" y="1010" width="430" height="46" rx="12" fill="#fee2e2" stroke="#fca5a5" stroke-width="1.2"/>
<path d="M 490,1045 L 490,1056 L 920,1056 L 920,1045" fill="#fee2e2"/>
<text x="506" y="1039" font-size="16" font-weight="800" fill="#111827" text-anchor="start">crm_coupon_order</text>
<rect x="823" y="1022" width="83" height="22" rx="11" fill="#ffffff" stroke="#fca5a5" stroke-width="1"/>
<text x="864.5" y="1038" font-size="12" font-weight="700" fill="#374151" text-anchor="middle">会员券订单</text>
<rect x="872" y="998" width="50" height="24" rx="12" fill="#dc2626" stroke="#991b1b" stroke-width="1"/>
<text x="897" y="1015" font-size="12" font-weight="800" fill="#ffffff" text-anchor="middle">重要</text>
<circle cx="508" cy="1074" r="3" fill="#2563eb"/>
<text x="520" y="1078" font-size="12" font-weight="800" fill="#111827" text-anchor="start">order_bill_id</text>
<text x="635" y="1078" font-size="12" font-weight="400" fill="#4b5563" text-anchor="start">一次性=task.lid；周期后续=chargeRecordLid</text>
<circle cx="508" cy="1096" r="3" fill="#2563eb"/>
<text x="520" y="1100" font-size="12" font-weight="800" fill="#111827" text-anchor="start">coupon_status</text>
<text x="635" y="1100" font-size="12" font-weight="400" fill="#4b5563" text-anchor="start">WHX 未核销</text>
<circle cx="508" cy="1118" r="3" fill="#2563eb"/>
<text x="520" y="1122" font-size="12" font-weight="800" fill="#111827" text-anchor="start">get_channel</text>
<text x="635" y="1122" font-size="12" font-weight="400" fill="#4b5563" text-anchor="start">Recharge</text>
<circle cx="508" cy="1140" r="3" fill="#2563eb"/>
<text x="520" y="1144" font-size="12" font-weight="800" fill="#111827" text-anchor="start">coupon_code</text>
<text x="635" y="1144" font-size="12" font-weight="400" fill="#4b5563" text-anchor="start">券模板 lid</text>
<circle cx="508" cy="1162" r="3" fill="#2563eb"/>
<text x="520" y="1166" font-size="12" font-weight="800" fill="#111827" text-anchor="start">unionid</text>
<text x="635" y="1166" font-size="12" font-weight="400" fill="#4b5563" text-anchor="start">会员手机号</text>
</g>
<g>
<rect x="960" y="1010" width="460" height="235" rx="12" fill="#ffffff" stroke="#c4b5fd" stroke-width="1.6" filter="url(#shadow)"/>
<rect x="960" y="1010" width="460" height="46" rx="12" fill="#ede9fe" stroke="#c4b5fd" stroke-width="1.2"/>
<path d="M 960,1045 L 960,1056 L 1420,1056 L 1420,1045" fill="#ede9fe"/>
<text x="976" y="1039" font-size="16" font-weight="800" fill="#111827" text-anchor="start">crm_deposit_coupon_schedule</text>
<rect x="1336" y="1022" width="70" height="22" rx="11" fill="#ffffff" stroke="#c4b5fd" stroke-width="1"/>
<text x="1371.0" y="1038" font-size="12" font-weight="700" fill="#374151" text-anchor="middle">周期计划</text>
<circle cx="978" cy="1074" r="3" fill="#2563eb"/>
<text x="990" y="1078" font-size="12" font-weight="800" fill="#111827" text-anchor="start">charge_record_lid</text>
<text x="1105" y="1078" font-size="12" font-weight="400" fill="#4b5563" text-anchor="start">关联购买记录</text>
<circle cx="978" cy="1096" r="3" fill="#2563eb"/>
<text x="990" y="1100" font-size="12" font-weight="800" fill="#111827" text-anchor="start">tier_snapshot</text>
<text x="1105" y="1100" font-size="12" font-weight="400" fill="#4b5563" text-anchor="start">周期发券用快照</text>
<circle cx="978" cy="1118" r="3" fill="#2563eb"/>
<text x="990" y="1122" font-size="12" font-weight="800" fill="#111827" text-anchor="start">next_issue_date</text>
<text x="1105" y="1122" font-size="12" font-weight="400" fill="#4b5563" text-anchor="start">下次发放日期</text>
<circle cx="978" cy="1140" r="3" fill="#2563eb"/>
<text x="990" y="1144" font-size="12" font-weight="800" fill="#111827" text-anchor="start">issued_times/total</text>
<text x="1105" y="1144" font-size="12" font-weight="400" fill="#4b5563" text-anchor="start">已发/总次数</text>
<circle cx="978" cy="1162" r="3" fill="#2563eb"/>
<text x="990" y="1166" font-size="12" font-weight="800" fill="#111827" text-anchor="start">status</text>
<text x="1105" y="1166" font-size="12" font-weight="400" fill="#4b5563" text-anchor="start">1进行中，0完成</text>
</g>
<g>
<rect x="1460" y="1010" width="420" height="170" rx="12" fill="#ffffff" stroke="#fdba74" stroke-width="1.6" filter="url(#shadow)"/>
<rect x="1460" y="1010" width="420" height="46" rx="12" fill="#ffedd5" stroke="#fdba74" stroke-width="1.2"/>
<path d="M 1460,1045 L 1460,1056 L 1880,1056 L 1880,1045" fill="#ffedd5"/>
<text x="1476" y="1039" font-size="16" font-weight="800" fill="#111827" text-anchor="start">crm_card</text>
<rect x="1796" y="1022" width="70" height="22" rx="11" fill="#ffffff" stroke="#fdba74" stroke-width="1"/>
<text x="1831.0" y="1038" font-size="12" font-weight="700" fill="#374151" text-anchor="middle">条件更新</text>
<circle cx="1478" cy="1074" r="3" fill="#2563eb"/>
<text x="1490" y="1078" font-size="12" font-weight="800" fill="#111827" text-anchor="start">card_type_level_code</text>
<text x="1605" y="1078" font-size="12" font-weight="400" fill="#4b5563" text-anchor="start">升级目标等级 lid</text>
<circle cx="1478" cy="1096" r="3" fill="#2563eb"/>
<text x="1490" y="1100" font-size="12" font-weight="800" fill="#111827" text-anchor="start">card_type_level</text>
<text x="1605" y="1100" font-size="12" font-weight="400" fill="#4b5563" text-anchor="start">升级目标等级名</text>
<circle cx="1478" cy="1118" r="3" fill="#2563eb"/>
<text x="1490" y="1122" font-size="12" font-weight="800" fill="#111827" text-anchor="start">over_time</text>
<text x="1605" y="1122" font-size="12" font-weight="400" fill="#4b5563" text-anchor="start">等级延期后有效期</text>
</g>
<path d="M 450,250 L 555,250" fill="none" stroke="#2563eb" stroke-width="2" stroke-linecap="round" stroke-linejoin="round" marker-end="url(#arrow-blue)"/>
<rect x="462.0" y="217" width="86" height="23" rx="5" fill="#ffffff" opacity="0.96" stroke="#e5e7eb" stroke-width="0.8"/>
<text x="505" y="232" font-size="12" font-weight="700" fill="#2563eb" text-anchor="middle">读取方案生成主单</text>
<path d="M 965,255 L 1005,255" fill="none" stroke="#2563eb" stroke-width="2" stroke-linecap="round" stroke-linejoin="round" marker-end="url(#arrow-blue)"/>
<rect x="942.0" y="223" width="86" height="23" rx="5" fill="#ffffff" opacity="0.96" stroke="#e5e7eb" stroke-width="0.8"/>
<text x="985" y="238" font-size="12" font-weight="700" fill="#2563eb" text-anchor="middle">task_lid</text>
<path d="M 965,388 L 965,455 L 1430,455 L 1430,330 L 1440,330" fill="none" stroke="#2563eb" stroke-width="2" stroke-linecap="round" stroke-linejoin="round" marker-end="url(#arrow-blue)"/>
<rect x="1162.0" y="297" width="86" height="23" rx="5" fill="#ffffff" opacity="0.96" stroke="#e5e7eb" stroke-width="0.8"/>
<text x="1190" y="443" font-size="12" font-weight="700" fill="#2563eb" text-anchor="middle">task_lid</text>
<path d="M 1670,425 L 1670,470 L 290,470 L 290,180" fill="none" stroke="#dc2626" stroke-width="2" stroke-linecap="round" stroke-linejoin="round" stroke-dasharray="6 4" marker-end="url(#arrow-red)"/>
<rect x="815.0" y="440" width="110" height="23" rx="5" fill="#ffffff" opacity="0.96" stroke="#e5e7eb" stroke-width="0.8"/>
<text x="870" y="455" font-size="12" font-weight="700" fill="#dc2626" text-anchor="middle">成功后销量+1/+金额</text>
<path d="M 760,435 L 760,520 L 300,520 L 300,575" fill="none" stroke="#16a34a" stroke-width="2.2" stroke-linecap="round" stroke-linejoin="round" marker-end="url(#arrow-green)"/>
<rect x="447.0" y="490" width="166" height="23" rx="5" fill="#ffffff" opacity="0.96" stroke="#e5e7eb" stroke-width="0.8"/>
<text x="530" y="505" font-size="12" font-weight="700" fill="#16a34a" text-anchor="middle">onPaymentSuccess入账</text>
<path d="M 760,435 L 760,575" fill="none" stroke="#16a34a" stroke-width="2" stroke-linecap="round" stroke-linejoin="round" marker-end="url(#arrow-green)"/>
<rect x="758.0" y="505" width="64" height="23" rx="5" fill="#ffffff" opacity="0.96" stroke="#e5e7eb" stroke-width="0.8"/>
<text x="790" y="520" font-size="12" font-weight="700" fill="#16a34a" text-anchor="middle">生成批次</text>
<path d="M 760,435 L 1210,520 L 1210,575" fill="none" stroke="#16a34a" stroke-width="2" stroke-linecap="round" stroke-linejoin="round" marker-end="url(#arrow-green)"/>
<rect x="1055.0" y="490" width="70" height="23" rx="5" fill="#ffffff" opacity="0.96" stroke="#e5e7eb" stroke-width="0.8"/>
<text x="1090" y="505" font-size="12" font-weight="700" fill="#16a34a" text-anchor="middle">生成余额流水</text>
<path d="M 760,435 L 1670,520 L 1670,575" fill="none" stroke="#16a34a" stroke-width="2" stroke-linecap="round" stroke-linejoin="round" marker-end="url(#arrow-green)"/>
<rect x="1465.0" y="490" width="70" height="23" rx="5" fill="#ffffff" opacity="0.96" stroke="#e5e7eb" stroke-width="0.8"/>
<text x="1500" y="505" font-size="12" font-weight="700" fill="#16a34a" text-anchor="middle">生成积分流水</text>
<path d="M 760,805 L 1005,705" fill="none" stroke="#16a34a" stroke-width="2" stroke-linecap="round" stroke-linejoin="round" stroke-dasharray="6 4" marker-end="url(#arrow-green)"/>
<rect x="842.0" y="760" width="86" height="23" rx="5" fill="#ffffff" opacity="0.96" stroke="#e5e7eb" stroke-width="0.8"/>
<text x="885" y="775" font-size="12" font-weight="700" fill="#16a34a" text-anchor="middle">批次金额写入流水</text>
<path d="M 1670,425 L 1670,940 L 705,940 L 705,1010" fill="none" stroke="#9333ea" stroke-width="2.2" stroke-linecap="round" stroke-linejoin="round" stroke-dasharray="6 5" marker-end="url(#arrow-purple)"/>
<rect x="998.0" y="910" width="64" height="23" rx="5" fill="#ffffff" opacity="0.96" stroke="#e5e7eb" stroke-width="0.8"/>
<text x="1030" y="925" font-size="12" font-weight="700" fill="#9333ea" text-anchor="middle">异步发券</text>
<path d="M 450,1080 L 490,1080" fill="none" stroke="#9333ea" stroke-width="2" stroke-linecap="round" stroke-linejoin="round" marker-end="url(#arrow-purple)"/>
<rect x="435.0" y="1048" width="70" height="23" rx="5" fill="#ffffff" opacity="0.96" stroke="#e5e7eb" stroke-width="0.8"/>
<text x="470" y="1063" font-size="12" font-weight="700" fill="#9333ea" text-anchor="middle">扣库存后发券</text>
<path d="M 1670,425 L 1670,960 L 1190,960 L 1190,1010" fill="none" stroke="#9333ea" stroke-width="2" stroke-linecap="round" stroke-linejoin="round" stroke-dasharray="6 5" marker-end="url(#arrow-purple)"/>
<rect x="1401.0" y="930" width="78" height="23" rx="5" fill="#ffffff" opacity="0.96" stroke="#e5e7eb" stroke-width="0.8"/>
<text x="1440" y="945" font-size="12" font-weight="700" fill="#9333ea" text-anchor="middle">周期发券写计划</text>
<path d="M 1670,425 L 1670,1010 L 1460,1085" fill="none" stroke="#ea580c" stroke-width="2" stroke-linecap="round" stroke-linejoin="round" stroke-dasharray="6 5" marker-end="url(#arrow-orange)"/>
<rect x="1681.0" y="950" width="78" height="23" rx="5" fill="#ffffff" opacity="0.96" stroke="#e5e7eb" stroke-width="0.8"/>
<text x="1720" y="965" font-size="12" font-weight="700" fill="#ea580c" text-anchor="middle">等级升级/延期</text>
<path d="M 1670,425 L 1670,950 L 705,950 L 705,1010" fill="none" stroke="#9333ea" stroke-width="2" stroke-linecap="round" stroke-linejoin="round" stroke-dasharray="6 5" marker-end="url(#arrow-purple)"/>
<rect x="781.0" y="955" width="238" height="23" rx="5" fill="#ffffff" opacity="0.96" stroke="#e5e7eb" stroke-width="0.8"/>
<text x="900" y="970" font-size="12" font-weight="700" fill="#9333ea" text-anchor="middle">一次性券 order_bill_id=task.lid</text>
<path d="M 1670,425 L 1670,970 L 1190,970 L 1190,1010" fill="none" stroke="#9333ea" stroke-width="2" stroke-linecap="round" stroke-linejoin="round" stroke-dasharray="6 5" marker-end="url(#arrow-purple)"/>
<rect x="1370.0" y="975" width="150" height="23" rx="5" fill="#ffffff" opacity="0.96" stroke="#e5e7eb" stroke-width="0.8"/>
<text x="1445" y="990" font-size="12" font-weight="700" fill="#9333ea" text-anchor="middle">chargeRecord.lid</text>
<path d="M 1420,1130 L 1460,1130 L 1460,1245 L 705,1245" fill="none" stroke="#9333ea" stroke-width="2" stroke-linecap="round" stroke-linejoin="round" stroke-dasharray="6 5" marker-end="url(#arrow-purple)"/>
<rect x="935.0" y="1255" width="250" height="23" rx="5" fill="#ffffff" opacity="0.96" stroke="#e5e7eb" stroke-width="0.8"/>
<text x="1060" y="1270" font-size="12" font-weight="700" fill="#9333ea" text-anchor="middle">周期后续券 order_bill_id=chargeRecordLid</text>
<rect x="85" y="1345" width="1810" height="90" rx="14" fill="#fff7ed" stroke="#fdba74" stroke-width="1.4"/>
<text x="110" y="1375" font-size="17" font-weight="800" fill="#92400e" text-anchor="start">关键追踪关系</text>
<text x="110" y="1405" font-size="13" font-weight="500" fill="#7c2d12" text-anchor="start">1. crm_deal_task.lid 是储值主链路ID：明细、购买记录、余额流水都围绕它关联。</text>
<text x="110" y="1428" font-size="13" font-weight="500" fill="#7c2d12" text-anchor="start">2. crm_deposit_charge_record.lid 是周期发券关键ID：后续周期券的 order_bill_id 会使用它。</text>
<text x="920" y="1405" font-size="13" font-weight="500" fill="#7c2d12" text-anchor="start">3. crm_coupon_order.order_bill_id 是撤销赠券的匹配字段，必须区分 task.lid 与 chargeRecordLid。</text>
<text x="920" y="1428" font-size="13" font-weight="500" fill="#7c2d12" text-anchor="start">4. crm_card 是当前余额/积分结果表，crm_card_record / crm_card_points_record 是可追溯流水。</text>
<g transform="translate(60,1468)">
<path d="M 0,0 L 42,0" stroke="#2563eb" stroke-width="2.2" fill="none" marker-end="url(#arrow-blue)"/>
<text x="52" y="5" font-size="13" font-weight="600" fill="#4b5563" text-anchor="start">下单写入</text>
<path d="M 220,0 L 262,0" stroke="#16a34a" stroke-width="2.2" fill="none" marker-end="url(#arrow-green)"/>
<text x="272" y="5" font-size="13" font-weight="600" fill="#4b5563" text-anchor="start">余额入账事务</text>
<path d="M 440,0 L 482,0" stroke="#9333ea" stroke-width="2.2" fill="none" marker-end="url(#arrow-purple)"/>
<text x="492" y="5" font-size="13" font-weight="600" fill="#4b5563" text-anchor="start">异步/周期发券</text>
<path d="M 660,0 L 702,0" stroke="#ea580c" stroke-width="2.2" fill="none" marker-end="url(#arrow-orange)"/>
<text x="712" y="5" font-size="13" font-weight="600" fill="#4b5563" text-anchor="start">条件更新</text>
<path d="M 880,0 L 922,0" stroke="#dc2626" stroke-width="2.2" fill="none" marker-end="url(#arrow-red)"/>
<text x="932" y="5" font-size="13" font-weight="600" fill="#4b5563" text-anchor="start">核心统计/重点关系</text>
</g>
</svg>