<svg xmlns="http://www.w3.org/2000/svg" viewBox="0 0 2400 1720" width="2400" height="1720">
<style>
text { font-family: 'Helvetica Neue', Helvetica, Arial, 'PingFang SC', 'Microsoft YaHei', 'Microsoft JhengHei', 'SimHei', sans-serif; }
</style>
<defs>
<marker id="arrow-blue" markerWidth="12" markerHeight="8" refX="11" refY="4" orient="auto" markerUnits="strokeWidth"><polygon points="0 0, 12 4, 0 8" fill="#2563eb"/></marker>
<marker id="arrow-green" markerWidth="12" markerHeight="8" refX="11" refY="4" orient="auto" markerUnits="strokeWidth"><polygon points="0 0, 12 4, 0 8" fill="#16a34a"/></marker>
<marker id="arrow-purple" markerWidth="12" markerHeight="8" refX="11" refY="4" orient="auto" markerUnits="strokeWidth"><polygon points="0 0, 12 4, 0 8" fill="#9333ea"/></marker>
<marker id="arrow-red" markerWidth="12" markerHeight="8" refX="11" refY="4" orient="auto" markerUnits="strokeWidth"><polygon points="0 0, 12 4, 0 8" fill="#dc2626"/></marker>
</defs>
<rect x="0" y="0" width="2400" height="1720" rx="0" ry="0" fill="#ffffff" stroke="#ffffff" stroke-width="0"/>
<text x="60" y="48" font-size="30" fill="#0f172a" font-weight="800" text-anchor="start">储值方案储值 API、参数与用途关系图</text>
<text x="60" y="80" font-size="15" fill="#64748b" font-weight="400" text-anchor="start">主链路：查询可用方案 -&gt; 提交储值/本地收款 -&gt; POS 收口调 CRM commitByPos -&gt; 状态查询/轮询。图中仅展示储值方案储值相关 API。</text>
<line x1="1560" y1="46" x2="1602" y2="46" stroke="#2563eb" stroke-width="2.2" marker-end="url(#arrow-blue)"/>
<text x="1614" y="51" font-size="12" fill="#475569" font-weight="400" text-anchor="start">查询方案</text>
<line x1="1750" y1="46" x2="1792" y2="46" stroke="#16a34a" stroke-width="2.2" marker-end="url(#arrow-green)"/>
<text x="1804" y="51" font-size="12" fill="#475569" font-weight="400" text-anchor="start">提交/入账</text>
<line x1="1940" y1="46" x2="1982" y2="46" stroke="#9333ea" stroke-width="2.2" marker-end="url(#arrow-purple)" stroke-dasharray="7 5"/>
<text x="1994" y="51" font-size="12" fill="#475569" font-weight="400" text-anchor="start">状态/测试</text>
<line x1="2135" y1="46" x2="2177" y2="46" stroke="#dc2626" stroke-width="2.2" marker-end="url(#arrow-red)" stroke-dasharray="5 5"/>
<text x="2189" y="51" font-size="12" fill="#475569" font-weight="400" text-anchor="start">关键映射</text>
<rect x="60" y="120" width="700" height="570" rx="16" ry="16" fill="#f8fafc" stroke="#cbd5e1" stroke-width="1.6" stroke-dasharray="8 6"/>
<text x="84" y="158" font-size="22" fill="#111827" font-weight="700" text-anchor="start">CRM 云端 API</text>
<text x="84" y="184" font-size="13" fill="#6b7280" font-weight="400" text-anchor="start">后台、小程序、H5 可直接调用</text>
<rect x="830" y="120" width="700" height="570" rx="16" ry="16" fill="#f8fafc" stroke="#cbd5e1" stroke-width="1.6" stroke-dasharray="8 6"/>
<text x="854" y="158" font-size="22" fill="#111827" font-weight="700" text-anchor="start">POS 本地 API</text>
<text x="854" y="184" font-size="13" fill="#6b7280" font-weight="400" text-anchor="start">收银页面访问 POS 本地服务；均带 PATH_PREFIX_MERCHANT 前缀</text>
<rect x="1600" y="120" width="740" height="570" rx="16" ry="16" fill="#f8fafc" stroke="#cbd5e1" stroke-width="1.6" stroke-dasharray="8 6"/>
<text x="1624" y="158" font-size="22" fill="#111827" font-weight="700" text-anchor="start">POS 调 CRM API</text>
<text x="1624" y="184" font-size="13" fill="#6b7280" font-weight="400" text-anchor="start">由 Nms4CloudCrmService/DepositPlanChargeUtil 发起</text>
<rect x="100" y="195" width="620" height="118" rx="12" ry="12" fill="#ffffff" stroke="#93c5fd" stroke-width="1.8"/>
<rect x="100" y="195" width="10" height="118" rx="12" ry="12" fill="#dbeafe" stroke="#dbeafe" stroke-width="0"/>
<text x="124" y="225" font-size="16" fill="#111827" font-weight="700" text-anchor="start">POST /crm_deposit_plan/listAvailable</text>
<rect x="602" y="208" width="94" height="26" rx="13.0" ry="13.0" fill="#dbeafe" stroke="#93c5fd" stroke-width="1.2"/>
<text x="649.0" y="226.0" font-size="12" fill="#374151" font-weight="600" text-anchor="middle">查询</text>
<text x="124" y="250" font-size="12.5" fill="#6b7280" font-weight="400" text-anchor="start">DTO: CrmDepositPlanAvailableQueryDTO</text>
<text x="124" y="277" font-size="13" fill="#374151" font-weight="400" text-anchor="start">用途：查询当前门店、会员卡可用的储值方案档位。</text>
<text x="124" y="299" font-size="13" fill="#374151" font-weight="400" text-anchor="start">listByWx：小程序登录态入口，服务端从用户上下文补 mid。</text>
<rect x="100" y="340" width="620" height="132" rx="12" ry="12" fill="#ffffff" stroke="#86efac" stroke-width="1.8"/>
<rect x="100" y="340" width="10" height="132" rx="12" ry="12" fill="#dcfce7" stroke="#dcfce7" stroke-width="0"/>
<text x="124" y="370" font-size="16" fill="#111827" font-weight="700" text-anchor="start">POST /deposit-plan/charge/commit</text>
<rect x="602" y="353" width="94" height="26" rx="13.0" ry="13.0" fill="#dcfce7" stroke="#86efac" stroke-width="1.2"/>
<text x="649.0" y="371.0" font-size="12" fill="#374151" font-weight="600" text-anchor="middle">提交</text>
<text x="124" y="395" font-size="12.5" fill="#6b7280" font-weight="400" text-anchor="start">DTO: DepositPlanChargeCommitDTO；@SaCheckLogin + @ForbidRepeatSubmit</text>
<text x="124" y="422" font-size="13" fill="#374151" font-weight="400" text-anchor="start">用途：小程序/H5/后台提交储值方案充值。</text>
<text x="124" y="444" font-size="13" fill="#374151" font-weight="400" text-anchor="start">产出：支付单/充值任务，返回 DepositPlanChargeCommitVO 与 taskLid。</text>
<text x="124" y="466" font-size="13" fill="#374151" font-weight="400" text-anchor="start">不是 POS 同步入账接口。</text>
<rect x="100" y="500" width="620" height="138" rx="12" ry="12" fill="#ffffff" stroke="#c4b5fd" stroke-width="1.8"/>
<rect x="100" y="500" width="10" height="138" rx="12" ry="12" fill="#ede9fe" stroke="#ede9fe" stroke-width="0"/>
<text x="124" y="530" font-size="16" fill="#111827" font-weight="700" text-anchor="start">POST /deposit-plan/charge/query_charge_status</text>
<rect x="602" y="513" width="94" height="26" rx="13.0" ry="13.0" fill="#ede9fe" stroke="#c4b5fd" stroke-width="1.2"/>
<text x="649.0" y="531.0" font-size="12" fill="#374151" font-weight="600" text-anchor="middle">状态</text>
<text x="124" y="555" font-size="12.5" fill="#6b7280" font-weight="400" text-anchor="start">DTO: ChargeQueryStatus；@SaCheckLogin</text>
<text x="124" y="582" font-size="13" fill="#374151" font-weight="400" text-anchor="start">用途：按 taskLid 查询储值任务是否成功。</text>
<text x="124" y="604" font-size="13" fill="#374151" font-weight="400" text-anchor="start">POST /mock-success：仅 API 测试模拟支付成功，参数也是 taskLid。</text>
<rect x="870" y="195" width="620" height="120" rx="12" ry="12" fill="#ffffff" stroke="#93c5fd" stroke-width="1.8"/>
<rect x="870" y="195" width="10" height="120" rx="12" ry="12" fill="#dbeafe" stroke="#dbeafe" stroke-width="0"/>
<text x="894" y="225" font-size="15" fill="#111827" font-weight="700" text-anchor="start">POST /member_deposit_plan_ops/listAvailable</text>
<rect x="1372" y="208" width="94" height="26" rx="13.0" ry="13.0" fill="#dbeafe" stroke="#93c5fd" stroke-width="1.2"/>
<text x="1419.0" y="226.0" font-size="12" fill="#374151" font-weight="600" text-anchor="middle">查询</text>
<text x="894" y="250" font-size="12.5" fill="#6b7280" font-weight="400" text-anchor="start">DTO: CrmDepositPlanAvailableQueryDTO</text>
<text x="894" y="277" font-size="13" fill="#374151" font-weight="400" text-anchor="start">用途：POS 新储值方案页面查询可用方案。</text>
<text x="894" y="299" font-size="13" fill="#374151" font-weight="400" text-anchor="start">本地补 mid 后转调 CRM /crm_deposit_plan/listAvailable。</text>
<rect x="870" y="340" width="620" height="154" rx="12" ry="12" fill="#ffffff" stroke="#86efac" stroke-width="1.8"/>
<rect x="870" y="340" width="10" height="154" rx="12" ry="12" fill="#dcfce7" stroke="#dcfce7" stroke-width="0"/>
<text x="894" y="370" font-size="15" fill="#111827" font-weight="700" text-anchor="start">POST /member_deposit_plan_ops/cardCharge</text>
<rect x="1372" y="353" width="94" height="26" rx="13.0" ry="13.0" fill="#dcfce7" stroke="#86efac" stroke-width="1.2"/>
<text x="1419.0" y="371.0" font-size="12" fill="#374151" font-weight="600" text-anchor="middle">本地收款</text>
<text x="894" y="395" font-size="12.5" fill="#6b7280" font-weight="400" text-anchor="start">DTO: DepositPlanChargeExDTO；@Idempotent</text>
<text x="894" y="422" font-size="13" fill="#374151" font-weight="400" text-anchor="start">用途：POS 创建/复用本地储值方案账单并发起支付。</text>
<text x="894" y="444" font-size="13" fill="#374151" font-weight="400" text-anchor="start">动作：建/复用 dwd_bill，生成 dwd_food，写 dwd_pay，调用 checkOut。</text>
<text x="894" y="466" font-size="13" fill="#374151" font-weight="400" text-anchor="start">注意：入口处不直接做 CRM 入账，支付收口后再调云端。</text>
<rect x="870" y="520" width="620" height="120" rx="12" ry="12" fill="#ffffff" stroke="#c4b5fd" stroke-width="1.8"/>
<rect x="870" y="520" width="10" height="120" rx="12" ry="12" fill="#ede9fe" stroke="#ede9fe" stroke-width="0"/>
<text x="894" y="550" font-size="15" fill="#111827" font-weight="700" text-anchor="start">POST /member_deposit_plan_ops/getDealingTask</text>
<rect x="1372" y="533" width="94" height="26" rx="13.0" ry="13.0" fill="#ede9fe" stroke="#c4b5fd" stroke-width="1.2"/>
<text x="1419.0" y="551.0" font-size="12" fill="#374151" font-weight="600" text-anchor="middle">状态</text>
<text x="894" y="575" font-size="12.5" fill="#6b7280" font-weight="400" text-anchor="start">DTO: DwdBillOpDevDTO</text>
<text x="894" y="602" font-size="13" fill="#374151" font-weight="400" text-anchor="start">用途：恢复当前设备未完成的储值方案充值单。</text>
<text x="894" y="624" font-size="13" fill="#374151" font-weight="400" text-anchor="start">/dwd_bill_deposit_plan_ops/queryOrderPay、/pollingClose：按本地账单 lid 查询支付/关闭状态。</text>
<rect x="1640" y="205" width="660" height="118" rx="12" ry="12" fill="#ffffff" stroke="#93c5fd" stroke-width="1.8"/>
<rect x="1640" y="205" width="10" height="118" rx="12" ry="12" fill="#dbeafe" stroke="#dbeafe" stroke-width="0"/>
<text x="1664" y="235" font-size="15" fill="#111827" font-weight="700" text-anchor="start">Nms4CloudCrmService.listAvailableDepositPlans</text>
<rect x="2182" y="218" width="94" height="26" rx="13.0" ry="13.0" fill="#dbeafe" stroke="#93c5fd" stroke-width="1.2"/>
<text x="2229.0" y="236.0" font-size="12" fill="#374151" font-weight="600" text-anchor="middle">远程查询</text>
<text x="1664" y="260" font-size="12.5" fill="#6b7280" font-weight="400" text-anchor="start">@Post /crm_deposit_plan/listAvailable</text>
<text x="1664" y="287" font-size="13" fill="#374151" font-weight="400" text-anchor="start">用途：POS 本地查询方案时实际调用的 CRM 云端接口。</text>
<text x="1664" y="309" font-size="13" fill="#374151" font-weight="400" text-anchor="start">返回：List&lt;CrmDepositPlanAvailableVO&gt;，供 POS 展示方案与档位。</text>
<rect x="1640" y="360" width="660" height="150" rx="12" ry="12" fill="#ffffff" stroke="#86efac" stroke-width="1.8"/>
<rect x="1640" y="360" width="10" height="150" rx="12" ry="12" fill="#dcfce7" stroke="#dcfce7" stroke-width="0"/>
<text x="1664" y="390" font-size="15" fill="#111827" font-weight="700" text-anchor="start">DepositPlanChargeUtil -&gt; depositPlanCharge</text>
<rect x="2182" y="373" width="94" height="26" rx="13.0" ry="13.0" fill="#dcfce7" stroke="#86efac" stroke-width="1.2"/>
<text x="2229.0" y="391.0" font-size="12" fill="#374151" font-weight="600" text-anchor="middle">云端入账</text>
<text x="1664" y="415" font-size="12.5" fill="#6b7280" font-weight="400" text-anchor="start">@Post /deposit-plan/charge/commitByPos；@NeedVerifySignature</text>
<text x="1664" y="442" font-size="13" fill="#374151" font-weight="400" text-anchor="start">用途：POS 支付成功收口后，同步通知 CRM 做方案储值入账。</text>
<text x="1664" y="464" font-size="13" fill="#374151" font-weight="400" text-anchor="start">参数由 dwd_bill 与支付结果组装为 DepositPlanPosChargeDTO。</text>
<text x="1664" y="486" font-size="13" fill="#374151" font-weight="400" text-anchor="start">返回：CardBalanceVo，作为 POS 更新本地账单/菜品的最终余额口径。</text>
<rect x="1640" y="545" width="660" height="105" rx="12" ry="12" fill="#ffffff" stroke="#fed7aa" stroke-width="1.8"/>
<rect x="1640" y="545" width="10" height="105" rx="12" ry="12" fill="#fff7ed" stroke="#fff7ed" stroke-width="0"/>
<text x="1664" y="575" font-size="15" fill="#111827" font-weight="700" text-anchor="start">CRM commitByPos 业务结果</text>
<rect x="2182" y="558" width="94" height="26" rx="13.0" ry="13.0" fill="#fff7ed" stroke="#fed7aa" stroke-width="1.2"/>
<text x="2229.0" y="576.0" font-size="12" fill="#374151" font-weight="600" text-anchor="middle">结果</text>
<text x="1664" y="600" font-size="12.5" fill="#6b7280" font-weight="400" text-anchor="start">DepositPlanChargeService.commitByPos</text>
<text x="1664" y="627" font-size="13" fill="#374151" font-weight="400" text-anchor="start">动作：校验方案/档位/会员卡，按 orderId 幂等，创建任务与充值记录。</text>
<text x="1664" y="649" font-size="13" fill="#374151" font-weight="400" text-anchor="start">后续：余额、本金/赠送金、积分、券等奖励按服务内部规则处理。</text>
<line x1="1490" y1="255" x2="1640" y2="255" stroke="#2563eb" stroke-width="2.2" marker-end="url(#arrow-blue)"/>
<rect x="1520.0" y="219" width="90" height="24" rx="6" ry="6" fill="#ffffff" stroke="#e5e7eb" stroke-width="0.7"/>
<text x="1565" y="236" font-size="12" fill="#2563eb" font-weight="600" text-anchor="middle">POS 转调</text>
<path d="M1640,230 L1640,166 L720,166 L720,245" stroke="#2563eb" stroke-width="2.2" fill="none" marker-end="url(#arrow-blue)" stroke-dasharray="7 5"/>
<rect x="1115.0" y="139" width="90" height="24" rx="6" ry="6" fill="#ffffff" stroke="#e5e7eb" stroke-width="0.7"/>
<text x="1160" y="156" font-size="12" fill="#2563eb" font-weight="600" text-anchor="middle">实际云端接口</text>
<line x1="1490" y1="417" x2="1640" y2="430" stroke="#16a34a" stroke-width="2.2" marker-end="url(#arrow-green)"/>
<rect x="1525.0" y="377" width="86" height="24" rx="6" ry="6" fill="#ffffff" stroke="#e5e7eb" stroke-width="0.7"/>
<text x="1568" y="394" font-size="12" fill="#16a34a" font-weight="600" text-anchor="middle">支付收口后</text>
<line x1="1970" y1="510" x2="1970" y2="545" stroke="#16a34a" stroke-width="2.2" marker-end="url(#arrow-green)"/>
<rect x="1927.0" y="509" width="86" height="24" rx="6" ry="6" fill="#ffffff" stroke="#e5e7eb" stroke-width="0.7"/>
<text x="1970" y="526" font-size="12" fill="#16a34a" font-weight="600" text-anchor="middle">执行</text>
<line x1="1490" y1="580" x2="1600" y2="580" stroke="#9333ea" stroke-width="2.2" marker-end="url(#arrow-purple)" stroke-dasharray="7 5"/>
<rect x="1476.0" y="541" width="138" height="24" rx="6" ry="6" fill="#ffffff" stroke="#e5e7eb" stroke-width="0.7"/>
<text x="1545" y="558" font-size="12" fill="#9333ea" font-weight="600" text-anchor="middle">POS 状态在本地查</text>
<line x1="720" y1="575" x2="760" y2="575" stroke="#9333ea" stroke-width="2.2" marker-end="url(#arrow-purple)" stroke-dasharray="7 5"/>
<rect x="541.0" y="535" width="198" height="24" rx="6" ry="6" fill="#ffffff" stroke="#e5e7eb" stroke-width="0.7"/>
<text x="640" y="552" font-size="12" fill="#9333ea" font-weight="600" text-anchor="middle">CRM 状态查 taskLid</text>
<rect x="60" y="735" width="2280" height="650" rx="16" ry="16" fill="#ffffff" stroke="#e5e7eb" stroke-width="1.6" stroke-dasharray="8 6"/>
<text x="84" y="773" font-size="22" fill="#111827" font-weight="700" text-anchor="start">参数 DTO 与字段用途</text>
<text x="84" y="799" font-size="13" fill="#6b7280" font-weight="400" text-anchor="start">左到右对应：查询方案、线上提交、POS 本地提交、POS 云端入账、状态查询</text>
<rect x="100" y="820" width="350" height="235" rx="12" ry="12" fill="#ffffff" stroke="#93c5fd" stroke-width="1.5"/>
<text x="118" y="849" font-size="16" fill="#111827" font-weight="700" text-anchor="start">CrmDepositPlanAvailableQueryDTO</text>
<text x="118" y="872" font-size="12" fill="#6b7280" font-weight="400" text-anchor="start">/crm_deposit_plan/listAvailable、listByWx</text>
<line x1="118" y1="886" x2="432" y2="886" stroke="#e5e7eb" stroke-width="1"/>
<text x="118" y="911" font-size="12.5" fill="#374151" font-weight="400" text-anchor="start">mid：商户；listByWx 由登录用户补齐</text>
<text x="118" y="932" font-size="12.5" fill="#374151" font-weight="400" text-anchor="start">sid：门店，必填，用于过滤门店可用方案</text>
<text x="118" y="953" font-size="12.5" fill="#374151" font-weight="400" text-anchor="start">cardLid：会员卡 lid，可按卡类型/等级过滤</text>
<text x="118" y="974" font-size="12.5" fill="#374151" font-weight="400" text-anchor="start">brandLid：品牌过滤</text>
<text x="118" y="995" font-size="12.5" fill="#374151" font-weight="400" text-anchor="start">用途：返回可选方案、档位、赠送规则</text>
<rect x="428" y="836" width="8" height="203" rx="4" ry="4" fill="#dbeafe" stroke="#dbeafe" stroke-width="0"/>
<rect x="480" y="820" width="390" height="235" rx="12" ry="12" fill="#ffffff" stroke="#86efac" stroke-width="1.5"/>
<text x="498" y="849" font-size="16" fill="#111827" font-weight="700" text-anchor="start">DepositPlanChargeCommitDTO</text>
<text x="498" y="872" font-size="12" fill="#6b7280" font-weight="400" text-anchor="start">/deposit-plan/charge/commit</text>
<line x1="498" y1="886" x2="852" y2="886" stroke="#e5e7eb" stroke-width="1"/>
<text x="498" y="911" font-size="12.5" fill="#374151" font-weight="400" text-anchor="start">planLid：储值方案 ID，必填</text>
<text x="498" y="932" font-size="12.5" fill="#374151" font-weight="400" text-anchor="start">tierIndex：档位索引，从 0 开始，必填</text>
<text x="498" y="953" font-size="12.5" fill="#374151" font-weight="400" text-anchor="start">cardLid：会员卡 ID</text>
<text x="498" y="974" font-size="12.5" fill="#374151" font-weight="400" text-anchor="start">appId：小程序 appId</text>
<text x="498" y="995" font-size="12.5" fill="#374151" font-weight="400" text-anchor="start">h5：是否 H5 支付</text>
<text x="498" y="1016" font-size="12.5" fill="#374151" font-weight="400" text-anchor="start">channelCode：POS/MINI_PROGRAM/H5 等</text>
<text x="498" y="1037" font-size="12.5" fill="#374151" font-weight="400" text-anchor="start">brandLid：品牌；mid/sid 来自 BizBaseRequest</text>
<rect x="848" y="836" width="8" height="203" rx="4" ry="4" fill="#dcfce7" stroke="#dcfce7" stroke-width="0"/>
<rect x="900" y="820" width="470" height="235" rx="12" ry="12" fill="#ffffff" stroke="#86efac" stroke-width="1.5"/>
<text x="918" y="849" font-size="16" fill="#111827" font-weight="700" text-anchor="start">DepositPlanChargeExDTO</text>
<text x="918" y="872" font-size="12" fill="#6b7280" font-weight="400" text-anchor="start">/member_deposit_plan_ops/cardCharge</text>
<line x1="918" y1="886" x2="1352" y2="886" stroke="#e5e7eb" stroke-width="1"/>
<text x="918" y="911" font-size="12.5" fill="#374151" font-weight="400" text-anchor="start">sid/devId/source：POS 门店、设备和来源</text>
<text x="918" y="932" font-size="12.5" fill="#374151" font-weight="400" text-anchor="start">cardNo：会员卡号</text>
<text x="918" y="953" font-size="12.5" fill="#374151" font-weight="400" text-anchor="start">planLid/tierIndex：选择的方案与档位</text>
<text x="918" y="974" font-size="12.5" fill="#374151" font-weight="400" text-anchor="start">saveAmount：本金，CRM 侧用于防篡改校验</text>
<text x="918" y="995" font-size="12.5" fill="#374151" font-weight="400" text-anchor="start">giftAmount/giftPoints：透传参考，CRM 以档位配置为准</text>
<text x="918" y="1016" font-size="12.5" fill="#374151" font-weight="400" text-anchor="start">pays/authNo/lid：支付方式、付款码、复用账单 lid</text>
<rect x="1348" y="836" width="8" height="203" rx="4" ry="4" fill="#dcfce7" stroke="#dcfce7" stroke-width="0"/>
<rect x="1400" y="820" width="470" height="235" rx="12" ry="12" fill="#ffffff" stroke="#fed7aa" stroke-width="1.5"/>
<text x="1418" y="849" font-size="16" fill="#111827" font-weight="700" text-anchor="start">DepositPlanPosChargeDTO</text>
<text x="1418" y="872" font-size="12" fill="#6b7280" font-weight="400" text-anchor="start">/deposit-plan/charge/commitByPos</text>
<line x1="1418" y1="886" x2="1852" y2="886" stroke="#e5e7eb" stroke-width="1"/>
<text x="1418" y="911" font-size="12.5" fill="#374151" font-weight="400" text-anchor="start">merchantNo -&gt; mid，terminalId -&gt; sid（签名字段）</text>
<text x="1418" y="932" font-size="12.5" fill="#374151" font-weight="400" text-anchor="start">cardNo：会员卡号；operator/comment：操作记录</text>
<text x="1418" y="953" font-size="12.5" fill="#374151" font-weight="400" text-anchor="start">planLid/tierIndex：云端按方案档位重算金额</text>
<text x="1418" y="974" font-size="12.5" fill="#374151" font-weight="400" text-anchor="start">orderId：POS 订单号 = dwd_bill.saasOrderKey</text>
<text x="1418" y="995" font-size="12.5" fill="#374151" font-weight="400" text-anchor="start">saveAmount：仅防篡改；giftAmount/giftPoints 不作为入账源</text>
<text x="1418" y="1016" font-size="12.5" fill="#374151" font-weight="400" text-anchor="start">payWay/payWayCode：支付描述/编码，主要用于备注</text>
<rect x="1848" y="836" width="8" height="203" rx="4" ry="4" fill="#fff7ed" stroke="#fff7ed" stroke-width="0"/>
<rect x="1900" y="820" width="390" height="235" rx="12" ry="12" fill="#ffffff" stroke="#c4b5fd" stroke-width="1.5"/>
<text x="1918" y="849" font-size="16" fill="#111827" font-weight="700" text-anchor="start">状态与恢复 DTO</text>
<text x="1918" y="872" font-size="12" fill="#6b7280" font-weight="400" text-anchor="start">query_charge_status、queryOrderPay、pollingClose、getDealingTask</text>
<line x1="1918" y1="886" x2="2272" y2="886" stroke="#e5e7eb" stroke-width="1"/>
<text x="1918" y="911" font-size="12.5" fill="#374151" font-weight="400" text-anchor="start">ChargeQueryStatus.taskLid：查询 CRM 充值任务状态</text>
<text x="1918" y="932" font-size="12.5" fill="#374151" font-weight="400" text-anchor="start">DepositPlanChargeMockSuccessDTO.taskLid：测试模拟成功</text>
<text x="1918" y="953" font-size="12.5" fill="#374151" font-weight="400" text-anchor="start">DwdBillOpsDTO.mid/sid/lid：查询本地账单支付/关闭</text>
<text x="1918" y="974" font-size="12.5" fill="#374151" font-weight="400" text-anchor="start">DwdBillOpDevDTO.sid/devId/orderOpType：恢复本设备未完成单</text>
<text x="1918" y="995" font-size="12.5" fill="#374151" font-weight="400" text-anchor="start">用途：支付后页面轮询、异常恢复、测试验证</text>
<rect x="2268" y="836" width="8" height="203" rx="4" ry="4" fill="#ede9fe" stroke="#ede9fe" stroke-width="0"/>
<text x="100" y="1125" font-size="18" fill="#111827" font-weight="700" text-anchor="start">核心字段流转</text>
<rect x="100" y="1150" width="2170" height="172" rx="14" ry="14" fill="#f8fafc" stroke="#cbd5e1" stroke-width="1.4"/>
<rect x="135" y="1180" width="365" height="105" rx="12" ry="12" fill="#ffffff" stroke="#93c5fd" stroke-width="1.8"/>
<rect x="135" y="1180" width="10" height="105" rx="12" ry="12" fill="#dbeafe" stroke="#dbeafe" stroke-width="0"/>
<text x="159" y="1210" font-size="16" fill="#111827" font-weight="700" text-anchor="start">POS 页面选择</text>
<text x="159" y="1235" font-size="12.5" fill="#6b7280" font-weight="400" text-anchor="start">DepositPlanChargeExDTO</text>
<text x="159" y="1262" font-size="13" fill="#374151" font-weight="400" text-anchor="start">cardNo + planLid + tierIndex</text>
<text x="159" y="1284" font-size="13" fill="#374151" font-weight="400" text-anchor="start">saveAmount / giftAmount / pays</text>
<rect x="560" y="1180" width="365" height="105" rx="12" ry="12" fill="#ffffff" stroke="#fed7aa" stroke-width="1.8"/>
<rect x="560" y="1180" width="10" height="105" rx="12" ry="12" fill="#fff7ed" stroke="#fff7ed" stroke-width="0"/>
<text x="584" y="1210" font-size="16" fill="#111827" font-weight="700" text-anchor="start">本地账单承载</text>
<text x="584" y="1235" font-size="12.5" fill="#6b7280" font-weight="400" text-anchor="start">dwd_bill / dwd_food / dwd_pay</text>
<text x="584" y="1262" font-size="13" fill="#374151" font-weight="400" text-anchor="start">depositPlanLid / depositTierIndex</text>
<text x="584" y="1284" font-size="13" fill="#374151" font-weight="400" text-anchor="start">lid 用于复用和轮询</text>
<rect x="985" y="1180" width="365" height="105" rx="12" ry="12" fill="#ffffff" stroke="#86efac" stroke-width="1.8"/>
<rect x="985" y="1180" width="10" height="105" rx="12" ry="12" fill="#dcfce7" stroke="#dcfce7" stroke-width="0"/>
<text x="1009" y="1210" font-size="16" fill="#111827" font-weight="700" text-anchor="start">支付成功收口</text>
<text x="1009" y="1235" font-size="12.5" fill="#6b7280" font-weight="400" text-anchor="start">CloseMpScHandler -&gt; checkOut</text>
<text x="1009" y="1262" font-size="13" fill="#374151" font-weight="400" text-anchor="start">组装 DepositPlanPosChargeDTO</text>
<text x="1009" y="1284" font-size="13" fill="#374151" font-weight="400" text-anchor="start">payWay/operator/comment</text>
<rect x="1410" y="1180" width="365" height="105" rx="12" ry="12" fill="#ffffff" stroke="#86efac" stroke-width="1.8"/>
<rect x="1410" y="1180" width="10" height="105" rx="12" ry="12" fill="#dcfce7" stroke="#dcfce7" stroke-width="0"/>
<text x="1434" y="1210" font-size="16" fill="#111827" font-weight="700" text-anchor="start">CRM 入账</text>
<text x="1434" y="1235" font-size="12.5" fill="#6b7280" font-weight="400" text-anchor="start">commitByPos</text>
<text x="1434" y="1262" font-size="13" fill="#374151" font-weight="400" text-anchor="start">orderId 幂等</text>
<text x="1434" y="1284" font-size="13" fill="#374151" font-weight="400" text-anchor="start">按方案档位主数据入账</text>
<rect x="1835" y="1180" width="365" height="105" rx="12" ry="12" fill="#ffffff" stroke="#c4b5fd" stroke-width="1.8"/>
<rect x="1835" y="1180" width="10" height="105" rx="12" ry="12" fill="#ede9fe" stroke="#ede9fe" stroke-width="0"/>
<text x="1859" y="1210" font-size="16" fill="#111827" font-weight="700" text-anchor="start">返回与回写</text>
<text x="1859" y="1235" font-size="12.5" fill="#6b7280" font-weight="400" text-anchor="start">CardBalanceVo / CheckOutVO</text>
<text x="1859" y="1262" font-size="13" fill="#374151" font-weight="400" text-anchor="start">余额、本金、赠送金、积分余额</text>
<text x="1859" y="1284" font-size="13" fill="#374151" font-weight="400" text-anchor="start">POS 更新 bill/food 展示口径</text>
<line x1="500" y1="1232" x2="560" y2="1232" stroke="#16a34a" stroke-width="2.2" marker-end="url(#arrow-green)"/>
<line x1="925" y1="1232" x2="985" y2="1232" stroke="#16a34a" stroke-width="2.2" marker-end="url(#arrow-green)"/>
<line x1="1350" y1="1232" x2="1410" y2="1232" stroke="#16a34a" stroke-width="2.2" marker-end="url(#arrow-green)"/>
<line x1="1775" y1="1232" x2="1835" y2="1232" stroke="#16a34a" stroke-width="2.2" marker-end="url(#arrow-green)"/>
<rect x="60" y="1435" width="2280" height="220" rx="16" ry="16" fill="#f8fafc" stroke="#cbd5e1" stroke-width="1.6" stroke-dasharray="8 6"/>
<text x="84" y="1473" font-size="22" fill="#111827" font-weight="700" text-anchor="start">重要判断</text>
<text x="84" y="1499" font-size="13" fill="#6b7280" font-weight="400" text-anchor="start">这些字段决定 API 的安全性、幂等性和金额口径</text>
<text x="100" y="1530" font-size="14" fill="#334155" font-weight="400" text-anchor="start">1. POS 同步入账真正调用的是 /deposit-plan/charge/commitByPos；/member_deposit_plan_ops/cardCharge 只是 POS 本地建单、收款和支付收口入口。</text>
<text x="100" y="1559" font-size="14" fill="#334155" font-weight="400" text-anchor="start">2. orderId = dwd_bill.saasOrderKey，并作为 CRM outTradeNo/幂等键；网络重试时应围绕这个字段判断是否重复入账。</text>
<text x="100" y="1588" font-size="14" fill="#334155" font-weight="400" text-anchor="start">3. saveAmount/giftAmount/giftPoints 虽由前端或 POS 传入，但 CRM 入账金额以 crm_deposit_plan 的档位配置为准，传入金额更多用于防篡改或展示参考。</text>
<text x="100" y="1617" font-size="14" fill="#334155" font-weight="400" text-anchor="start">4. 状态查询分两类：线上充值查 CRM taskLid；POS 收款查本地账单 lid 是否关闭，同时最终余额以 commitByPos 返回的 CardBalanceVo 为准。</text>
<text x="60" y="1684" font-size="12" fill="#94a3b8" font-weight="400" text-anchor="start">依据源码：DepositPlanChargeController、CrmDepositPlanController、MemberDepositPlanForBizController、DwdBillDepositPlanOpsForBizController、Nms4CloudCrmService、DepositPlanChargeUtil 及对应 DTO。</text>
</svg>
