<svg xmlns="http://www.w3.org/2000/svg" viewBox="0 0 2400 1700" width="2400" height="1700">
<style>text{font-family:'Helvetica Neue',Helvetica,Arial,'PingFang SC','Microsoft YaHei','Microsoft JhengHei','SimHei',sans-serif;letter-spacing:0}</style>
<defs>
<marker id="arrow-blue" markerWidth="12" markerHeight="8" refX="11" refY="4" orient="auto"><polygon points="0 0,12 4,0 8" fill="#2563eb"/></marker>
<marker id="arrow-green" markerWidth="12" markerHeight="8" refX="11" refY="4" orient="auto"><polygon points="0 0,12 4,0 8" fill="#16a34a"/></marker>
<marker id="arrow-red" markerWidth="12" markerHeight="8" refX="11" refY="4" orient="auto"><polygon points="0 0,12 4,0 8" fill="#dc2626"/></marker>
<marker id="arrow-purple" markerWidth="12" markerHeight="8" refX="11" refY="4" orient="auto"><polygon points="0 0,12 4,0 8" fill="#9333ea"/></marker>
</defs>
<rect width="2400" height="1700" fill="#ffffff"/>
<text x="70" y="68" fill="#111827" font-size="36" font-weight="900" text-anchor="start">储值方案充值：POS本地账单 + CRM云端入账表关系图</text><text x="70" y="106" fill="#4b5563" font-size="20" font-weight="400" text-anchor="start">补充本地账单表：POS本地结账落单，CRM入账成功后反写实际金额、余额快照和CRM任务号。</text><rect x="70" y="122" width="1105" height="38" rx="12" ry="12" fill="#fff7ed" stroke="#fed7aa" stroke-width="1.2"/><text x="92" y="148" fill="#9a3412" font-size="18" font-weight="850" text-anchor="start">命名提醒：你说的 dw_bill / dw_food，在源码里实际是 dwd_bill / dwd_food；支付明细表是 dwd_pay。</text><rect x="70" y="190" width="390" height="82" rx="16" ry="16" fill="#fff7ed" stroke="#fdba74" stroke-width="1.6"/><circle cx="108" cy="231" r="20" fill="#fff" stroke="#fdba74" stroke-width="1.5"/><text x="108" y="238" fill="#9a3412" font-size="20" font-weight="900" text-anchor="middle">1</text><text x="140" y="224" fill="#111827" font-size="19" font-weight="850" text-anchor="start">POS本地结账</text><text x="140" y="250" fill="#475569" font-size="14" font-weight="400" text-anchor="start">生成 dwd_bill / dwd_food / dwd_pay</text><rect x="515" y="190" width="390" height="82" rx="16" ry="16" fill="#eff6ff" stroke="#93c5fd" stroke-width="1.6"/><circle cx="553" cy="231" r="20" fill="#fff" stroke="#93c5fd" stroke-width="1.5"/><text x="553" y="238" fill="#1d4ed8" font-size="20" font-weight="900" text-anchor="middle">2</text><text x="585" y="224" fill="#111827" font-size="19" font-weight="850" text-anchor="start">组装DTO</text><text x="585" y="250" fill="#475569" font-size="14" font-weight="400" text-anchor="start">DepositPlanPosChargeDTO</text><rect x="960" y="190" width="390" height="82" rx="16" ry="16" fill="#f0fdf4" stroke="#86efac" stroke-width="1.6"/><circle cx="998" cy="231" r="20" fill="#fff" stroke="#86efac" stroke-width="1.5"/><text x="998" y="238" fill="#166534" font-size="20" font-weight="900" text-anchor="middle">3</text><text x="1030" y="224" fill="#111827" font-size="19" font-weight="850" text-anchor="start">CRM同步入账</text><text x="1030" y="250" fill="#475569" font-size="14" font-weight="400" text-anchor="start">commitByPos + CardBalanceService</text><rect x="1405" y="190" width="390" height="82" rx="16" ry="16" fill="#ecfdf5" stroke="#86efac" stroke-width="1.6"/><circle cx="1443" cy="231" r="20" fill="#fff" stroke="#86efac" stroke-width="1.5"/><text x="1443" y="238" fill="#166534" font-size="20" font-weight="900" text-anchor="middle">4</text><text x="1475" y="224" fill="#111827" font-size="19" font-weight="850" text-anchor="start">CRM返回口径</text><text x="1475" y="250" fill="#475569" font-size="14" font-weight="400" text-anchor="start">CardBalanceVO</text><rect x="1850" y="190" width="390" height="82" rx="16" ry="16" fill="#f0fdf4" stroke="#86efac" stroke-width="1.6"/><circle cx="1888" cy="231" r="20" fill="#fff" stroke="#86efac" stroke-width="1.5"/><text x="1888" y="238" fill="#166534" font-size="20" font-weight="900" text-anchor="middle">5</text><text x="1920" y="224" fill="#111827" font-size="19" font-weight="850" text-anchor="start">POS本地反写</text><text x="1920" y="250" fill="#475569" font-size="14" font-weight="400" text-anchor="start">updateBill / updateFood</text><line x1="460" y1="231" x2="515" y2="231" stroke="#2563eb" stroke-width="3" fill="none" marker-end="url(#arrow-blue)"/><line x1="905" y1="231" x2="960" y2="231" stroke="#2563eb" stroke-width="3" fill="none" marker-end="url(#arrow-blue)"/><line x1="1350" y1="231" x2="1405" y2="231" stroke="#2563eb" stroke-width="3" fill="none" marker-end="url(#arrow-blue)"/><line x1="1795" y1="231" x2="1850" y2="231" stroke="#2563eb" stroke-width="3" fill="none" marker-end="url(#arrow-blue)"/><rect x="50" y="315" width="650" height="1035" rx="20" ry="20" fill="#fff7ed" stroke="#fdba74" stroke-width="1.6"/><text x="85" y="355" fill="#9a3412" font-size="25" font-weight="900" text-anchor="start">POS 本地账单库</text><text x="85" y="382" fill="#9a3412" font-size="16" font-weight="400" text-anchor="start">本地单据展示、报表和后续撤销关联</text><rect x="750" y="315" width="500" height="1035" rx="20" ry="20" fill="#eff6ff" stroke="#93c5fd" stroke-width="1.6"/><text x="785" y="355" fill="#1d4ed8" font-size="25" font-weight="900" text-anchor="start">请求映射 / 返回值</text><text x="785" y="382" fill="#1d4ed8" font-size="16" font-weight="400" text-anchor="start">跨库字段对应关系集中在这里</text><rect x="1310" y="315" width="1040" height="1035" rx="20" ry="20" fill="#f0fdf4" stroke="#86efac" stroke-width="1.6"/><text x="1345" y="355" fill="#166534" font-size="25" font-weight="900" text-anchor="start">CRM 云端入账与权益表</text><text x="1345" y="382" fill="#166534" font-size="16" font-weight="400" text-anchor="start">最终本金、赠送、积分、余额、券和方案销量</text><rect x="90" y="410" width="570" height="347" rx="14" ry="14" fill="#fff" stroke="#dc2626" stroke-width="2.1"/><rect x="90" y="410" width="570" height="64" rx="14" ry="14" fill="#fff7ed" stroke="#fdba74" stroke-width="0"/><rect x="90" y="460" width="570" height="14" fill="#fff7ed"/><ellipse cx="122" cy="437" rx="20" ry="7" fill="#fff7ed" stroke="#fdba74" stroke-width="1.3"/><path d="M 102 437 v 22 c 0 4 9 7 20 7 s 20-3 20-7 v -22" fill="#fff7ed" stroke="#fdba74" stroke-width="1.3"/><ellipse cx="122" cy="459" rx="20" ry="7" fill="#fff7ed" stroke="#fdba74" stroke-width="1.3"/><text x="156" y="440" fill="#111827" font-size="23" font-weight="850" text-anchor="start">dwd_bill</text><text x="156" y="464" fill="#6b7280" font-size="15" font-weight="400" text-anchor="start">POS本地账单主表</text><rect x="564" y="427" width="82" height="28" rx="14" ry="14" fill="#fff7ed" stroke="#fed7aa" stroke-width="1"/><text x="605.0" y="446" fill="#9a3412" font-size="14" font-weight="800" text-anchor="middle">重要更新表</text><rect x="104" y="478" width="542" height="26" rx="7" ry="7" fill="#fef2f2" stroke="#eef2f7" stroke-width="0.4"/><text x="115" y="499" fill="#991b1b" font-size="13" font-weight="850" text-anchor="start">lid</text><text x="325" y="499" fill="#4b5563" font-size="13" font-weight="400" text-anchor="start">本地账单ID；dwd_food.saas_order_no</text><rect x="104" y="507" width="542" height="26" rx="7" ry="7" fill="#fef2f2" stroke="#eef2f7" stroke-width="0.4"/><text x="115" y="528" fill="#991b1b" font-size="13" font-weight="850" text-anchor="start">saas_order_key</text><text x="325" y="528" fill="#4b5563" font-size="13" font-weight="400" text-anchor="start">POS订单号；DTO.orderId / crm_deal_task.out_trade_no</text><rect x="104" y="536" width="542" height="26" rx="7" ry="7" fill="#eff6ff" stroke="#eef2f7" stroke-width="0.4"/><text x="115" y="557" fill="#1d4ed8" font-size="13" font-weight="850" text-anchor="start">deposit_plan_lid</text><text x="325" y="557" fill="#4b5563" font-size="13" font-weight="400" text-anchor="start">储值方案ID；DTO.planLid</text><rect x="104" y="565" width="542" height="26" rx="7" ry="7" fill="#eff6ff" stroke="#eef2f7" stroke-width="0.4"/><text x="115" y="586" fill="#1d4ed8" font-size="13" font-weight="850" text-anchor="start">deposit_tier_index</text><text x="325" y="586" fill="#4b5563" font-size="13" font-weight="400" text-anchor="start">档位索引；DTO.tierIndex</text><rect x="104" y="594" width="542" height="26" rx="7" ry="7" fill="#eff6ff" stroke="#eef2f7" stroke-width="0.4"/><text x="115" y="615" fill="#1d4ed8" font-size="13" font-weight="850" text-anchor="start">card_no</text><text x="325" y="615" fill="#4b5563" font-size="13" font-weight="400" text-anchor="start">会员卡号；DTO.cardNo</text><rect x="104" y="623" width="542" height="26" rx="7" ry="7" fill="#f0fdf4" stroke="#eef2f7" stroke-width="0.4"/><text x="115" y="644" fill="#166534" font-size="13" font-weight="850" text-anchor="start">paid_amount/send_amount</text><text x="325" y="644" fill="#4b5563" font-size="13" font-weight="400" text-anchor="start">本地暂存；CRM成功后重写</text><rect x="104" y="652" width="542" height="26" rx="7" ry="7" fill="#f0fdf4" stroke="#eef2f7" stroke-width="0.4"/><text x="115" y="673" fill="#166534" font-size="13" font-weight="850" text-anchor="start">food_amount/balance</text><text x="325" y="673" fill="#4b5563" font-size="13" font-weight="400" text-anchor="start">成功后 = actualSave + actualGift</text><rect x="104" y="681" width="542" height="26" rx="7" ry="7" fill="#f0fdf4" stroke="#eef2f7" stroke-width="0.4"/><text x="115" y="702" fill="#166534" font-size="13" font-weight="850" text-anchor="start">card_*_after/points</text><text x="325" y="702" fill="#4b5563" font-size="13" font-weight="400" text-anchor="start">CRM返回余额和积分快照</text><rect x="104" y="710" width="542" height="26" rx="7" ry="7" fill="#fef2f2" stroke="#eef2f7" stroke-width="0.4"/><text x="115" y="731" fill="#991b1b" font-size="13" font-weight="850" text-anchor="start">card_task_lid</text><text x="325" y="731" fill="#4b5563" font-size="13" font-weight="400" text-anchor="start">CRM任务号；CardBalanceVO.outTranNo</text><rect x="90" y="815" width="570" height="260" rx="14" ry="14" fill="#fff" stroke="#dc2626" stroke-width="2.1"/><rect x="90" y="815" width="570" height="64" rx="14" ry="14" fill="#fffbeb" stroke="#fde68a" stroke-width="0"/><rect x="90" y="865" width="570" height="14" fill="#fffbeb"/><ellipse cx="122" cy="842" rx="20" ry="7" fill="#fffbeb" stroke="#fde68a" stroke-width="1.3"/><path d="M 102 842 v 22 c 0 4 9 7 20 7 s 20-3 20-7 v -22" fill="#fffbeb" stroke="#fde68a" stroke-width="1.3"/><ellipse cx="122" cy="864" rx="20" ry="7" fill="#fffbeb" stroke="#fde68a" stroke-width="1.3"/><text x="156" y="845" fill="#111827" font-size="23" font-weight="850" text-anchor="start">dwd_food</text><text x="156" y="869" fill="#6b7280" font-size="15" font-weight="400" text-anchor="start">POS本地菜品/储值明细</text><rect x="564" y="832" width="82" height="28" rx="14" ry="14" fill="#fff7ed" stroke="#fed7aa" stroke-width="1"/><text x="605.0" y="851" fill="#9a3412" font-size="14" font-weight="800" text-anchor="middle">重要更新表</text><rect x="104" y="883" width="542" height="26" rx="7" ry="7" fill="#fef2f2" stroke="#eef2f7" stroke-width="0.4"/><text x="115" y="904" fill="#991b1b" font-size="13" font-weight="850" text-anchor="start">saas_order_no</text><text x="325" y="904" fill="#4b5563" font-size="13" font-weight="400" text-anchor="start">= dwd_bill.lid；updateFood条件</text><rect x="104" y="912" width="542" height="26" rx="7" ry="7" fill="#eff6ff" stroke="#eef2f7" stroke-width="0.4"/><text x="115" y="933" fill="#1d4ed8" font-size="13" font-weight="850" text-anchor="start">saas_order_key</text><text x="325" y="933" fill="#4b5563" font-size="13" font-weight="400" text-anchor="start">同一POS订单号，保留上传/报表关系</text><rect x="104" y="941" width="542" height="26" rx="7" ry="7" fill="#f0fdf4" stroke="#eef2f7" stroke-width="0.4"/><text x="115" y="962" fill="#166534" font-size="13" font-weight="850" text-anchor="start">paid/send/food_amount</text><text x="325" y="962" fill="#4b5563" font-size="13" font-weight="400" text-anchor="start">按 actualSave / actualGift / total 重写</text><rect x="104" y="970" width="542" height="26" rx="7" ry="7" fill="#f0fdf4" stroke="#eef2f7" stroke-width="0.4"/><text x="115" y="991" fill="#166534" font-size="13" font-weight="850" text-anchor="start">food_org/pro_price</text><text x="325" y="991" fill="#4b5563" font-size="13" font-weight="400" text-anchor="start">= actualTotal</text><rect x="104" y="999" width="542" height="26" rx="7" ry="7" fill="#f0fdf4" stroke="#eef2f7" stroke-width="0.4"/><text x="115" y="1020" fill="#166534" font-size="13" font-weight="850" text-anchor="start">discount/promotion</text><text x="325" y="1020" fill="#4b5563" font-size="13" font-weight="400" text-anchor="start">= -actualGift</text><rect x="104" y="1028" width="542" height="26" rx="7" ry="7" fill="#f9fafb" stroke="#eef2f7" stroke-width="0.4"/><text x="115" y="1049" fill="#374151" font-size="13" font-weight="650" text-anchor="start">单据形态</text><text x="325" y="1049" fill="#4b5563" font-size="13" font-weight="400" text-anchor="start">当前储值方案单据按整单一行覆盖</text><rect x="90" y="1105" width="570" height="202" rx="14" ry="14" fill="#fff" stroke="#fecaca" stroke-width="1.5"/><rect x="90" y="1105" width="570" height="64" rx="14" ry="14" fill="#fef2f2" stroke="#fecaca" stroke-width="0"/><rect x="90" y="1155" width="570" height="14" fill="#fef2f2"/><ellipse cx="122" cy="1132" rx="20" ry="7" fill="#fef2f2" stroke="#fecaca" stroke-width="1.3"/><path d="M 102 1132 v 22 c 0 4 9 7 20 7 s 20-3 20-7 v -22" fill="#fef2f2" stroke="#fecaca" stroke-width="1.3"/><ellipse cx="122" cy="1154" rx="20" ry="7" fill="#fef2f2" stroke="#fecaca" stroke-width="1.3"/><text x="156" y="1135" fill="#111827" font-size="23" font-weight="850" text-anchor="start">dwd_pay</text><text x="156" y="1159" fill="#6b7280" font-size="15" font-weight="400" text-anchor="start">POS本地支付明细</text><rect x="564" y="1122" width="82" height="28" rx="14" ry="14" fill="#fff7ed" stroke="#fed7aa" stroke-width="1"/><text x="605.0" y="1141" fill="#9a3412" font-size="14" font-weight="800" text-anchor="middle">读取表</text><rect x="104" y="1173" width="542" height="26" rx="7" ry="7" fill="#eff6ff" stroke="#eef2f7" stroke-width="0.4"/><text x="115" y="1194" fill="#1d4ed8" font-size="13" font-weight="850" text-anchor="start">saas_order_no/key</text><text x="325" y="1194" fill="#4b5563" font-size="13" font-weight="400" text-anchor="start">关联本地账单</text><rect x="104" y="1202" width="542" height="26" rx="7" ry="7" fill="#eff6ff" stroke="#eef2f7" stroke-width="0.4"/><text x="115" y="1223" fill="#1d4ed8" font-size="13" font-weight="850" text-anchor="start">name/amount</text><text x="325" y="1223" fill="#4b5563" font-size="13" font-weight="400" text-anchor="start">拼接 name:amount</text><rect x="104" y="1231" width="542" height="26" rx="7" ry="7" fill="#fef2f2" stroke="#eef2f7" stroke-width="0.4"/><text x="115" y="1252" fill="#991b1b" font-size="13" font-weight="850" text-anchor="start">payWayDesc</text><text x="325" y="1252" fill="#4b5563" font-size="13" font-weight="400" text-anchor="start">DTO.payWay / crm_deal_task.pay_way</text><rect x="104" y="1260" width="542" height="26" rx="7" ry="7" fill="#f9fafb" stroke="#eef2f7" stroke-width="0.4"/><text x="115" y="1281" fill="#374151" font-size="13" font-weight="650" text-anchor="start">定位</text><text x="325" y="1281" fill="#4b5563" font-size="13" font-weight="400" text-anchor="start">只提供支付描述，不决定入账金额</text><rect x="790" y="410" width="420" height="289" rx="14" ry="14" fill="#fff" stroke="#bfdbfe" stroke-width="1.5"/><rect x="790" y="410" width="420" height="64" rx="14" ry="14" fill="#eff6ff" stroke="#bfdbfe" stroke-width="0"/><rect x="790" y="460" width="420" height="14" fill="#eff6ff"/><ellipse cx="822" cy="437" rx="20" ry="7" fill="#eff6ff" stroke="#bfdbfe" stroke-width="1.3"/><path d="M 802 437 v 22 c 0 4 9 7 20 7 s 20-3 20-7 v -22" fill="#eff6ff" stroke="#bfdbfe" stroke-width="1.3"/><ellipse cx="822" cy="459" rx="20" ry="7" fill="#eff6ff" stroke="#bfdbfe" stroke-width="1.3"/><text x="856" y="440" fill="#111827" font-size="23" font-weight="850" text-anchor="start">DepositPlanPosChargeDTO</text><text x="856" y="464" fill="#6b7280" font-size="15" font-weight="400" text-anchor="start">POS -&gt; CRM 请求体</text><rect x="1114" y="427" width="82" height="28" rx="14" ry="14" fill="#fff7ed" stroke="#fed7aa" stroke-width="1"/><text x="1155.0" y="446" fill="#9a3412" font-size="14" font-weight="800" text-anchor="middle">关键映射</text><rect x="804" y="478" width="392" height="26" rx="7" ry="7" fill="#fef2f2" stroke="#eef2f7" stroke-width="0.4"/><text x="815" y="499" fill="#991b1b" font-size="13" font-weight="850" text-anchor="start">orderId</text><text x="965" y="499" fill="#4b5563" font-size="13" font-weight="400" text-anchor="start">= dwd_bill.saas_order_key</text><rect x="804" y="507" width="392" height="26" rx="7" ry="7" fill="#eff6ff" stroke="#eef2f7" stroke-width="0.4"/><text x="815" y="528" fill="#1d4ed8" font-size="13" font-weight="850" text-anchor="start">cardNo</text><text x="965" y="528" fill="#4b5563" font-size="13" font-weight="400" text-anchor="start">= dwd_bill.card_no</text><rect x="804" y="536" width="392" height="26" rx="7" ry="7" fill="#eff6ff" stroke="#eef2f7" stroke-width="0.4"/><text x="815" y="557" fill="#1d4ed8" font-size="13" font-weight="850" text-anchor="start">planLid</text><text x="965" y="557" fill="#4b5563" font-size="13" font-weight="400" text-anchor="start">= dwd_bill.deposit_plan_lid</text><rect x="804" y="565" width="392" height="26" rx="7" ry="7" fill="#eff6ff" stroke="#eef2f7" stroke-width="0.4"/><text x="815" y="586" fill="#1d4ed8" font-size="13" font-weight="850" text-anchor="start">tierIndex</text><text x="965" y="586" fill="#4b5563" font-size="13" font-weight="400" text-anchor="start">= dwd_bill.deposit_tier_index</text><rect x="804" y="594" width="392" height="26" rx="7" ry="7" fill="#eff6ff" stroke="#eef2f7" stroke-width="0.4"/><text x="815" y="615" fill="#1d4ed8" font-size="13" font-weight="850" text-anchor="start">saveAmount</text><text x="965" y="615" fill="#4b5563" font-size="13" font-weight="400" text-anchor="start">= dwd_bill.paid_amount；校验/参考</text><rect x="804" y="623" width="392" height="26" rx="7" ry="7" fill="#eff6ff" stroke="#eef2f7" stroke-width="0.4"/><text x="815" y="644" fill="#1d4ed8" font-size="13" font-weight="850" text-anchor="start">giftAmount</text><text x="965" y="644" fill="#4b5563" font-size="13" font-weight="400" text-anchor="start">= dwd_bill.send_amount；参考</text><rect x="804" y="652" width="392" height="26" rx="7" ry="7" fill="#fef2f2" stroke="#eef2f7" stroke-width="0.4"/><text x="815" y="673" fill="#991b1b" font-size="13" font-weight="850" text-anchor="start">payWay</text><text x="965" y="673" fill="#4b5563" font-size="13" font-weight="400" text-anchor="start">= dwd_pay.name:amount</text><rect x="790" y="745" width="420" height="231" rx="14" ry="14" fill="#fff" stroke="#dc2626" stroke-width="2.1"/><rect x="790" y="745" width="420" height="64" rx="14" ry="14" fill="#f0fdf4" stroke="#86efac" stroke-width="0"/><rect x="790" y="795" width="420" height="14" fill="#f0fdf4"/><ellipse cx="822" cy="772" rx="20" ry="7" fill="#f0fdf4" stroke="#86efac" stroke-width="1.3"/><path d="M 802 772 v 22 c 0 4 9 7 20 7 s 20-3 20-7 v -22" fill="#f0fdf4" stroke="#86efac" stroke-width="1.3"/><ellipse cx="822" cy="794" rx="20" ry="7" fill="#f0fdf4" stroke="#86efac" stroke-width="1.3"/><text x="856" y="775" fill="#111827" font-size="23" font-weight="850" text-anchor="start">CardBalanceVO</text><text x="856" y="799" fill="#6b7280" font-size="15" font-weight="400" text-anchor="start">CRM成功返回，POS反写依据</text><rect x="1114" y="762" width="82" height="28" rx="14" ry="14" fill="#fff7ed" stroke="#fed7aa" stroke-width="1"/><text x="1155.0" y="781" fill="#9a3412" font-size="14" font-weight="800" text-anchor="middle">返回口径</text><rect x="804" y="813" width="392" height="26" rx="7" ry="7" fill="#fef2f2" stroke="#eef2f7" stroke-width="0.4"/><text x="815" y="834" fill="#991b1b" font-size="13" font-weight="850" text-anchor="start">outTranNo</text><text x="965" y="834" fill="#4b5563" font-size="13" font-weight="400" text-anchor="start">= crm_deal_task.lid；反写 card_task_lid</text><rect x="804" y="842" width="392" height="26" rx="7" ry="7" fill="#f0fdf4" stroke="#eef2f7" stroke-width="0.4"/><text x="815" y="863" fill="#166534" font-size="13" font-weight="850" text-anchor="start">principalAmount</text><text x="965" y="863" fill="#4b5563" font-size="13" font-weight="400" text-anchor="start">CRM确认本金 actualSave</text><rect x="804" y="871" width="392" height="26" rx="7" ry="7" fill="#f0fdf4" stroke="#eef2f7" stroke-width="0.4"/><text x="815" y="892" fill="#166534" font-size="13" font-weight="850" text-anchor="start">giveAmount</text><text x="965" y="892" fill="#4b5563" font-size="13" font-weight="400" text-anchor="start">CRM确认赠送 actualGift</text><rect x="804" y="900" width="392" height="26" rx="7" ry="7" fill="#f0fdf4" stroke="#eef2f7" stroke-width="0.4"/><text x="815" y="921" fill="#166534" font-size="13" font-weight="850" text-anchor="start">balance/principal/give</text><text x="965" y="921" fill="#4b5563" font-size="13" font-weight="400" text-anchor="start">充值后卡余额快照</text><rect x="804" y="929" width="392" height="26" rx="7" ry="7" fill="#f0fdf4" stroke="#eef2f7" stroke-width="0.4"/><text x="815" y="950" fill="#166534" font-size="13" font-weight="850" text-anchor="start">pointsBalance</text><text x="965" y="950" fill="#4b5563" font-size="13" font-weight="400" text-anchor="start">充值后积分快照</text><rect x="790" y="1035" width="420" height="245" rx="14" ry="14" fill="#ffffff" stroke="#cbd5e1" stroke-width="1.5"/><text x="815" y="1075" fill="#0f172a" font-size="22" font-weight="900" text-anchor="start">跨库关键等式</text><text x="815" y="1112" fill="#991b1b" font-size="15" font-weight="850" text-anchor="start">① 幂等订单号</text><text x="815" y="1135" fill="#374151" font-size="14" font-weight="400" text-anchor="start">dwd_bill.saas_order_key = DTO.orderId = crm_deal_task.out_trade_no</text><text x="815" y="1157" fill="#991b1b" font-size="15" font-weight="850" text-anchor="start">② 本地明细关联</text><text x="815" y="1180" fill="#374151" font-size="14" font-weight="400" text-anchor="start">dwd_food.saas_order_no = dwd_bill.lid</text><text x="815" y="1202" fill="#991b1b" font-size="15" font-weight="850" text-anchor="start">③ 撤销关联号</text><text x="815" y="1225" fill="#374151" font-size="14" font-weight="400" text-anchor="start">dwd_bill.card_task_lid = CardBalanceVO.outTranNo = crm_deal_task.lid</text><text x="815" y="1247" fill="#991b1b" font-size="15" font-weight="850" text-anchor="start">④ 支付描述</text><text x="815" y="1270" fill="#374151" font-size="14" font-weight="400" text-anchor="start">dwd_pay.name:amount -&gt; DTO.payWay -&gt; crm_deal_task.pay_way</text><text x="815" y="1292" fill="#991b1b" font-size="15" font-weight="850" text-anchor="start">⑤ 金额口径</text><text x="815" y="1315" fill="#374151" font-size="14" font-weight="400" text-anchor="start">CRM档位金额 -&gt; CardBalanceVO -&gt; dwd_bill / dwd_food</text><rect x="1345" y="410" width="430" height="202" rx="14" ry="14" fill="#fff" stroke="#86efac" stroke-width="1.5"/><rect x="1345" y="410" width="430" height="64" rx="14" ry="14" fill="#dcfce7" stroke="#86efac" stroke-width="0"/><rect x="1345" y="460" width="430" height="14" fill="#dcfce7"/><ellipse cx="1377" cy="437" rx="20" ry="7" fill="#dcfce7" stroke="#86efac" stroke-width="1.3"/><path d="M 1357 437 v 22 c 0 4 9 7 20 7 s 20-3 20-7 v -22" fill="#dcfce7" stroke="#86efac" stroke-width="1.3"/><ellipse cx="1377" cy="459" rx="20" ry="7" fill="#dcfce7" stroke="#86efac" stroke-width="1.3"/><text x="1411" y="440" fill="#111827" font-size="23" font-weight="850" text-anchor="start">crm_deposit_plan</text><text x="1411" y="464" fill="#6b7280" font-size="15" font-weight="400" text-anchor="start">储值方案配置与销量</text><rect x="1679" y="427" width="82" height="28" rx="14" ry="14" fill="#fff7ed" stroke="#fed7aa" stroke-width="1"/><text x="1720.0" y="446" fill="#9a3412" font-size="14" font-weight="800" text-anchor="middle">配置源</text><rect x="1359" y="478" width="402" height="26" rx="7" ry="7" fill="#fef2f2" stroke="#eef2f7" stroke-width="0.4"/><text x="1370" y="499" fill="#991b1b" font-size="13" font-weight="850" text-anchor="start">lid</text><text x="1530" y="499" fill="#4b5563" font-size="13" font-weight="400" text-anchor="start">方案ID；匹配 DTO.planLid</text><rect x="1359" y="507" width="402" height="26" rx="7" ry="7" fill="#eff6ff" stroke="#eef2f7" stroke-width="0.4"/><text x="1370" y="528" fill="#1d4ed8" font-size="13" font-weight="850" text-anchor="start">tier_rule</text><text x="1530" y="528" fill="#4b5563" font-size="13" font-weight="400" text-anchor="start">档位金额/积分/赠券配置</text><rect x="1359" y="536" width="402" height="26" rx="7" ry="7" fill="#eff6ff" stroke="#eef2f7" stroke-width="0.4"/><text x="1370" y="557" fill="#1d4ed8" font-size="13" font-weight="850" text-anchor="start">status</text><text x="1530" y="557" fill="#4b5563" font-size="13" font-weight="400" text-anchor="start">启用才允许充值</text><rect x="1359" y="565" width="402" height="26" rx="7" ry="7" fill="#f0fdf4" stroke="#eef2f7" stroke-width="0.4"/><text x="1370" y="586" fill="#166534" font-size="13" font-weight="850" text-anchor="start">total_sold_*</text><text x="1530" y="586" fill="#4b5563" font-size="13" font-weight="400" text-anchor="start">成功后累计销量/金额</text><rect x="1845" y="410" width="455" height="260" rx="14" ry="14" fill="#fff" stroke="#dc2626" stroke-width="2.1"/><rect x="1845" y="410" width="455" height="64" rx="14" ry="14" fill="#f0fdf4" stroke="#86efac" stroke-width="0"/><rect x="1845" y="460" width="455" height="14" fill="#f0fdf4"/><ellipse cx="1877" cy="437" rx="20" ry="7" fill="#f0fdf4" stroke="#86efac" stroke-width="1.3"/><path d="M 1857 437 v 22 c 0 4 9 7 20 7 s 20-3 20-7 v -22" fill="#f0fdf4" stroke="#86efac" stroke-width="1.3"/><ellipse cx="1877" cy="459" rx="20" ry="7" fill="#f0fdf4" stroke="#86efac" stroke-width="1.3"/><text x="1911" y="440" fill="#111827" font-size="23" font-weight="850" text-anchor="start">crm_deal_task</text><text x="1911" y="464" fill="#6b7280" font-size="15" font-weight="400" text-anchor="start">CRM交易主单</text><rect x="2204" y="427" width="82" height="28" rx="14" ry="14" fill="#fff7ed" stroke="#fed7aa" stroke-width="1"/><text x="2245.0" y="446" fill="#9a3412" font-size="14" font-weight="800" text-anchor="middle">核心入账表</text><rect x="1859" y="478" width="427" height="26" rx="7" ry="7" fill="#fef2f2" stroke="#eef2f7" stroke-width="0.4"/><text x="1870" y="499" fill="#991b1b" font-size="13" font-weight="850" text-anchor="start">lid</text><text x="2035" y="499" fill="#4b5563" font-size="13" font-weight="400" text-anchor="start">CRM任务号；返回POS</text><rect x="1859" y="507" width="427" height="26" rx="7" ry="7" fill="#fef2f2" stroke="#eef2f7" stroke-width="0.4"/><text x="1870" y="528" fill="#991b1b" font-size="13" font-weight="850" text-anchor="start">out_trade_no</text><text x="2035" y="528" fill="#4b5563" font-size="13" font-weight="400" text-anchor="start">= DTO.orderId</text><rect x="1859" y="536" width="427" height="26" rx="7" ry="7" fill="#f0fdf4" stroke="#eef2f7" stroke-width="0.4"/><text x="1870" y="557" fill="#166534" font-size="13" font-weight="850" text-anchor="start">principal/give/point</text><text x="2035" y="557" fill="#4b5563" font-size="13" font-weight="400" text-anchor="start">档位确认本金/赠送/积分</text><rect x="1859" y="565" width="427" height="26" rx="7" ry="7" fill="#fef2f2" stroke="#eef2f7" stroke-width="0.4"/><text x="1870" y="586" fill="#991b1b" font-size="13" font-weight="850" text-anchor="start">save_rule_code</text><text x="2035" y="586" fill="#4b5563" font-size="13" font-weight="400" text-anchor="start">= crm_deposit_plan.lid</text><rect x="1859" y="594" width="427" height="26" rx="7" ry="7" fill="#f0fdf4" stroke="#eef2f7" stroke-width="0.4"/><text x="1870" y="615" fill="#166534" font-size="13" font-weight="850" text-anchor="start">pay_way</text><text x="2035" y="615" fill="#4b5563" font-size="13" font-weight="400" text-anchor="start">= POS dwd_pay描述</text><rect x="1859" y="623" width="427" height="26" rx="7" ry="7" fill="#f0fdf4" stroke="#eef2f7" stroke-width="0.4"/><text x="1870" y="644" fill="#166534" font-size="13" font-weight="850" text-anchor="start">trade_state</text><text x="2035" y="644" fill="#4b5563" font-size="13" font-weight="400" text-anchor="start">USERPAYING -&gt; SUCCESS</text><rect x="1345" y="680" width="430" height="202" rx="14" ry="14" fill="#fff" stroke="#a7f3d0" stroke-width="1.5"/><rect x="1345" y="680" width="430" height="64" rx="14" ry="14" fill="#ecfdf5" stroke="#a7f3d0" stroke-width="0"/><rect x="1345" y="730" width="430" height="14" fill="#ecfdf5"/><ellipse cx="1377" cy="707" rx="20" ry="7" fill="#ecfdf5" stroke="#a7f3d0" stroke-width="1.3"/><path d="M 1357 707 v 22 c 0 4 9 7 20 7 s 20-3 20-7 v -22" fill="#ecfdf5" stroke="#a7f3d0" stroke-width="1.3"/><ellipse cx="1377" cy="729" rx="20" ry="7" fill="#ecfdf5" stroke="#a7f3d0" stroke-width="1.3"/><text x="1411" y="710" fill="#111827" font-size="23" font-weight="850" text-anchor="start">crm_deal_task_item</text><text x="1411" y="734" fill="#6b7280" font-size="15" font-weight="400" text-anchor="start">CRM交易明细</text><rect x="1679" y="697" width="82" height="28" rx="14" ry="14" fill="#fff7ed" stroke="#fed7aa" stroke-width="1"/><text x="1720.0" y="716" fill="#9a3412" font-size="14" font-weight="800" text-anchor="middle">入账明细</text><rect x="1359" y="748" width="402" height="26" rx="7" ry="7" fill="#fef2f2" stroke="#eef2f7" stroke-width="0.4"/><text x="1370" y="769" fill="#991b1b" font-size="13" font-weight="850" text-anchor="start">task_lid</text><text x="1530" y="769" fill="#4b5563" font-size="13" font-weight="400" text-anchor="start">= crm_deal_task.lid</text><rect x="1359" y="777" width="402" height="26" rx="7" ry="7" fill="#f0fdf4" stroke="#eef2f7" stroke-width="0.4"/><text x="1370" y="798" fill="#166534" font-size="13" font-weight="850" text-anchor="start">amount</text><text x="1530" y="798" fill="#4b5563" font-size="13" font-weight="400" text-anchor="start">= principal + give</text><rect x="1359" y="806" width="402" height="26" rx="7" ry="7" fill="#f0fdf4" stroke="#eef2f7" stroke-width="0.4"/><text x="1370" y="827" fill="#166534" font-size="13" font-weight="850" text-anchor="start">give_point</text><text x="1530" y="827" fill="#4b5563" font-size="13" font-weight="400" text-anchor="start">档位积分</text><rect x="1359" y="835" width="402" height="26" rx="7" ry="7" fill="#fef2f2" stroke="#eef2f7" stroke-width="0.4"/><text x="1370" y="856" fill="#991b1b" font-size="13" font-weight="850" text-anchor="start">save_rule_code</text><text x="1530" y="856" fill="#4b5563" font-size="13" font-weight="400" text-anchor="start">= plan.lid</text><rect x="1845" y="680" width="455" height="231" rx="14" ry="14" fill="#fff" stroke="#c4b5fd" stroke-width="1.5"/><rect x="1845" y="680" width="455" height="64" rx="14" ry="14" fill="#ede9fe" stroke="#c4b5fd" stroke-width="0"/><rect x="1845" y="730" width="455" height="14" fill="#ede9fe"/><ellipse cx="1877" cy="707" rx="20" ry="7" fill="#ede9fe" stroke="#c4b5fd" stroke-width="1.3"/><path d="M 1857 707 v 22 c 0 4 9 7 20 7 s 20-3 20-7 v -22" fill="#ede9fe" stroke="#c4b5fd" stroke-width="1.3"/><ellipse cx="1877" cy="729" rx="20" ry="7" fill="#ede9fe" stroke="#c4b5fd" stroke-width="1.3"/><text x="1911" y="710" fill="#111827" font-size="23" font-weight="850" text-anchor="start">crm_deposit_charge_record</text><text x="1911" y="734" fill="#6b7280" font-size="15" font-weight="400" text-anchor="start">储值购买记录</text><rect x="2204" y="697" width="82" height="28" rx="14" ry="14" fill="#fff7ed" stroke="#fed7aa" stroke-width="1"/><text x="2245.0" y="716" fill="#9a3412" font-size="14" font-weight="800" text-anchor="middle">方案快照</text><rect x="1859" y="748" width="427" height="26" rx="7" ry="7" fill="#fef2f2" stroke="#eef2f7" stroke-width="0.4"/><text x="1870" y="769" fill="#991b1b" font-size="13" font-weight="850" text-anchor="start">task_lid</text><text x="2035" y="769" fill="#4b5563" font-size="13" font-weight="400" text-anchor="start">= crm_deal_task.lid</text><rect x="1859" y="777" width="427" height="26" rx="7" ry="7" fill="#fef2f2" stroke="#eef2f7" stroke-width="0.4"/><text x="1870" y="798" fill="#991b1b" font-size="13" font-weight="850" text-anchor="start">plan_lid/tier_index</text><text x="2035" y="798" fill="#4b5563" font-size="13" font-weight="400" text-anchor="start">方案与档位定位</text><rect x="1859" y="806" width="427" height="26" rx="7" ry="7" fill="#f0fdf4" stroke="#eef2f7" stroke-width="0.4"/><text x="1870" y="827" fill="#166534" font-size="13" font-weight="850" text-anchor="start">save/gift/points</text><text x="2035" y="827" fill="#4b5563" font-size="13" font-weight="400" text-anchor="start">档位金额和积分快照</text><rect x="1859" y="835" width="427" height="26" rx="7" ry="7" fill="#f0fdf4" stroke="#eef2f7" stroke-width="0.4"/><text x="1870" y="856" fill="#166534" font-size="13" font-weight="850" text-anchor="start">tier_snapshot</text><text x="2035" y="856" fill="#4b5563" font-size="13" font-weight="400" text-anchor="start">周期发券使用的档位JSON</text><rect x="1859" y="864" width="427" height="26" rx="7" ry="7" fill="#f0fdf4" stroke="#eef2f7" stroke-width="0.4"/><text x="1870" y="885" fill="#166534" font-size="13" font-weight="850" text-anchor="start">trade_state</text><text x="2035" y="885" fill="#4b5563" font-size="13" font-weight="400" text-anchor="start">USERPAYING -&gt; SUCCESS</text><rect x="1345" y="930" width="430" height="231" rx="14" ry="14" fill="#fff" stroke="#dc2626" stroke-width="2.1"/><rect x="1345" y="930" width="430" height="64" rx="14" ry="14" fill="#dcfce7" stroke="#86efac" stroke-width="0"/><rect x="1345" y="980" width="430" height="14" fill="#dcfce7"/><ellipse cx="1377" cy="957" rx="20" ry="7" fill="#dcfce7" stroke="#86efac" stroke-width="1.3"/><path d="M 1357 957 v 22 c 0 4 9 7 20 7 s 20-3 20-7 v -22" fill="#dcfce7" stroke="#86efac" stroke-width="1.3"/><ellipse cx="1377" cy="979" rx="20" ry="7" fill="#dcfce7" stroke="#86efac" stroke-width="1.3"/><text x="1411" y="960" fill="#111827" font-size="23" font-weight="850" text-anchor="start">crm_card</text><text x="1411" y="984" fill="#6b7280" font-size="15" font-weight="400" text-anchor="start">会员卡余额/积分结果</text><rect x="1679" y="947" width="82" height="28" rx="14" ry="14" fill="#fff7ed" stroke="#fed7aa" stroke-width="1"/><text x="1720.0" y="966" fill="#9a3412" font-size="14" font-weight="800" text-anchor="middle">核心结果表</text><rect x="1359" y="998" width="402" height="26" rx="7" ry="7" fill="#f0fdf4" stroke="#eef2f7" stroke-width="0.4"/><text x="1370" y="1019" fill="#166534" font-size="13" font-weight="850" text-anchor="start">balance</text><text x="1530" y="1019" fill="#4b5563" font-size="13" font-weight="400" text-anchor="start">+= principal + give</text><rect x="1359" y="1027" width="402" height="26" rx="7" ry="7" fill="#f0fdf4" stroke="#eef2f7" stroke-width="0.4"/><text x="1370" y="1048" fill="#166534" font-size="13" font-weight="850" text-anchor="start">principal_balance</text><text x="1530" y="1048" fill="#4b5563" font-size="13" font-weight="400" text-anchor="start">+= principal_amount</text><rect x="1359" y="1056" width="402" height="26" rx="7" ry="7" fill="#f0fdf4" stroke="#eef2f7" stroke-width="0.4"/><text x="1370" y="1077" fill="#166534" font-size="13" font-weight="850" text-anchor="start">give_balance</text><text x="1530" y="1077" fill="#4b5563" font-size="13" font-weight="400" text-anchor="start">+= give_amount</text><rect x="1359" y="1085" width="402" height="26" rx="7" ry="7" fill="#f0fdf4" stroke="#eef2f7" stroke-width="0.4"/><text x="1370" y="1106" fill="#166534" font-size="13" font-weight="850" text-anchor="start">points/sum_of_points</text><text x="1530" y="1106" fill="#4b5563" font-size="13" font-weight="400" text-anchor="start">+= give_point</text><rect x="1359" y="1114" width="402" height="26" rx="7" ry="7" fill="#f0fdf4" stroke="#eef2f7" stroke-width="0.4"/><text x="1370" y="1135" fill="#166534" font-size="13" font-weight="850" text-anchor="start">card_type_level</text><text x="1530" y="1135" fill="#4b5563" font-size="13" font-weight="400" text-anchor="start">满足规则时可能升级</text><rect x="1845" y="930" width="455" height="202" rx="14" ry="14" fill="#fff" stroke="#5eead4" stroke-width="1.5"/><rect x="1845" y="930" width="455" height="64" rx="14" ry="14" fill="#f0fdfa" stroke="#5eead4" stroke-width="0"/><rect x="1845" y="980" width="455" height="14" fill="#f0fdfa"/><ellipse cx="1877" cy="957" rx="20" ry="7" fill="#f0fdfa" stroke="#5eead4" stroke-width="1.3"/><path d="M 1857 957 v 22 c 0 4 9 7 20 7 s 20-3 20-7 v -22" fill="#f0fdfa" stroke="#5eead4" stroke-width="1.3"/><ellipse cx="1877" cy="979" rx="20" ry="7" fill="#f0fdfa" stroke="#5eead4" stroke-width="1.3"/><text x="1911" y="960" fill="#111827" font-size="23" font-weight="850" text-anchor="start">crm_card_balance / crm_card_record</text><text x="1911" y="984" fill="#6b7280" font-size="15" font-weight="400" text-anchor="start">余额批次与流水</text><rect x="2204" y="947" width="82" height="28" rx="14" ry="14" fill="#fff7ed" stroke="#fed7aa" stroke-width="1"/><text x="2245.0" y="966" fill="#9a3412" font-size="14" font-weight="800" text-anchor="middle">余额流水</text><rect x="1859" y="998" width="427" height="26" rx="7" ry="7" fill="#f0fdf4" stroke="#eef2f7" stroke-width="0.4"/><text x="1870" y="1019" fill="#166534" font-size="13" font-weight="850" text-anchor="start">crm_card_balance</text><text x="2035" y="1019" fill="#4b5563" font-size="13" font-weight="400" text-anchor="start">本金/赠送余额批次</text><rect x="1859" y="1027" width="427" height="26" rx="7" ry="7" fill="#fef2f2" stroke="#eef2f7" stroke-width="0.4"/><text x="1870" y="1048" fill="#991b1b" font-size="13" font-weight="850" text-anchor="start">card_record.task_lid</text><text x="2035" y="1048" fill="#4b5563" font-size="13" font-weight="400" text-anchor="start">= crm_deal_task.lid</text><rect x="1859" y="1056" width="427" height="26" rx="7" ry="7" fill="#fef2f2" stroke="#eef2f7" stroke-width="0.4"/><text x="1870" y="1077" fill="#991b1b" font-size="13" font-weight="850" text-anchor="start">order_bill_id</text><text x="2035" y="1077" fill="#4b5563" font-size="13" font-weight="400" text-anchor="start">= out_trade_no</text><rect x="1859" y="1085" width="427" height="26" rx="7" ry="7" fill="#f0fdf4" stroke="#eef2f7" stroke-width="0.4"/><text x="1870" y="1106" fill="#166534" font-size="13" font-weight="850" text-anchor="start">before/after</text><text x="2035" y="1106" fill="#4b5563" font-size="13" font-weight="400" text-anchor="start">充值前后余额快照</text><rect x="1345" y="1195" width="430" height="173" rx="14" ry="14" fill="#fff" stroke="#fde68a" stroke-width="1.5"/><rect x="1345" y="1195" width="430" height="64" rx="14" ry="14" fill="#fffbeb" stroke="#fde68a" stroke-width="0"/><rect x="1345" y="1245" width="430" height="14" fill="#fffbeb"/><ellipse cx="1377" cy="1222" rx="20" ry="7" fill="#fffbeb" stroke="#fde68a" stroke-width="1.3"/><path d="M 1357 1222 v 22 c 0 4 9 7 20 7 s 20-3 20-7 v -22" fill="#fffbeb" stroke="#fde68a" stroke-width="1.3"/><ellipse cx="1377" cy="1244" rx="20" ry="7" fill="#fffbeb" stroke="#fde68a" stroke-width="1.3"/><text x="1411" y="1225" fill="#111827" font-size="23" font-weight="850" text-anchor="start">crm_card_points_record</text><text x="1411" y="1249" fill="#6b7280" font-size="15" font-weight="400" text-anchor="start">积分流水</text><rect x="1679" y="1212" width="82" height="28" rx="14" ry="14" fill="#fff7ed" stroke="#fed7aa" stroke-width="1"/><text x="1720.0" y="1231" fill="#9a3412" font-size="14" font-weight="800" text-anchor="middle">积分流水</text><rect x="1359" y="1263" width="402" height="26" rx="7" ry="7" fill="#fef2f2" stroke="#eef2f7" stroke-width="0.4"/><text x="1370" y="1284" fill="#991b1b" font-size="13" font-weight="850" text-anchor="start">order_bill_id</text><text x="1530" y="1284" fill="#4b5563" font-size="13" font-weight="400" text-anchor="start">= crm_deal_task.out_trade_no</text><rect x="1359" y="1292" width="402" height="26" rx="7" ry="7" fill="#f0fdf4" stroke="#eef2f7" stroke-width="0.4"/><text x="1370" y="1313" fill="#166534" font-size="13" font-weight="850" text-anchor="start">amount</text><text x="1530" y="1313" fill="#4b5563" font-size="13" font-weight="400" text-anchor="start">= give_point</text><rect x="1359" y="1321" width="402" height="26" rx="7" ry="7" fill="#f0fdf4" stroke="#eef2f7" stroke-width="0.4"/><text x="1370" y="1342" fill="#166534" font-size="13" font-weight="850" text-anchor="start">before/after</text><text x="1530" y="1342" fill="#4b5563" font-size="13" font-weight="400" text-anchor="start">积分前后快照</text><rect x="1845" y="1195" width="455" height="173" rx="14" ry="14" fill="#fff" stroke="#d8b4fe" stroke-width="1.5" stroke-dasharray="8 6"/><rect x="1845" y="1195" width="455" height="64" rx="14" ry="14" fill="#faf5ff" stroke="#d8b4fe" stroke-width="0"/><rect x="1845" y="1245" width="455" height="14" fill="#faf5ff"/><ellipse cx="1877" cy="1222" rx="20" ry="7" fill="#faf5ff" stroke="#d8b4fe" stroke-width="1.3"/><path d="M 1857 1222 v 22 c 0 4 9 7 20 7 s 20-3 20-7 v -22" fill="#faf5ff" stroke="#d8b4fe" stroke-width="1.3"/><ellipse cx="1877" cy="1244" rx="20" ry="7" fill="#faf5ff" stroke="#d8b4fe" stroke-width="1.3"/><text x="1911" y="1225" fill="#111827" font-size="23" font-weight="850" text-anchor="start">crm_coupon_order / schedule</text><text x="1911" y="1249" fill="#6b7280" font-size="15" font-weight="400" text-anchor="start">赠券与周期发券（异步）</text><rect x="2204" y="1212" width="82" height="28" rx="14" ry="14" fill="#fff7ed" stroke="#fed7aa" stroke-width="1"/><text x="2245.0" y="1231" fill="#9a3412" font-size="14" font-weight="800" text-anchor="middle">异步权益</text><rect x="1859" y="1263" width="427" height="26" rx="7" ry="7" fill="#fef2f2" stroke="#eef2f7" stroke-width="0.4"/><text x="1870" y="1284" fill="#991b1b" font-size="13" font-weight="850" text-anchor="start">coupon_order.order_bill_id</text><text x="2035" y="1284" fill="#4b5563" font-size="13" font-weight="400" text-anchor="start">一次发券 = crm_deal_task.lid</text><rect x="1859" y="1292" width="427" height="26" rx="7" ry="7" fill="#fef2f2" stroke="#eef2f7" stroke-width="0.4"/><text x="1870" y="1313" fill="#991b1b" font-size="13" font-weight="850" text-anchor="start">schedule.charge_record_lid</text><text x="2035" y="1313" fill="#4b5563" font-size="13" font-weight="400" text-anchor="start">周期发券关联购买记录</text><rect x="1859" y="1321" width="427" height="26" rx="7" ry="7" fill="#faf5ff" stroke="#eef2f7" stroke-width="0.4"/><text x="1870" y="1342" fill="#7e22ce" font-size="13" font-weight="850" text-anchor="start">next_issue_date</text><text x="2035" y="1342" fill="#4b5563" font-size="13" font-weight="400" text-anchor="start">周期发券调度时间</text><path d="M 660 540 C 710 540 735 540 790 540" stroke="#2563eb" stroke-width="3" fill="none" marker-end="url(#arrow-blue)"/><rect x="646.25" y="495" width="157.5" height="29" rx="8" ry="8" fill="#eff6ff" stroke="#e5e7eb" stroke-width="1"/><text x="725" y="518" fill="#1d4ed8" font-size="15" font-weight="700" text-anchor="middle">dwd_bill -&gt; DTO</text><path d="M 660 1190 C 720 1190 728 620 790 620" stroke="#16a34a" stroke-width="2.5" fill="none" marker-end="url(#arrow-green)" stroke-dasharray="8 6"/><rect x="630.75" y="872" width="178.5" height="29" rx="8" ry="8" fill="#f0fdf4" stroke="#e5e7eb" stroke-width="1"/><text x="720" y="895" fill="#166534" font-size="15" font-weight="700" text-anchor="middle">dwd_pay -&gt; payWay</text><path d="M 1210 550 L 1270 550 L 1270 388 L 2050 388 L 2050 410" stroke="#dc2626" stroke-width="3" fill="none" marker-end="url(#arrow-red)"/><rect x="1519.5" y="361" width="231.0" height="29" rx="8" ry="8" fill="#fef2f2" stroke="#e5e7eb" stroke-width="1"/><text x="1635" y="384" fill="#991b1b" font-size="15" font-weight="700" text-anchor="middle">orderId = out_trade_no</text><path d="M 1775 525 L 1845 525" stroke="#16a34a" stroke-width="2.6" fill="none" marker-end="url(#arrow-green)"/><rect x="1774.0" y="477" width="72" height="29" rx="8" ry="8" fill="#f0fdf4" stroke="#e5e7eb" stroke-width="1"/><text x="1810" y="500" fill="#166534" font-size="15" font-weight="700" text-anchor="middle">档位配置</text><path d="M 2072 618 L 2072 680" stroke="#2563eb" stroke-width="2.4" fill="none" marker-end="url(#arrow-blue)"/><rect x="2140" y="632" width="72" height="29" rx="8" ry="8" fill="#eff6ff" stroke="#e5e7eb" stroke-width="1"/><text x="2148" y="655" fill="#1d4ed8" font-size="15" font-weight="700" text-anchor="start">购买记录</text><path d="M 1880 620 C 1755 650 1660 660 1560 680" stroke="#2563eb" stroke-width="2.4" fill="none" marker-end="url(#arrow-blue)"/><rect x="1694.0" y="627" width="72" height="29" rx="8" ry="8" fill="#eff6ff" stroke="#e5e7eb" stroke-width="1"/><text x="1730" y="650" fill="#1d4ed8" font-size="15" font-weight="700" text-anchor="middle">交易明细</text><path d="M 2010 620 L 2010 890 L 1560 890 L 1560 930" stroke="#16a34a" stroke-width="3" fill="none" marker-end="url(#arrow-green)"/><rect x="1698.25" y="861" width="73.5" height="29" rx="8" ry="8" fill="#f0fdf4" stroke="#e5e7eb" stroke-width="1"/><text x="1735" y="884" fill="#166534" font-size="15" font-weight="700" text-anchor="middle">余额/积分入账</text><path d="M 1775 1040 L 1845 1040" stroke="#16a34a" stroke-width="2.4" fill="none" marker-end="url(#arrow-green)"/><rect x="1774.0" y="994" width="72" height="29" rx="8" ry="8" fill="#f0fdf4" stroke="#e5e7eb" stroke-width="1"/><text x="1810" y="1017" fill="#166534" font-size="15" font-weight="700" text-anchor="middle">余额流水</text><path d="M 1560 1117 L 1560 1195" stroke="#16a34a" stroke-width="2.4" fill="none" marker-end="url(#arrow-green)"/><rect x="1627" y="1140" width="72" height="29" rx="8" ry="8" fill="#f0fdf4" stroke="#e5e7eb" stroke-width="1"/><text x="1635" y="1163" fill="#166534" font-size="15" font-weight="700" text-anchor="start">积分流水</text><path d="M 2300 760 L 2330 760 L 2330 1260 L 2300 1260" stroke="#9333ea" stroke-width="2.6" fill="none" marker-end="url(#arrow-purple)" stroke-dasharray="9 7"/><rect x="2218.25" y="995" width="73.5" height="29" rx="8" ry="8" fill="#faf5ff" stroke="#e5e7eb" stroke-width="1"/><text x="2255" y="1018" fill="#7e22ce" font-size="15" font-weight="700" text-anchor="middle">异步赠券/排期</text><path d="M 1845 470 L 1300 470 L 1300 810 L 1210 810" stroke="#dc2626" stroke-width="2.8" fill="none" marker-end="url(#arrow-red)"/><rect x="1340" y="772" width="315.0" height="29" rx="8" ry="8" fill="#fef2f2" stroke="#e5e7eb" stroke-width="1"/><text x="1348" y="795" fill="#991b1b" font-size="15" font-weight="700" text-anchor="start">crm_deal_task.lid -&gt; outTranNo</text><path d="M 790 845 L 720 845 L 720 635 L 660 635" stroke="#16a34a" stroke-width="3" fill="none" marker-end="url(#arrow-green)"/><rect x="662.25" y="637" width="115.5" height="29" rx="8" ry="8" fill="#f0fdf4" stroke="#e5e7eb" stroke-width="1"/><text x="720" y="660" fill="#166534" font-size="15" font-weight="700" text-anchor="middle">反写 dwd_bill</text><path d="M 790 890 L 720 890 L 720 930 L 660 930" stroke="#16a34a" stroke-width="3" fill="none" marker-end="url(#arrow-green)"/><rect x="662.25" y="897" width="115.5" height="29" rx="8" ry="8" fill="#f0fdf4" stroke="#e5e7eb" stroke-width="1"/><text x="720" y="920" fill="#166534" font-size="15" font-weight="700" text-anchor="middle">反写 dwd_food</text><path d="M 365 780 L 365 815" stroke="#dc2626" stroke-width="2.3" fill="none" marker-end="url(#arrow-red)" stroke-dasharray="6 5"/><rect x="444.0" y="783" width="72" height="29" rx="8" ry="8" fill="#fef2f2" stroke="#e5e7eb" stroke-width="1"/><text x="480" y="806" fill="#991b1b" font-size="15" font-weight="700" text-anchor="middle">本地明细关联</text><rect x="50" y="1395" width="2300" height="230" rx="18" ry="18" fill="#f8fafc" stroke="#cbd5e1" stroke-width="1.5"/><text x="85" y="1438" fill="#0f172a" font-size="24" font-weight="900" text-anchor="start">这次补充后的重点</text><text x="85" y="1475" fill="#334155" font-size="18" font-weight="400" text-anchor="start">1. dwd_bill 是 POS 本地账单主表，储值方案字段 deposit_plan_lid / deposit_tier_index 决定走新储值方案链路。</text><text x="85" y="1507" fill="#334155" font-size="18" font-weight="400" text-anchor="start">2. dwd_food 是本地明细/展示/报表口径，CRM成功后按实际本金、赠送、总额覆盖更新。</text><text x="85" y="1539" fill="#334155" font-size="18" font-weight="400" text-anchor="start">3. dwd_pay 只参与生成 payWay 描述，CRM实际入账金额以 crm_deposit_plan.tier_rule 档位为准。</text><text x="85" y="1571" fill="#334155" font-size="18" font-weight="400" text-anchor="start">4. 最关键的两个跨库字段：dwd_bill.saas_order_key 对应 crm_deal_task.out_trade_no；dwd_bill.card_task_lid 对应 crm_deal_task.lid。</text><line x1="1620" y1="1460" x2="1675" y2="1460" stroke="#2563eb" stroke-width="3" fill="none" marker-end="url(#arrow-blue)"/><text x="1690" y="1466" fill="#475569" font-size="16" font-weight="400" text-anchor="start">同步流程 / 生成记录</text><line x1="1620" y1="1494" x2="1675" y2="1494" stroke="#16a34a" stroke-width="3" fill="none" marker-end="url(#arrow-green)"/><text x="1690" y="1500" fill="#475569" font-size="16" font-weight="400" text-anchor="start">入账结果 / 本地反写</text><line x1="1620" y1="1528" x2="1675" y2="1528" stroke="#dc2626" stroke-width="3" fill="none" marker-end="url(#arrow-red)"/><text x="1690" y="1534" fill="#475569" font-size="16" font-weight="400" text-anchor="start">关键ID关联</text><line x1="1620" y1="1562" x2="1675" y2="1562" stroke="#9333ea" stroke-width="3" fill="none" marker-end="url(#arrow-purple)" stroke-dasharray="9 7"/><text x="1690" y="1568" fill="#475569" font-size="16" font-weight="400" text-anchor="start">异步赠券 / 周期排期</text></svg>
